SplineFontDB: 3.0
FontName: Coiny-Regular
FullName: Coiny
FamilyName: Coiny Regular
Weight: Regular
Copyright: Copyright (c) 2015, Marcelo Magalhaes
Version: 1.0
ItalicAngle: 0
UnderlinePosition: -140
UnderlineWidth: 50
Ascent: 800
Descent: 200
InvalidEm: 0
UFOAscent: 760
UFODescent: -240
LayerCount: 2
Layer: 0 0 "Back" 1
Layer: 1 0 "Fore" 0
PreferredKerning: 4
FSType: 0
OS2Version: 0
OS2_WeightWidthSlopeOnly: 0
OS2_UseTypoMetrics: 0
CreationTime: 1439837839
ModificationTime: 1443546246
PfmFamily: 16
TTFWeight: 400
TTFWidth: 5
LineGap: 90
VLineGap: 0
Panose: 2 0 5 3 0 0 0 0 0 0
OS2TypoAscent: 760
OS2TypoAOffset: 0
OS2TypoDescent: -240
OS2TypoDOffset: 0
OS2TypoLinegap: 90
OS2WinAscent: 765
OS2WinAOffset: 0
OS2WinDescent: 240
OS2WinDOffset: 0
HheadAscent: 765
HheadAOffset: 0
HheadDescent: -240
HheadDOffset: 0
OS2SubXSize: 650
OS2SubYSize: 700
OS2SubXOff: 0
OS2SubYOff: 140
OS2SupXSize: 650
OS2SupYSize: 700
OS2SupXOff: 0
OS2SupYOff: 480
OS2StrikeYSize: 49
OS2StrikeYPos: 258
OS2CapHeight: 0
OS2XHeight: 515
OS2Vendor: 'PfEd'
OS2CodePages: 00000001.00000000
OS2UnicodeRanges: 00000005.00000000.00000000.00000000
Lookup: 4 0 0 "'akhn' Akhand lookup 0" { "'akhn' Akhand lookup 0 subtable"  } ['akhn' ('taml' <'dflt' > 'tml2' <'dflt' > ) ]
Lookup: 4 0 0 "'abvs' Above Base Substitutions lookup 1" { "'abvs' Above Base Substitutions lookup 1 subtable"  } ['abvs' ('taml' <'dflt' > 'tml2' <'dflt' > ) ]
Lookup: 4 0 0 "'psts' Post Base Substitutions lookup 2" { "'psts' Post Base Substitutions lookup 2 subtable"  } ['psts' ('taml' <'dflt' > 'tml2' <'dflt' > ) ]
Lookup: 4 0 0 "'psts' Post Base Substitutions lookup 3" { "'psts' Post Base Substitutions lookup 3 subtable"  } ['psts' ('taml' <'dflt' > 'tml2' <'dflt' > ) ]
Lookup: 6 0 0 "'psts' Post Base Substitutions lookup 4" { "'psts' Post Base Substitutions lookup 4 contextual 0"  "'psts' Post Base Substitutions lookup 4 contextual 1"  } ['psts' ('taml' <'dflt' > 'tml2' <'dflt' > ) ]

StartChar: uni0B85
Encoding: 6 2949 0
GlifName: uni0B_85
Width: 1207
VWidth: 0
GlyphClass: 2
Flags: HW
HStem: -239.25 197.57<268.361 528.384> 35.5996 126.5<230.062 616.137 864.974 965.07> 255.364 62.498<391.7 443.985> 436.949 85.4668<396.751 444.789>
VStem: 238.207 146.739<321.198 431.874> 452.163 145.982<321.198 414.326> 668.189 197.524<162.421 265.355> 965.773 218.338<-176.368 35.5996 162.1 484.919>
LayerCount: 2
Back
Fore
SplineSet
452.163085938 375.215820312 m 0
 452.163085938 404.178710938 442.040039062 436.94921875 419.599609375 436.94921875 c 0
 398.940429688 436.94921875 386.52734375 407.794921875 385.056640625 380.614257812 c 0
 384.983398438 378.854492188 384.946289062 377.055664062 384.946289062 375.215820312 c 2
 384.909179688 375.215820312 l 1
 384.909179688 346.6875 396.00390625 317.862304688 419.31640625 317.862304688 c 0
 442.751953125 317.862304688 452.163085938 346.296875 452.163085938 375.215820312 c 0
23 -3.5 m 4
 23 118.399414062 115.440429688 162.099609375 263.790039062 162.099609375 c 6
 667.443359375 162.099609375 l 5
 667.942382812 168.961914062 668.188476562 175.932617188 668.189453125 183 c 4
 668.189453125 276.419921875 643.194335938 364.60546875 586.767578125 414.879882812 c 1
 594.159179688 403.071289062 598.145507812 389.79296875 598.145507812 375.215820312 c 0
 598.145507812 298.099609375 518.87109375 255.364257812 419.040039062 255.364257812 c 0
 319.317382812 255.364257812 238.872070312 298.099609375 238.872070312 375.215820312 c 1
 238.20703125 375.215820312 l 1
 238.20703125 471.538085938 320.140625 522.661132812 447.790039062 522.416015625 c 0
 656.84765625 522.013671875 852.791015625 400.747070312 865.713867188 162.099609375 c 5
 965.0703125 162.099609375 l 5
 964.495117188 258.141601562 963.8984375 352.120117188 963.8984375 402.466796875 c 4
 963.8984375 489.275390625 1012.08398438 522.416015625 1074.14941406 522.416015625 c 4
 1136.99609375 522.416015625 1183.79003906 508.598632812 1183.79003906 411.453125 c 4
 1183.79003906 309.280273438 1184.11132812 71.7783203125 1184.11132812 -69.759765625 c 4
 1184.11132812 -181.197265625 1145.89746094 -220.064453125 1074.14941406 -220.064453125 c 4
 1002.40039062 -220.064453125 966.118164062 -187.864257812 966.118164062 -77.4072265625 c 4
 966.118164062 -46.6298828125 965.98046875 -7.4248046875 965.7734375 35.599609375 c 5
 856.256835938 35.599609375 l 5
 820.131835938 -132.716796875 686.395507812 -239.25 438.58984375 -239.25 c 4
 217.790039062 -239.25 23 -143.685546875 23 -3.5 c 4
616.13671875 35.599609375 m 5
 225.83984375 35.599609375 l 5
 225.83984375 -24 306.024414062 -41.6796875 389.140625 -41.6796875 c 4
 498.366210938 -41.6796875 572.047851562 -12.314453125 616.13671875 35.599609375 c 5
EndSplineSet
PickledDataWithLists: "(dp1
S'com.fontlab.hintData'
p2
(dp3
S'vhints'
p4
(lp5
(dp6
S'position'
p7
I349
sS'width'
p8
I127
sa(dp9
g7
I535
sg8
I127
sa(dp10
g7
I749
sg8
I183
sa(dp11
g7
I1026
sg8
I190
sa(dp12
g7
I1026
sg8
I8
sasS'hhints'
p13
(lp14
(dp15
g7
I-239
sg8
I184
sa(dp16
g7
I-222
sg8
I570
sa(dp17
g7
I0
sg8
I82
sa(dp18
g7
I116
sg8
I54
sa(dp19
g7
I274
sg8
I74
sa(dp20
g7
I292
sg8
I17
sass."
EndChar

StartChar: uni0B86
Encoding: 7 2950 1
GlifName: uni0B_86
Width: 1546
VWidth: 0
GlyphClass: 2
Flags: HW
HStem: -545.65 208.944<911.308 1141.94> -255.851 77.0508<890.489 954.933> -238.1 197.57<268.361 528.384> 36.75 126.5<230.062 616.137 864.974 965.07> 256.515 62.498<391.7 443.985> 438.1 85.4668<396.751 444.789>
VStem: 238.872 146.037<322.348 433.025> 452.163 145.982<322.348 415.476> 668.189 197.524<163.572 266.506> 717.768 171.35<-387.701 -260.098> 966.118 217.135<-177.158 -96.4945 -96.4941 -40.6002 163.25 486.069> 1270.66 253.253<-220.84 -36.5494>
LayerCount: 2
Back
Fore
SplineSet
1145.56738281 -315.650390625 m 0xdf70
 1227.10253906 -284.088867188 1270.6640625 -225.950195312 1270.6640625 -96 c 0
 1270.6640625 -59.2001953125 1262.8671875 -32.470703125 1232.20800781 -32.470703125 c 0
 1206.05078125 -32.470703125 1187.40917969 -48.4462890625 1183.86425781 -83.6767578125 c 0
 1183.72167969 -87.890625 1183.51757812 -91.9892578125 1183.25292969 -95.9765625 c 2
 1183.25195312 -96.494140625 l 2
 1183.24023438 -96.494140625 1183.22949219 -96.494140625 1183.21777344 -96.494140625 c 0
 1177.08984375 -186.6171875 1139.55273438 -218.9140625 1074.14941406 -218.9140625 c 0
 1002.40039062 -218.9140625 966.118164062 -186.713867188 966.118164062 -76.2568359375 c 0
 966.118164062 -45.4794921875 965.98046875 -6.2744140625 965.7734375 36.75 c 1
 856.256835938 36.75 l 1
 820.131835938 -131.56640625 686.395507812 -238.099609375 438.58984375 -238.099609375 c 0
 217.790039062 -238.099609375 23 -142.53515625 23 -2.349609375 c 0
 23 119.549804688 115.440429688 163.25 263.790039062 163.25 c 2
 667.443359375 163.25 l 1
 667.942382812 170.112304688 668.188476562 177.083007812 668.189453125 184.150390625 c 0
 668.189453125 277.5703125 643.194335938 365.755859375 586.767578125 416.030273438 c 1
 594.159179688 404.221679688 598.145507812 390.943359375 598.145507812 376.366210938 c 0
 598.145507812 299.25 518.87109375 256.514648438 419.040039062 256.514648438 c 0
 319.317382812 256.514648438 238.872070312 299.25 238.872070312 376.366210938 c 1
 238.20703125 376.366210938 l 1
 238.20703125 472.688476562 320.140625 523.811523438 447.790039062 523.56640625 c 0
 656.84765625 523.1640625 852.791015625 401.897460938 865.713867188 163.25 c 1xbfb0
 965.0703125 163.25 l 1
 964.495117188 259.291992188 963.8984375 353.270507812 963.8984375 403.6171875 c 0
 963.8984375 490.42578125 1012.08398438 523.56640625 1074.14941406 523.56640625 c 0
 1136.99609375 523.56640625 1183.79003906 509.749023438 1183.79003906 412.603515625 c 0
 1183.79003906 342.486328125 1183.94140625 208.63671875 1184.03613281 85.8056640625 c 1
 1214.68457031 111.913085938 1253.74707031 125.200195312 1297.3671875 125.200195312 c 0
 1418.93261719 125.200195312 1523.91699219 79.43359375 1523.91699219 -145.450195312 c 0
 1523.91699219 -380.049804688 1333.13183594 -545.650390625 1065.06738281 -545.650390625 c 0
 867.267578125 -545.650390625 717.767578125 -460.549804688 717.767578125 -314.5 c 0
 717.767578125 -223.650390625 793.666992188 -178.799804688 867.267578125 -178.799804688 c 0
 930.517578125 -178.799804688 967.6484375 -198.350585938 967.6484375 -224.799804688 c 0
 967.6484375 -252.400390625 947.767578125 -255.850585938 932.817382812 -255.850585938 c 0
 901.767578125 -255.850585938 889.1171875 -268.5 889.1171875 -288.049804688 c 0
 889.1171875 -316.227539062 951.026367188 -336.706054688 1023.66699219 -336.706054688 c 0
 1063.90527344 -336.706054688 1107.44433594 -330.407226562 1145.56738281 -315.650390625 c 0xdf70
452.163085938 376.366210938 m 0
 452.163085938 405.329101562 442.040039062 438.099609375 419.599609375 438.099609375 c 0
 398.940429688 438.099609375 386.52734375 408.9453125 385.056640625 381.764648438 c 0
 384.983398438 380.004882812 384.946289062 378.206054688 384.946289062 376.366210938 c 2
 384.909179688 376.366210938 l 1
 384.909179688 347.837890625 396.00390625 319.012695312 419.31640625 319.012695312 c 0
 442.751953125 319.012695312 452.163085938 347.447265625 452.163085938 376.366210938 c 0
616.13671875 36.75 m 1
 225.83984375 36.75 l 1
 225.83984375 -22.849609375 306.024414062 -40.529296875 389.140625 -40.529296875 c 0
 498.366210938 -40.529296875 572.047851562 -11.1640625 616.13671875 36.75 c 1
EndSplineSet
PickledDataWithLists: "(dp1
S'com.fontlab.hintData'
p2
(dp3
S'vhints'
p4
(lp5
(dp6
S'position'
p7
I267
sS'width'
p8
I127
sa(dp9
g7
I453
sg8
I127
sa(dp10
g7
I667
sg8
I183
sa(dp11
g7
I708
sg8
I149
sa(dp12
g7
I944
sg8
I8
sa(dp13
g7
I944
sg8
I190
sa(dp14
g7
I1037
sg8
I76
sa(dp15
g7
I1189
sg8
I201
sasS'hhints'
p16
(lp17
(dp18
g7
I-515
sg8
I182
sa(dp19
g7
I-263
sg8
I67
sa(dp20
g7
I-244
sg8
I184
sa(dp21
g7
I-227
sg8
I570
sa(dp22
g7
I-69
sg8
I134
sa(dp23
g7
I-5
sg8
I82
sa(dp24
g7
I111
sg8
I54
sa(dp25
g7
I269
sg8
I74
sa(dp26
g7
I287
sg8
I17
sass."
EndChar

StartChar: uni0B87
Encoding: 8 2951 2
GlifName: uni0B_87
Width: 1312
VWidth: 0
GlyphClass: 2
Flags: HW
HStem: -227.65 132.563<269.372 380.457 702.354 801.446> 105.7 129.798<443.949 644.632> 289.948 71.4297<524.892 572.333> 462.601 94.3994<526.027 687.894> 615.335 164.165<426.186 791.617>
VStem: 23 178.149<-42.3512 40.3187> 83.8496 207.75<312.563 510.123> 367.911 151.746<364.215 459.152> 576.823 151.026<363.215 428.74> 752 182.85<242.021 401.402> 850.899 188.358<-52.656 43.1683> 1083.68 205.982<-152.014 358.114>
LayerCount: 2
Back
Fore
SplineSet
576.823242188 410.127929688 m 0xf990
 576.823242188 434.745117188 568.217773438 462.600585938 549.14453125 462.600585938 c 0
 530.412109375 462.600585938 519.657226562 434.40625 519.657226562 410.127929688 c 0
 519.657226562 385.87890625 529.087890625 361.377929688 548.904296875 361.377929688 c 0
 568.82421875 361.377929688 576.823242188 385.545898438 576.823242188 410.127929688 c 0xf990
1289.34082031 224.349609375 m 0
 1289.34082031 120.427734375 1289.66308594 83.4951171875 1289.66308594 -42.896484375 c 0
 1289.66308594 -154.333984375 1254.23925781 -193.200195312 1187.71191406 -193.200195312 c 0
 1118.609375 -193.200195312 1083.68066406 -161 1083.68066406 -50.54296875 c 0
 1083.68066406 56.8251953125 1081.44921875 136.421875 1081.44921875 220.799804688 c 0
 1081.44921875 466.029296875 956.243164062 615.334960938 584.099609375 615.334960938 c 0
 399.204101562 615.334960938 291.599609375 550.758789062 291.599609375 425.899414062 c 0
 291.599609375 360.889648438 316.399414062 290.143554688 355.686523438 221.872070312 c 1
 417.303710938 231.13671875 482.390625 235.498046875 546.149414062 235.498046875 c 0
 605.9296875 235.498046875 666.258789062 232.030273438 723.143554688 224.350585938 c 1
 741.749023438 266.553710938 752 307.790039062 752 345.399414062 c 0
 752 377.489257812 741.506835938 406.518554688 725.380859375 429.055664062 c 1
 727.0078125 422.922851562 727.849609375 416.498046875 727.849609375 409.799804688 c 0
 727.849609375 332.682617188 648.57421875 289.948242188 548.744140625 289.948242188 c 0
 449.020507812 289.948242188 368.576171875 332.682617188 368.576171875 409.799804688 c 1
 367.911132812 409.799804688 l 1
 367.911132812 506.12109375 449.84375 557 577.494140625 557 c 0
 798.293945312 557 934.849609375 458.099609375 934.849609375 301.700195312 c 0xfbd0
 934.849609375 266.852539062 924.701171875 223.845703125 905.452148438 177.53125 c 1
 970.661132812 148.98828125 1016.93457031 108.694335938 1030.29980469 54.0498046875 c 0
 1036.55566406 28.4716796875 1039.2578125 4.7265625 1039.2578125 -17.25 c 0
 1039.2578125 -165.521484375 883.224609375 -227.650390625 751.14453125 -227.650390625 c 0
 681.6953125 -227.650390625 612.258789062 -212.44140625 545.8359375 -185.743164062 c 1
 482.8203125 -212.01953125 413.565429688 -227.650390625 339.149414062 -227.650390625 c 0
 111.469726562 -227.650390625 23 -114.736328125 23 -12.650390625 c 0xfdb0
 23 10.525390625 26.126953125 33.4931640625 34.3994140625 54.0498046875 c 0
 53.173828125 100.705078125 96.4697265625 137.390625 154.622070312 165.198242188 c 1
 109.859375 246.702148438 83.849609375 332.385742188 83.849609375 413.25 c 0xfb90
 83.849609375 637.373046875 255.19921875 779.5 625.5 779.5 c 0
 1095.93066406 779.5 1289.34082031 557.8828125 1289.34082031 224.349609375 c 0
381.7734375 -92.78515625 m 1
 326.724609375 -51.8505859375 276.575195312 -3.708984375 233.771484375 48.607421875 c 1
 213.294921875 35.6298828125 201.149414062 20.255859375 201.149414062 2.2998046875 c 0xfd90
 201.149414062 -40.1328125 266.9921875 -95.0869140625 350.649414062 -95.0869140625 c 0
 360.807617188 -95.0869140625 371.205078125 -94.3515625 381.7734375 -92.78515625 c 1
646.737304688 100.7265625 m 1
 613.909179688 104.129882812 580.052734375 105.700195312 547.59375 105.700195312 c 0
 514.333007812 105.700195312 478.129882812 104.109375 442.078125 100.778320312 c 1
 474.561523438 62.8330078125 510.084960938 27.6904296875 546.30078125 -2.779296875 c 1
 583.91015625 29.294921875 617.811523438 64.3896484375 646.737304688 100.7265625 c 1
828.926757812 43.5634765625 m 1
 794.053710938 -4.154296875 751.240234375 -50.693359375 701.499023438 -91.3662109375 c 1
 711.994140625 -93.07421875 722.362304688 -93.8564453125 732.44921875 -93.8564453125 c 0
 797.537109375 -93.8564453125 850.899414062 -52.48828125 850.899414062 -1.150390625 c 0xf9b0
 850.899414062 16.083984375 842.89453125 30.9150390625 828.926757812 43.5634765625 c 1
EndSplineSet
PickledDataWithLists: "(dp1
S'com.fontlab.hintData'
p2
(dp3
S'vhints'
p4
(lp5
(dp6
S'position'
p7
I144
sS'width'
p8
I155
sa(dp9
g7
I197
sg8
I185
sa(dp10
g7
I445
sg8
I131
sa(dp11
g7
I626
sg8
I131
sa(dp12
g7
I796
sg8
I141
sa(dp13
g7
I864
sg8
I164
sa(dp14
g7
I1063
sg8
I190
sasS'hhints'
p15
(lp16
(dp17
g7
I-363
sg8
I134
sa(dp18
g7
I-34
sg8
I107
sa(dp19
g7
I116
sg8
I62
sa(dp20
g7
I266
sg8
I82
sa(dp21
g7
I292
sg8
I17
sa(dp22
g7
I398
sg8
I160
sass."
EndChar

StartChar: uni0B88
Encoding: 9 2952 3
GlifName: uni0B_88
Width: 1094
VWidth: 0
GlyphClass: 2
Flags: HW
HStem: 0.509766 21G<95.1543 166.904 637.954 709.705> 113.942 151.983<316.649 482.073 854.849 1020.27> 374.763 126.849<240.67 563.574 783.47 1058.16>
VStem: 23 217.987<44.6975 377.958> 288.777 217.54<139.525 238.813> 565.8 217.987<44.2054 375.567> 826.978 217.54<139.525 238.813>
LayerCount: 2
Back
Fore
SplineSet
240.987304688 150.813476562 m 0
 240.987304688 39.3759765625 202.779296875 0.509765625 131.029296875 0.509765625 c 0
 59.279296875 0.509765625 23 25.701171875 23 136.158203125 c 0
 23 259.100585938 23.49609375 335.008789062 23.49609375 431.625976562 c 0
 23.49609375 457.845703125 31.6015625 473.990234375 45.6396484375 483.89453125 c 0
 60.375 495.802734375 82.2841796875 501.611328125 110.825195312 501.611328125 c 2
 977.428710938 501.611328125 l 2
 1050.03222656 501.611328125 1071.37792969 484.329101562 1071.37792969 433.439453125 c 0
 1071.37792969 386.619140625 1037.83105469 374.762695312 965.928710938 374.762695312 c 2
 783.469726562 375.56640625 l 1
 783.499023438 286.736328125 783.787109375 288.171875 783.787109375 150.813476562 c 0
 783.787109375 39.3759765625 745.580078125 0.509765625 673.829101562 0.509765625 c 0
 602.079101562 0.509765625 565.799804688 32.708984375 565.799804688 143.166992188 c 0
 565.799804688 267.3125 563.649414062 281.87890625 563.57421875 376.53515625 c 1
 240.669921875 377.958007812 l 1
 240.694335938 286.700195312 240.987304688 289.393554688 240.987304688 150.813476562 c 0
288.77734375 190.025390625 m 0
 288.77734375 132.837890625 341.608398438 113.942382812 397.067382812 113.942382812 c 0
 462.889648438 113.942382812 506.317382812 129.889648438 506.317382812 190.025390625 c 0
 506.317382812 241.643554688 469.217773438 265.92578125 397.067382812 265.92578125 c 0
 325.8984375 265.92578125 288.77734375 233.16796875 288.77734375 190.025390625 c 0
826.977539062 190.025390625 m 0
 826.977539062 132.837890625 879.80859375 113.942382812 935.267578125 113.942382812 c 0
 1001.08984375 113.942382812 1044.51757812 129.889648438 1044.51757812 190.025390625 c 0
 1044.51757812 241.643554688 1007.41699219 265.92578125 935.267578125 265.92578125 c 0
 864.098632812 265.92578125 826.977539062 233.16796875 826.977539062 190.025390625 c 0
EndSplineSet
PickledDataWithLists: "(dp1
S'com.fontlab.hintData'
p2
(dp3
S'vhints'
p4
(lp5
(dp6
S'position'
p7
I55
sS'width'
p8
I190
sa(dp9
g7
I286
sg8
I189
sa(dp10
g7
I527
sg8
I190
sa(dp11
g7
I754
sg8
I189
sasS'hhints'
p12
(lp13
(dp14
g7
I0
sg8
I21
sa(dp15
g7
I99
sg8
I132
sa(dp16
g7
I300
sg8
I110
sass."
EndChar

StartChar: uni0B8E
Encoding: 12 2958 4
GlifName: uni0B_8E_
Width: 1080
VWidth: 0
GlyphClass: 2
Flags: HW
HStem: -4.81738 77.8975<302.434 483.507> 236.777 73.3584<436.816 482.838> 378 124<324.081 694.575 909.625 1044.11>
VStem: 23 218.5<161.229 308.783> 284.752 140.905<128.019 230.267> 492.891 140.843<77.0471 232.721> 694.575 215.05<28.2639 378>
LayerCount: 2
Back
Fore
SplineSet
492.890625 154.180664062 m 0
 492.890625 193.763671875 482.565429688 236.77734375 460.458007812 236.77734375 c 0
 437.62109375 236.77734375 425.657226562 193.260742188 425.657226562 154.223632812 c 0
 425.657226562 115.202148438 436.776367188 73.080078125 460.141601562 73.080078125 c 0
 483.506835938 73.080078125 492.890625 114.618164062 492.890625 154.180664062 c 0
909.625 106.961914062 m 2
 909.625 26.2001953125 879.725585938 0.2744140625 796.172851562 0.2744140625 c 0
 714.125 0.2744140625 694.575195312 38.4638671875 694.575195312 118.034179688 c 2
 694.575195312 378 l 1
 438.150390625 378 l 2
 313.625 378 241.5 337.008789062 241.5 227.866210938 c 0
 241.5 187.865234375 257.587890625 153.299804688 286.737304688 127.004882812 c 1
 285.4296875 135.315429688 284.751953125 144.005859375 284.751953125 153.064453125 c 0
 284.751953125 251.010742188 359.497070312 310.135742188 459.836914062 310.135742188 c 0
 560.201171875 310.135742188 633.733398438 251.010742188 633.733398438 153.064453125 c 0
 633.733398438 127.493164062 628.415039062 104.86328125 618.813476562 85.3955078125 c 0
 605.811523438 57.23828125 580.46484375 31.8291015625 542.799804688 15.2060546875 c 0
 514.489257812 2.7119140625 479.21875 -4.8173828125 437 -4.8173828125 c 0
 169.049804688 -4.8173828125 23 103.68359375 23 255 c 0
 23 421.352539062 138.625 502 460 502 c 2
 976.75 502 l 6
 1034.25 502 1057.25 484.868164062 1057.25 438.166015625 c 4
 1057.25 398.415039062 1033.12597656 378 969.625 378 c 6
 909.625 378 l 5
 909.625 106.961914062 l 2
EndSplineSet
PickledDataWithLists: "(dp1
S'com.fontlab.hintData'
p2
(dp3
S'vhints'
p4
(lp5
(dp6
S'position'
p7
I68
sS'width'
p8
I189
sa(dp9
g7
I296
sg8
I123
sa(dp10
g7
I477
sg8
I122
sa(dp11
g7
I632
sg8
I189
sasS'hhints'
p12
(lp13
(dp14
g7
I-5
sg8
I63
sa(dp15
g7
I-5
sg8
I44
sa(dp16
g7
I-1
sg8
I415
sa(dp17
g7
I200
sg8
I64
sa(dp18
g7
I312
sg8
I103
sass."
EndChar

StartChar: uni0B8F
Encoding: 13 2959 5
GlifName: uni0B_8F_
Width: 1080
VWidth: 0
GlyphClass: 2
Flags: HW
HStem: -4.81738 77.8975<302.434 483.507> 236.777 73.3584<436.816 482.838> 378 124<324.081 694.575 909.625 1044.11>
VStem: 23 218.5<161.229 308.783> 284.752 140.905<128.019 230.267> 492.891 140.843<77.0471 232.721> 694.575 215.05<11.151 378>
LayerCount: 2
Back
Fore
SplineSet
566.599609375 -56.2412109375 m 0
 672.400390625 1.2724609375 694.25 15.30859375 694.25 63.3876953125 c 2
 694.25 113.999023438 l 1
 694.592773438 113.999023438 l 2
 694.581054688 115.33203125 694.575195312 116.676757812 694.575195312 118.034179688 c 2
 694.575195312 378 l 1
 438.150390625 378 l 2
 313.625 378 241.5 337.008789062 241.5 227.866210938 c 0
 241.5 187.865234375 257.587890625 153.299804688 286.737304688 127.004882812 c 1
 285.4296875 135.315429688 284.751953125 144.005859375 284.751953125 153.064453125 c 0
 284.751953125 251.010742188 359.497070312 310.135742188 459.836914062 310.135742188 c 0
 560.201171875 310.135742188 633.733398438 251.010742188 633.733398438 153.064453125 c 0
 633.733398438 127.493164062 628.415039062 104.86328125 618.813476562 85.3955078125 c 0
 605.811523438 57.23828125 580.46484375 31.8291015625 542.799804688 15.2060546875 c 0
 514.489257812 2.7119140625 479.21875 -4.8173828125 437 -4.8173828125 c 0
 169.049804688 -4.8173828125 23 103.68359375 23 255 c 0
 23 421.352539062 138.625 502 460 502 c 2
 976.75 502 l 2
 1034.25 502 1057.25 484.868164062 1057.25 438.166015625 c 0
 1057.25 398.415039062 1033.12597656 378 969.625 378 c 2
 909.625 378 l 1
 909.625 106.961914062 l 2
 909.625 102.13671875 909.518554688 97.5078125 909.299804688 93.068359375 c 2
 909.299804688 88.693359375 l 2
 909.299804688 9.6611328125 907.89453125 -43.3056640625 898.950195312 -63.142578125 c 0
 872.5 -121.807617188 815 -154.013671875 643.82421875 -235.008789062 c 0
 604.064453125 -253.822265625 572.0390625 -262.614257812 545.900390625 -262.614257812 c 0
 505.814453125 -262.614257812 479.573242188 -241.181640625 460.514648438 -202.146484375 c 0
 453.243164062 -187.25390625 449.827148438 -174.099609375 449.827148438 -162.06640625 c 0
 449.827148438 -122.001953125 491.96484375 -96.8134765625 566.599609375 -56.2412109375 c 0
492.890625 154.180664062 m 0
 492.890625 193.763671875 482.565429688 236.77734375 460.458007812 236.77734375 c 0
 437.62109375 236.77734375 425.657226562 193.260742188 425.657226562 154.223632812 c 0
 425.657226562 115.202148438 436.776367188 73.080078125 460.141601562 73.080078125 c 0
 483.506835938 73.080078125 492.890625 114.618164062 492.890625 154.180664062 c 0
EndSplineSet
PickledDataWithLists: "(dp1
S'com.fontlab.hintData'
p2
(dp3
S'vhints'
p4
(lp5
(dp6
S'position'
p7
I68
sS'width'
p8
I189
sa(dp9
g7
I296
sg8
I123
sa(dp10
g7
I477
sg8
I122
sa(dp11
g7
I650
sg8
I189
sa(dp12
g7
I651
sg8
I190
sa(dp13
g7
I1009
sg8
I189
sasS'hhints'
p14
(lp15
(dp16
g7
I-5
sg8
I63
sa(dp17
g7
I-5
sg8
I44
sa(dp18
g7
I0
sg8
I415
sa(dp19
g7
I200
sg8
I64
sa(dp20
g7
I306
sg8
I109
sa(dp21
g7
I312
sg8
I103
sass."
EndChar

StartChar: uni0BBE
Encoding: 42 3006 6
GlifName: uni0B_B_E_
Width: 786
VWidth: 0
GlyphClass: 2
Flags: HW
HStem: 0.0175781 21G<83.5742 166.374 496.425 579.225> 376.006 125.2<237.884 436.271 650.706 752.263>
VStem: 23 215.051<28.0065 376.006> 435.851 215.051<28.0065 376.302>
AnchorPoint: "Anchor-0" 392 0 basechar 0
LayerCount: 2
Back
Fore
SplineSet
650.901367188 106.704101562 m 6
 650.901367188 25.9423828125 621.000976562 0.017578125 537.448242188 0.017578125 c 4
 455.401367188 0.017578125 435.850585938 38.2060546875 435.850585938 117.776367188 c 6
 436.271484375 376.302734375 l 5
 237.883789062 376.005859375 l 5
 238.05078125 106.704101562 l 6
 238.05078125 25.9423828125 208.150390625 0.017578125 124.59765625 0.017578125 c 4
 42.55078125 0.017578125 23 38.2060546875 23 117.776367188 c 6
 23 364.350585938 l 6
 23 371.172851562 23.3974609375 377.765625 24.1767578125 384.104492188 c 4
 26.8671875 455.561523438 64.7939453125 501.206054688 127.5234375 501.206054688 c 6
 690.5234375 502.1484375 l 6
 747.129882812 502.1484375 763.772460938 485.821289062 763.772460938 437.748046875 c 4
 763.772460938 387.6953125 734.223632812 376.797851562 684.7734375 376.797851562 c 6
 650.706054688 376.721679688 l 5
 650.901367188 106.704101562 l 6
EndSplineSet
PickledDataWithLists: "(dp1
S'com.fontlab.hintData'
p2
(dp3
S'vhints'
p4
(lp5
(dp6
S'position'
p7
I54
sS'width'
p8
I189
sa(dp9
g7
I413
sg8
I189
sasS'hhints'
p10
(lp11
(dp12
g7
I0
sg8
I415
sa(dp13
g7
I306
sg8
I109
sass."
EndChar

StartChar: period
Encoding: 173 46 8
GlifName: period
Width: 283
VWidth: 0
GlyphClass: 2
Flags: W
HStem: -6.9834 151.983<58.3317 223.756>
VStem: 30.46 217.54<18.5996 117.887>
LayerCount: 2
Back
Fore
SplineSet
30.4599609375 69.099609375 m 4
 30.4599609375 11.912109375 83.2919921875 -6.9833984375 138.75 -6.9833984375 c 4
 204.573242188 -6.9833984375 248 8.9638671875 248 69.099609375 c 4
 248 120.717773438 210.900390625 145 138.75 145 c 4
 67.5810546875 145 30.4599609375 112.241210938 30.4599609375 69.099609375 c 4
EndSplineSet
PickledDataWithLists: "(dp1
S'com.fontlab.hintData'
p2
(dp3
S'vhints'
p4
(lp5
(dp6
S'position'
p7
I19
sS'width'
p8
I189
sasS'hhints'
p9
(lp10
(dp11
g7
I-5
sg8
I132
sass."
EndChar

StartChar: a
Encoding: 308 97 9
GlifName: a
Width: 619
VWidth: 0
GlyphClass: 2
Flags: W
HStem: -6.25391 123.49<174.283 336.156> -0.0439453 476.987<398.199 542.302> 360.283 123.803<172.188 319.528>
VStem: 42 216.776<141.793 333.31> 360.715 215.05<122.889 354.18>
LayerCount: 2
Back
Fore
SplineSet
224.734375 -6.25390625 m 4x98
 123.831054688 -6.25390625 42 80.666015625 42 235.225585938 c 4
 42 390.409179688 119.981445312 484.0859375 224.39453125 484.0859375 c 4xb8
 282.147627267 484.0859375 333.71922176 460.858724955 374.900786515 427.018114801 c 5
 391.510408631 458.313028289 421.892743112 476.943359375 461.70703125 476.943359375 c 4
 524.55078125 476.943359375 575.764648438 457.555664062 575.764648438 367.21484375 c 6
 575.764648438 106.643554688 l 6
 575.764648438 25.8818359375 545.865234375 -0.0439453125 462.3125 -0.0439453125 c 4x58
 416.117969026 -0.0439453125 389.734745713 12.0617610744 375.497772173 36.8427504455 c 5
 333.71346207 8.55572804532 281.650155212 -6.25390625 224.734375 -6.25390625 c 4x98
360.71484375 331.256364307 m 5
 350.192274389 348.914236995 335.602093931 360.283203125 316.557617188 360.283203125 c 4
 279.985351562 360.283203125 258.776367188 295.419921875 258.776367188 235.225585938 c 4
 258.776367188 179.513671875 277.107421875 117.236328125 315.814453125 117.236328125 c 4
 335.41653541 117.236328125 350.168234851 127.757556581 360.71484375 144.154596378 c 5
 360.71484375 331.256364307 l 5
EndSplineSet
PickledDataWithLists: "(dp1
S'com.fontlab.hintData'
p2
(dp3
S'vhints'
p4
(lp5
(dp6
S'position'
p7
I44
sS'width'
p8
I189
sa(dp9
g7
I327
sg8
I189
sa(dp10
g7
I339
sg8
I82
sasS'hhints'
p11
(lp12
(dp13
g7
I-5
sg8
I107
sa(dp14
g7
I0
sg8
I415
sa(dp15
g7
I313
sg8
I108
sass."
EndChar

StartChar: b
Encoding: 309 98 10
GlifName: b
Width: 623
VWidth: 0
GlyphClass: 2
Flags: W
HStem: -6.51953 125.58<272.088 347.15> 360.957 123.803<306.783 455.702>
VStem: 44.1729 217.999<132.302 351.86 435.95 646.324> 369.226 216.774<140.663 330.751>
LayerCount: 2
Back
Fore
SplineSet
261.116210938 435.950195312 m 5
 300.893554688 465.483398438 349.538085938 484.759765625 403.602539062 484.759765625 c 4
 507.80078125 484.759765625 586 387.237304688 586 251.538085938 c 4
 586 84.4482421875 465.342773438 -6.51953125 302.411132812 -6.51953125 c 4
 148.595703125 -6.51953125 44.91796875 60.8876953125 44.1728515625 187.139648438 c 6
 41.9462890625 564.473632812 l 6
 41.9462890625 651.28125 89.3583984375 684.422851562 152.202148438 684.422851562 c 4
 226.052734375 684.422851562 261.983398438 640.236328125 261.700195312 573.459960938 c 6
 261.116210938 435.950195312 l 5
262.171875 153.265625 m 5
 272.859375 132.842773438 289.182617188 119.060546875 312.185546875 119.060546875 c 4
 350.891601562 119.060546875 369.225585938 178.302734375 369.225585938 231.30078125 c 4
 369.225585938 293.708984375 347.719726562 360.95703125 311.44140625 360.95703125 c 4
 288.979492188 360.95703125 272.713867188 345.87890625 262.010742188 323.900390625 c 5
 262.010742188 290.209960938 262.171875 215.237304688 262.171875 153.265625 c 5
EndSplineSet
PickledDataWithLists: "(dp1
S'com.fontlab.hintData'
p2
(dp3
S'vhints'
p4
(lp5
(dp6
S'position'
p7
I44
sS'width'
p8
I190
sa(dp9
g7
I327
sg8
I188
sasS'hhints'
p10
(lp11
(dp12
g7
I-4
sg8
I107
sa(dp13
g7
I313
sg8
I108
sass."
EndChar

StartChar: c
Encoding: 310 99 11
GlifName: c
Width: 599
VWidth: 0
GlyphClass: 2
Flags: W
HStem: -7.02344 153.51<294.446 431.983> 396.662 87.8047<284.701 341.218>
VStem: 40.5166 210.687<189.972 344.448> 342.48 208.584<282.385 396.228>
LayerCount: 2
Back
SplineSet
320.930664062 -6.25390625 m 260
 163.615234375 -6.25390625 39.943359375 78.5966796875 39.943359375 229.302734375 c 260
 39.943359375 388.249023438 158.1875 484.0859375 320.930664062 484.0859375 c 260
 484.151367188 484.0859375 547.041992188 419.482421875 547.041992188 328.8359375 c 260
 547.041992188 275.618164062 504.172851562 217.8125 398.83984375 216.99609375 c 262
 109.560546875 214.696289062 l 261
 146.8203125 277.8359375 l 261
 146.8203125 277.8359375 317.2734375 280.90234375 328.349609375 280.90234375 c 260
 338.91796875 280.90234375 345.004882812 286.745117188 349.583007812 298.739257812 c 260
 353.083984375 307.370117188 355.123046875 319.73046875 355.123046875 334.97265625 c 260
 355.123046875 372.715820312 346.811523438 398.03125 317.28515625 398.03125 c 260
 286.194335938 398.03125 252.180664062 337.345703125 252.180664062 257.99609375 c 260
 252.180664062 194.380859375 288.163085938 146.90625 359.739257812 146.90625 c 260
 391.049804688 146.90625 422.913085938 151.724609375 448.446289062 157.9921875 c 260
 486.5625 167.348632812 501.625976562 184.544921875 522.350585938 184.544921875 c 260
 546.329101562 184.544921875 558 167.904296875 558 150.35546875 c 260
 558 105.736328125 474.123046875 -6.25390625 320.930664062 -6.25390625 c 260
EndSplineSet
Fore
SplineSet
342.48046875 374 m 4
 342.48046875 388.31640625 334.21484375 396.662109375 316.307617188 396.662109375 c 4
 276.522460938 396.662109375 251.203125 325.506835938 251.203125 257.686523438 c 4
 251.203125 192.483398438 294.522460938 146.486328125 363.763671875 146.486328125 c 4
 395.07421875 146.486328125 427.244140625 150.166992188 452.46875 157.573242188 c 4
 484.333984375 166.9296875 501.674804688 184.125976562 519 184.125976562 c 4
 548.442382812 184.125976562 558.024414062 166.673828125 558.024414062 152.486328125 c 4
 558.024414062 105.900390625 475.5625 -7.0234375 324.953125 -7.0234375 c 4
 165.708007812 -7.0234375 40.5166015625 82.7978515625 40.5166015625 242.333007812 c 4
 40.5166015625 393.387695312 160.212890625 484.466796875 324.953125 484.466796875 c 4
 488.174804688 484.466796875 551.064453125 425.126953125 551.064453125 341.8671875 c 4
 551.064453125 296.249023438 518.153320312 218.01953125 405.163085938 218.01953125 c 4
 364.807617188 218.01953125 326.549804688 223.35546875 326.549804688 288 c 4
 326.549804688 325.03125 342.48046875 351.62890625 342.48046875 374 c 4
EndSplineSet
PickledDataWithLists: "(dp1
S'com.fontlab.hintData'
p2
(dp3
S'vhints'
p4
(lp5
(dp6
S'position'
p7
I41
sS'width'
p8
I192
sa(dp9
g7
I303
sg8
I182
sasS'hhints'
p10
(lp11
(dp12
g7
I-5
sg8
I141
sa(dp13
g7
I322
sg8
I100
sass."
EndChar

StartChar: d
Encoding: 311 100 12
GlifName: d
Width: 625
VWidth: 0
GlyphClass: 2
Flags: W
HStem: -7.41016 123.49<173.886 335.644> -0.158203 684.812<398.421 539.567> 359.128 123.803<171.792 319.018>
VStem: 41.6025 216.776<140.637 332.154> 361.003 217.997<125.34 352.716 437.409 647.157>
LayerCount: 2
Back
Fore
SplineSet
579 150.145507812 m 2x58
 579 38.7080078125 540.791015625 -0.158203125 469.041015625 -0.158203125 c 0x58
 428.107141378 -0.158203125 398.717885914 10.3225434375 381.023945203 39.8365315314 c 1
 338.284554529 8.84966298105 283.974923452 -7.41015625 224.337890625 -7.41015625 c 0
 123.43359375 -7.41015625 41.6025390625 79.5107421875 41.6025390625 234.069335938 c 0
 41.6025390625 389.25390625 119.5859375 482.930664062 223.999023438 482.930664062 c 0xb8
 274.917914306 482.930664062 321.031892795 464.875133285 359.456469363 437.409095738 c 1
 358.78515625 564.705078125 l 2
 358.78515625 651.512695312 406.975585938 684.654296875 469.041015625 684.654296875 c 0
 531.885742188 684.654296875 578.6796875 670.8359375 578.6796875 573.69140625 c 2
 579 150.145507812 l 2x58
361.003377524 144.080706466 m 1
 360.019754548 330.597624753 l 1
 349.520282623 347.97179189 335.025961858 359.127929688 316.161132812 359.127929688 c 0
 279.588867188 359.127929688 258.37890625 294.263671875 258.37890625 234.069335938 c 0
 258.37890625 178.357421875 276.711914062 116.080078125 315.41796875 116.080078125 c 0xb8
 335.448325102 116.080078125 350.413894465 127.065794041 361.003377524 144.080706466 c 1
EndSplineSet
PickledDataWithLists: "(dp1
S'com.fontlab.hintData'
p2
(dp3
S'vhints'
p4
(lp5
(dp6
S'position'
p7
I37
sS'width'
p8
I189
sa(dp9
g7
I319
sg8
I190
sa(dp10
g7
I333
sg8
I82
sasS'hhints'
p11
(lp12
(dp13
g7
I-5
sg8
I107
sa(dp14
g7
I1
sg8
I595
sa(dp15
g7
I313
sg8
I108
sass."
EndChar

StartChar: e
Encoding: 312 101 13
GlifName: e
Width: 596
VWidth: 0
GlyphClass: 2
Flags: W
HStem: -6.25391 153.16<291.066 429.457> 215.878 63.8307<258.246 350.679> 398.031 86.0547<287.875 346.248>
VStem: 355.123 191.919<281.629 394.683>
LayerCount: 2
Back
Fore
SplineSet
320.930664062 -6.25390625 m 0
 163.615234375 -6.25390625 39.943359375 78.5966796875 39.943359375 229.302734375 c 0
 39.943359375 388.249023438 158.1875 484.0859375 320.930664062 484.0859375 c 0
 484.151367188 484.0859375 547.041992188 419.482421875 547.041992188 328.8359375 c 0
 547.041992188 275.618164062 504.172851562 217.8125 398.83984375 216.99609375 c 2
 258.246397463 215.878359193 l 1
 271.248836409 174.533701092 305.137304841 146.90625 359.739257812 146.90625 c 0
 391.049804688 146.90625 422.913085938 151.724609375 448.446289062 157.9921875 c 0
 486.5625 167.348632812 501.625976562 184.544921875 522.350585938 184.544921875 c 0
 546.329101562 184.544921875 558 167.904296875 558 150.35546875 c 0
 558 105.736328125 474.123046875 -6.25390625 320.930664062 -6.25390625 c 0
253.040880069 279.709045317 m 1
 290.060469194 280.347036486 323.636131013 280.90234375 328.349609375 280.90234375 c 0
 338.91796875 280.90234375 345.004882812 286.745117188 349.583007812 298.739257812 c 0
 353.083984375 307.370117188 355.123046875 319.73046875 355.123046875 334.97265625 c 0
 355.123046875 372.715820312 346.811523438 398.03125 317.28515625 398.03125 c 0
 289.098476698 398.03125 258.509480587 348.153282876 253.040880069 279.709045317 c 1
EndSplineSet
PickledDataWithLists: "(dp1
S'com.fontlab.hintData'
p2
(dp3
S'vhints'
p4
(lp5
(dp6
S'position'
p7
I300
sS'width'
p8
I176
sasS'hhints'
p9
(lp10
(dp11
g7
I-5
sg8
I133
sa(dp12
g7
I184
sg8
I64
sa(dp13
g7
I346
sg8
I75
sass."
EndChar

StartChar: f
Encoding: 313 102 14
GlifName: f
Width: 470
VWidth: 0
GlyphClass: 2
Flags: W
HStem: 324.826 121.472<41.2736 100.932 318.033 423.382> 543.316 140.347<334.183 386.599>
VStem: 100.13 217.988<41.1067 150.224 446.622 522.415>
LayerCount: 2
Back
Fore
SplineSet
338.622070312 526.06640625 m 4
 350.979492188 536.364257812 366.943359375 543.31640625 408.204101562 543.31640625 c 4
 440.336914062 543.31640625 455.977539062 561.634765625 455.977539062 580.954101562 c 4
 455.977539062 619.262695312 403.461914062 683.663085938 280.471679688 683.663085938 c 4
 135.05972964 683.663085938 102.922355509 608.879424129 101.809191062 446.298786294 c 5
 42.658267754 443.115317541 27 416.784177414 27 383.484375 c 4
 27 347.561134064 46.0151748054 326.476220401 100.931573997 324.826372784 c 5
 100.129882812 142.577148438 l 4
 100.129882812 32.12109375 136.411132812 -0.0791015625 208.161132812 -0.0791015625 c 4
 279.91015625 -0.0791015625 318.118164062 32.12109375 318.118164062 150.223632812 c 4
 318.033230164 324.721679688 l 5
 393.077242589 324.721679688 437.178710938 330.892345574 437.178710938 379.603515625 c 4
 437.178710938 440.035422846 398.692769407 446.622070312 317.936084201 446.622070312 c 5
 317.936084201 488 321.619008938 511.897990545 338.622070312 526.06640625 c 4
EndSplineSet
PickledDataWithLists: "(dp1
S'com.fontlab.hintData'
p2
(dp3
S'vhints'
p4
(lp5
(dp6
S'position'
p7
I86
sS'width'
p8
I190
sasS'hhints'
p9
(lp10
(dp11
g7
I283
sg8
I106
sa(dp12
g7
I473
sg8
I122
sass."
EndChar

StartChar: g
Encoding: 314 103 15
GlifName: g
Width: 624
VWidth: 0
GlyphClass: 2
Flags: W
HStem: -226.494 140.05<229.858 350.906> -5.86523 123.49<177.314 339.329> 360.673 123.802<175.221 322.272>
VStem: 45.0312 216.776<142.182 333.699> 363.557 215.434<-75.0887 28.0721 123.212 354.799>
LayerCount: 2
Back
Fore
SplineSet
227.766601562 -5.865234375 m 0
 126.862304688 -5.865234375 45.03125 81.0556640625 45.03125 235.614257812 c 0
 45.03125 390.797851562 123.014648438 484.474609375 227.427734375 484.474609375 c 0
 284.832988187 484.474609375 336.131118223 461.525880997 377.188895006 428.01607227 c 1
 393.346219961 458.514246833 422.864704313 476.62109375 463.212890625 476.62109375 c 0
 526.057617188 476.62109375 575.419921875 457.227539062 576.123046875 366.89453125 c 2
 578.991210938 -1.9189453125 l 2
 579.978515625 -128.899414062 494.581054688 -226.494140625 341.126953125 -226.494140625 c 0
 187.934570312 -226.494140625 111.616210938 -120.39453125 111.616210938 -76.0673828125 c 0
 111.616210938 -56.7470703125 128.421875 -40.98046875 161.291992188 -40.98046875 c 0
 178.6171875 -40.98046875 190.270507812 -59.7158203125 221.600585938 -70.7275390625 c 0
 246.404296875 -79.4462890625 267.19921875 -86.4443359375 298.508789062 -86.4443359375 c 0
 348.59375 -86.4443359375 364.029296875 -61.5126953125 363.943359375 -23.9140625 c 2
 363.823861714 28.0721319309 l 1
 324.793730285 5.75593548026 278.183958325 -5.865234375 227.766601562 -5.865234375 c 0
363.556814562 144.24817271 m 1
 363.123686602 332.675913757 l 1
 352.650795698 349.744702044 338.260915727 360.672851562 319.58984375 360.672851562 c 0
 283.017578125 360.672851562 261.807617188 295.80859375 261.807617188 235.614257812 c 0
 261.807617188 179.90234375 280.140625 117.625 318.846679688 117.625 c 0
 338.331319095 117.625 353.023387239 128.020102907 363.556814562 144.24817271 c 1
EndSplineSet
PickledDataWithLists: "(dp1
S'com.fontlab.hintData'
p2
(dp3
S'vhints'
p4
(lp5
(dp6
S'position'
p7
I39
sS'width'
p8
I189
sa(dp9
g7
I323
sg8
I187
sa(dp10
g7
I335
sg8
I82
sasS'hhints'
p11
(lp12
(dp13
g7
I-196
sg8
I122
sa(dp14
g7
I-4
sg8
I107
sa(dp15
g7
I314
sg8
I108
sass."
EndChar

StartChar: h
Encoding: 315 104 16
GlifName: h
Width: 621
VWidth: 0
GlyphClass: 2
Flags: W
HStem: 0.698242 689.729<83.6364 224.782> 324.759 153.821<310.694 491.419>
VStem: 46.2266 217.988<44.7075 250.379 250.385 312.693 433.882 652.661> 359.817 218.163<44.1113 317.812>
LayerCount: 2
Back
Fore
SplineSet
358.612304688 268.418945312 m 2x70
 358.612304688 313.227539062 339.700195312 324.758789062 314.861328125 324.758789062 c 0x70
 284.670898438 324.758789062 264.75390625 293.873046875 264.75390625 250.384765625 c 1
 264.549690541 250.384765625 264.345474832 250.378787448 264.141259124 250.378787448 c 2
 264.21484375 152.080078125 l 2
 264.21484375 39.8427734375 226.005859375 0.6982421875 154.256835938 0.6982421875 c 0
 82.5068359375 0.6982421875 46.2265625 33.12890625 46.2265625 144.37890625 c 2
 44 569.6171875 l 2
 44 657.047851562 92.19140625 690.426757812 154.256835938 690.426757812 c 0xb0
 217.100585938 690.426757812 263.895507812 676.510742188 263.895507812 578.66796875 c 2
 264.00389171 433.882328231 l 1
 318.243821219 466.68526186 375.652305245 478.580078125 444.41796875 478.580078125 c 0
 538.419921875 478.580078125 577.98046875 409.581054688 577.98046875 238.459960938 c 0
 577.98046875 37.9013671875 558.829101562 0.181640625 464.818359375 0.181640625 c 0
 387.850585938 0.181640625 359.817382812 29.62109375 359.817382812 82.7646484375 c 2
 358.612304688 268.418945312 l 2x70
EndSplineSet
PickledDataWithLists: "(dp1
S'com.fontlab.hintData'
p2
(dp3
S'vhints'
p4
(lp5
(dp6
S'position'
p7
I49
sS'width'
p8
I190
sa(dp9
g7
I162
sg8
I76
sa(dp10
g7
I321
sg8
I190
sasS'hhints'
p11
(lp12
(dp13
g7
I0
sg8
I21
sa(dp14
g7
I1
sg8
I600
sa(dp15
g7
I282
sg8
I134
sass."
EndChar

StartChar: i
Encoding: 316 105 17
GlifName: i
Width: 305
VWidth: 0
GlyphClass: 2
Flags: W
HStem: 0.0175781 476.986<83.1436 226.792> 540.016 151.983<71.3317 236.756>
VStem: 45.2041 215.051<28.0065 437.382 564.172 666.267>
LayerCount: 2
Back
Fore
SplineSet
43.4599609375 616.098632812 m 0
 43.4599609375 558.911132812 96.2919921875 540.015625 151.75 540.015625 c 0
 217.573242188 540.015625 261 555.962890625 261 616.098632812 c 0
 261 667.716796875 223.900390625 691.999023438 151.75 691.999023438 c 0
 80.5810546875 691.999023438 43.4599609375 659.240234375 43.4599609375 616.098632812 c 0
260.254882812 106.704101562 m 2
 260.254882812 25.9423828125 230.354492188 0.017578125 146.801757812 0.017578125 c 0
 64.7548828125 0.017578125 45.2041015625 38.2060546875 45.2041015625 117.776367188 c 2
 45.2041015625 364.350585938 l 2
 45.2041015625 431.982421875 84.3046875 477.00390625 146.196289062 477.00390625 c 0
 209.040039062 477.00390625 260.254882812 457.616210938 260.254882812 367.276367188 c 2
 260.254882812 106.704101562 l 2
EndSplineSet
PickledDataWithLists: "(dp1
S'com.fontlab.hintData'
p2
(dp3
S'vhints'
p4
(lp5
(dp6
S'position'
p7
I42
sS'width'
p8
I199
sa(dp9
g7
I49
sg8
I189
sasS'hhints'
p10
(lp11
(dp12
g7
I0
sg8
I415
sa(dp13
g7
I451
sg8
I132
sass."
EndChar

StartChar: j
Encoding: 317 106 18
GlifName: j
Width: 306
VWidth: 0
GlyphClass: 2
Flags: W
HStem: -196.472 150.028<-60.2615 22.3994> 518.594 151.983<68.6739 240.106>
VStem: 39.8135 229.04<544.177 642.835> 44.6201 218.024<-19.6219 48.46 356.742 434.495>
LayerCount: 2
Back
SplineSet
39.6337890625 594.676757812 m 256
 39.6337890625 537.489257812 94.765625 518.59375 150.223632812 518.59375 c 256
 216.046875 518.59375 268.673828125 534.541015625 268.673828125 594.676757812 c 256
 268.673828125 646.293945312 222.374023438 670.577148438 150.223632812 670.577148438 c 256
 79.0556640625 670.577148438 39.6337890625 637.818359375 39.6337890625 594.676757812 c 256
260.624023438 372.299804688 m 258
 260.624023438 429.33984375 218.587890625 476.690429688 155.744140625 476.690429688 c 256
 93.1845703125 476.690429688 45.4873046875 443.549804688 45.4873046875 356.7421875 c 256
 45.4873046875 226.138671875 44.4404296875 159.708007812 44.4404296875 48.4599609375 c 256
 44.4404296875 -29.740234375 3.041015625 -47.0234375 -45.6240234375 -47.0234375 c 256
 -78.833984375 -47.0234375 -88.900390625 -47.0234375 -106.2265625 -47.0234375 c 260
 -131.495117188 -47.0234375 -155.1796875 -61.97265625 -155.1796875 -91.873046875 c 260
 -155.1796875 -136.493164062 -71.302734375 -196.471679688 81.890625 -196.471679688 c 256
 215.053710938 -196.471679688 262.46484375 -104.0859375 262.46484375 46.6201171875 c 258
 260.624023438 372.299804688 l 258
EndSplineSet
Fore
SplineSet
260.803710938 372.299804688 m 2xd0
 260.803710938 429.33984375 218.767578125 476.690429688 155.923828125 476.690429688 c 0
 93.3642578125 476.690429688 45.6669921875 443.549804688 45.6669921875 356.7421875 c 0
 45.6669921875 226.138671875 44.6201171875 159.708007812 44.6201171875 48.4599609375 c 0
 44.6201171875 -40.37109375 -1.0673828125 -46.443359375 -63.49609375 -46.443359375 c 0
 -131.346679688 -46.443359375 -155 -59.6728515625 -155 -96.2109375 c 0
 -155 -137.873046875 -71.123046875 -196.471679688 82.0703125 -196.471679688 c 0
 215.233398438 -196.471679688 262.64453125 -104.0859375 262.64453125 46.6201171875 c 2
 260.803710938 372.299804688 l 2xd0
39.8134765625 594.676757812 m 0xe0
 39.8134765625 537.489257812 94.9453125 518.59375 150.403320312 518.59375 c 0
 216.2265625 518.59375 268.853515625 534.541015625 268.853515625 594.676757812 c 0
 268.853515625 646.293945312 222.553710938 670.577148438 150.403320312 670.577148438 c 0
 79.2353515625 670.577148438 39.8134765625 637.818359375 39.8134765625 594.676757812 c 0xe0
EndSplineSet
PickledDataWithLists: "(dp1
S'com.fontlab.hintData'
p2
(dp3
S'vhints'
p4
(lp5
(dp6
S'position'
p7
I51
sS'width'
p8
I199
sa(dp9
g7
I55
sg8
I190
sasS'hhints'
p10
(lp11
(dp12
g7
I-171
sg8
I130
sa(dp13
g7
I451
sg8
I132
sass."
EndChar

StartChar: k
Encoding: 318 107 19
GlifName: k
Width: 583
VWidth: 0
GlyphClass: 2
Flags: W
HStem: 0.30957 673.465<84.1242 213.23> 0.310547 235.521<430.181 502.345> 141.991 185.84<265.892 333.515>
VStem: 45.6758 213.962<49.2887 141.991 351.911 632.715> 336.795 213.205<24.6671 140.224 331.357 445.516>
LayerCount: 2
Back
Fore
SplineSet
302.21484375 141.991210938 m 2x38
 265.891601562 141.991210938 l 1x38
 265.891601562 80.3515625 227.68359375 0.3095703125 155.932617188 0.3095703125 c 0
 84.1826171875 0.3095703125 47.904296875 32.509765625 47.904296875 142.967773438 c 0
 47.904296875 253.426757812 45.67578125 467.016601562 45.67578125 553.823242188 c 0
 45.67578125 643.391601562 88.7734375 670.20703125 155.932617188 673.774414062 c 0x98
 242.4140625 673.774414062 259.637695312 618.551757812 259.637695312 488.831054688 c 0
 259.637695312 441.098632812 256.5859375 388.717773438 251.05078125 350.090820312 c 1
 255.62109375 335.505859375 267.18359375 327.831054688 296.4375 327.831054688 c 0x38
 327.053710938 327.831054688 336.794921875 337.952148438 336.794921875 381.458007812 c 0
 336.794921875 440.991210938 363.465820312 470.430664062 444.796875 470.430664062 c 0
 530.287109375 470.430664062 550 442.831054688 550 366.471679688 c 0
 550 276.310546875 483.454101562 235.831054688 430.094726562 235.831054688 c 1
 483.454101562 235.831054688 550 204.551757812 550 121.751953125 c 0
 550 20.2626953125 530.287109375 0.310546875 444.796875 0.310546875 c 0x58
 363.465820312 0.310546875 336.794921875 29.751953125 336.794921875 89.2841796875 c 0
 336.794921875 134.630859375 327.311523438 141.991210938 302.21484375 141.991210938 c 2x38
EndSplineSet
PickledDataWithLists: "(dp1
S'com.fontlab.hintData'
p2
(dp3
S'vhints'
p4
(lp5
(dp6
S'position'
p7
I43
sS'width'
p8
I186
sa(dp9
g7
I296
sg8
I185
sasS'hhints'
p10
(lp11
(dp12
g7
I0
sg8
I586
sa(dp13
g7
I0
sg8
I205
sa(dp14
g7
I123
sg8
I162
sass."
EndChar

StartChar: l
Encoding: 319 108 20
GlifName: l
Width: 312
VWidth: 0
GlyphClass: 2
Flags: W
HStem: 0.368164 684.813<85.4226 226.567>
VStem: 48.0127 217.987<44.0642 647.684>
LayerCount: 2
Back
Fore
SplineSet
266 150.672851562 m 6
 266 39.2353515625 227.791992188 0.3681640625 156.04296875 0.3681640625 c 4
 84.29296875 0.3681640625 48.0126953125 32.568359375 48.0126953125 143.025390625 c 6
 45.787109375 565.232421875 l 6
 45.787109375 652.040039062 93.9765625 685.181640625 156.04296875 685.181640625 c 4
 218.88671875 685.181640625 265.681640625 671.36328125 265.681640625 574.21875 c 6
 266 150.672851562 l 6
EndSplineSet
PickledDataWithLists: "(dp1
S'com.fontlab.hintData'
p2
(dp3
S'vhints'
p4
(lp5
(dp6
S'position'
p7
I46
sS'width'
p8
I190
sasS'hhints'
p9
(lp10
(dp11
g7
I0
sg8
I595
sass."
EndChar

StartChar: m
Encoding: 320 109 21
GlifName: m
Width: 905
VWidth: 0
GlyphClass: 2
Flags: W
HStem: 0.479492 473.799<87.2119 237.338 375.697 488.63 662.967 796.562> 320.458 153.82<305.704 406.283 584.714 724.94>
VStem: 53 215.05<28.0065 246.083 246.085 312.77> 354.13 199.763<41.248 313.144> 639.33 218.162<44.4094 311.317>
LayerCount: 2
Back
Fore
SplineSet
638.125 264.118164062 m 0xb8
 638.125 308.92578125 619.211914062 320.458007812 594.374023438 320.458007812 c 0x78
 571.555664062 320.458007812 555.922851562 293.979492188 553.731445312 255.536132812 c 0
 553.838867188 250.0625 553.892578125 244.470703125 553.892578125 238.759765625 c 0
 553.892578125 38.19921875 536.298828125 0.4794921875 449.931640625 0.4794921875 c 0xb8
 379.70703125 0.4794921875 354.129882812 29.9189453125 354.129882812 83.0634765625 c 0
 354.129882812 148.984375 352.92578125 218.379882812 352.92578125 264.118164062 c 0
 352.92578125 308.92578125 334.01171875 320.458007812 309.173828125 320.458007812 c 0x78
 284.529296875 320.458007812 268.266601562 289.572265625 268.266601562 246.084960938 c 1
 268.194335938 246.084960938 268.122070312 246.083007812 268.049804688 246.083007812 c 2
 268.049804688 106.704101562 l 2
 268.049804688 25.9423828125 238.150390625 0.017578125 154.59765625 0.017578125 c 0
 72.5498046875 0.017578125 53 38.2060546875 53 117.776367188 c 2
 53 364.350585938 l 2
 53 431.982421875 92.099609375 477.00390625 153.9921875 477.00390625 c 0
 200.444335938 477.00390625 240.54296875 466.411132812 258.299804688 424.399414062 c 1
 308.6484375 461.140625 352.479492188 474.278320312 418.033203125 474.278320312 c 0
 465.818359375 474.278320312 501.921875 455.083007812 524.856445312 409.8046875 c 1
 528.141601562 412.73828125 531.596679688 415.541015625 535.229492188 418.19921875 c 0
 591.913085938 459.673828125 651.275390625 474.278320312 723.932617188 474.278320312 c 0
 817.932617188 474.278320312 857.4921875 409.879882812 857.4921875 238.759765625 c 0
 857.4921875 38.19921875 838.341796875 0.4794921875 744.33203125 0.4794921875 c 0
 667.362304688 0.4794921875 639.330078125 29.9189453125 639.330078125 83.0634765625 c 0
 639.330078125 148.984375 638.125 218.379882812 638.125 264.118164062 c 0xb8
EndSplineSet
PickledDataWithLists: "(dp1
S'com.fontlab.hintData'
p2
(dp3
S'vhints'
p4
(lp5
(dp6
S'position'
p7
I38
sS'width'
p8
I189
sa(dp9
g7
I148
sg8
I76
sa(dp10
g7
I299
sg8
I174
sa(dp11
g7
I396
sg8
I76
sa(dp12
g7
I547
sg8
I190
sasS'hhints'
p13
(lp14
(dp15
g7
I0
sg8
I415
sa(dp16
g7
I0
sg8
I21
sa(dp17
g7
I279
sg8
I134
sass."
EndChar

StartChar: n
Encoding: 321 110 22
GlifName: n
Width: 616
VWidth: 0
GlyphClass: 2
Flags: W
HStem: -0.105469 21G<104.696 187.496 420.355 505.845> 324.939 153.82<305.304 485.44>
VStem: 44.1221 215.05<27.884 313.87> 353.837 218.163<44.2903 317.992>
LayerCount: 2
Back
Fore
SplineSet
352.631835938 268.598632812 m 2
 352.631835938 313.40625 333.719726562 324.939453125 308.881835938 324.939453125 c 0
 281.170202153 324.939453125 262.114253644 298.915625216 259.171875 261.011894722 c 2
 259.171875 106.58203125 l 2
 259.171875 25.8203125 229.272460938 -0.10546875 145.719726562 -0.10546875 c 0
 63.671875 -0.10546875 44.1220703125 38.083984375 44.1220703125 117.654296875 c 2
 44.1220703125 364.227539062 l 2
 44.1220703125 431.860351562 83.2216796875 476.881835938 145.114257812 476.881835938 c 0
 190.288091286 476.881835938 229.452608687 466.863449734 247.905212473 427.674924472 c 1
 305.142202753 465.33396603 365.381346185 478.759765625 438.439453125 478.759765625 c 0
 532.440429688 478.759765625 572 409.760742188 572 238.640625 c 0
 572 38.080078125 552.849609375 0.3603515625 458.83984375 0.3603515625 c 0
 381.870117188 0.3603515625 353.836914062 29.7998046875 353.836914062 82.9443359375 c 2
 352.631835938 268.598632812 l 2
EndSplineSet
PickledDataWithLists: "(dp1
S'com.fontlab.hintData'
p2
(dp3
S'vhints'
p4
(lp5
(dp6
S'position'
p7
I42
sS'width'
p8
I189
sa(dp9
g7
I153
sg8
I76
sa(dp10
g7
I312
sg8
I190
sasS'hhints'
p11
(lp12
(dp13
g7
I0
sg8
I415
sa(dp14
g7
I0
sg8
I21
sa(dp15
g7
I283
sg8
I134
sass."
EndChar

StartChar: o
Encoding: 322 111 23
GlifName: o
Width: 631
VWidth: 0
GlyphClass: 2
Flags: W
HStem: -6.86816 115.439<287.262 346.776> 368.408 115.292<287.184 346.967>
VStem: 39.0596 223.658<132.753 340.613> 369.438 223.559<132.629 340.722>
LayerCount: 2
Back
Fore
SplineSet
369.4375 237.302734375 m 0
 369.4375 300.1328125 353.047851562 368.408203125 317.95703125 368.408203125 c 0
 281.708984375 368.408203125 262.717773438 299.334960938 262.717773438 237.369140625 c 0
 262.717773438 175.432617188 280.368164062 108.571289062 317.456054688 108.571289062 c 0
 354.54296875 108.571289062 369.4375 174.502929688 369.4375 237.302734375 c 0
316.965820312 -6.8681640625 m 0
 163.145507812 -6.8681640625 39.0595703125 81.119140625 39.0595703125 235.53125 c 0
 39.0595703125 391.000976562 157.702148438 483.700195312 316.971679688 483.700195312 c 0
 476.279296875 483.700195312 592.99609375 391.000976562 592.99609375 235.53125 c 0
 592.99609375 81.119140625 470.823242188 -6.8681640625 316.965820312 -6.8681640625 c 0
EndSplineSet
PickledDataWithLists: "(dp1
S'com.fontlab.hintData'
p2
(dp3
S'vhints'
p4
(lp5
(dp6
S'position'
p7
I35
sS'width'
p8
I194
sa(dp9
g7
I323
sg8
I194
sasS'hhints'
p10
(lp11
(dp12
g7
I-5
sg8
I99
sa(dp13
g7
I320
sg8
I101
sass."
EndChar

StartChar: p
Encoding: 323 112 24
GlifName: p
Width: 621
VWidth: 0
GlyphClass: 2
Flags: W
HStem: -207.91 684.812<86.631 227.776> -6.0918 123.49<291.553 453.718> 360.445 123.803<308.496 455.812>
VStem: 49.2207 217.989<-164.214 27.8809 123.13 354.203> 369.224 216.776<141.956 333.472>
LayerCount: 2
Back
Fore
SplineSet
267.209960938 -57.6064453125 m 2x78
 267.209960938 -169.043945312 229 -207.91015625 157.250976562 -207.91015625 c 0
 85.501953125 -207.91015625 49.220703125 -175.709960938 49.220703125 -65.2529296875 c 2
 46.9951171875 356.953125 l 2
 46.9951171875 443.760742188 95.185546875 476.90234375 157.250976562 476.90234375 c 0x98
 202.356445312 476.90234375 239.193359375 469.784179688 256.395507812 429.848632812 c 1
 297.01953125 462.236328125 347.3828125 484.248046875 403.60546875 484.248046875 c 0
 508.017578125 484.248046875 586 390.571289062 586 235.387695312 c 0
 586 80.828125 504.170898438 -6.091796875 403.265625 -6.091796875 c 0
 352.821289062 -6.091796875 306.188476562 5.5419921875 267.145507812 27.880859375 c 1
 267.209960938 -57.6064453125 l 2x78
267.056640625 144.673828125 m 1
 277.618164062 128.072265625 292.44140625 117.3984375 312.185546875 117.3984375 c 0
 350.892578125 117.3984375 369.223632812 179.67578125 369.223632812 235.387695312 c 0
 369.223632812 295.58203125 348.015625 360.4453125 311.442382812 360.4453125 c 0x78
 292.173828125 360.4453125 277.465820312 348.807617188 266.916015625 330.79296875 c 1
 267.056640625 144.673828125 l 1
EndSplineSet
PickledDataWithLists: "(dp1
S'com.fontlab.hintData'
p2
(dp3
S'vhints'
p4
(lp5
(dp6
S'position'
p7
I47
sS'width'
p8
I190
sa(dp9
g7
I141
sg8
I82
sa(dp10
g7
I330
sg8
I189
sasS'hhints'
p11
(lp12
(dp13
g7
I-181
sg8
I595
sa(dp14
g7
I-5
sg8
I107
sa(dp15
g7
I313
sg8
I108
sass."
EndChar

StartChar: q
Encoding: 324 113 25
GlifName: q
Width: 626
VWidth: 0
GlyphClass: 2
Flags: W
HStem: -5.75195 123.802<171.298 320.277> 359.946 123.28<287.39 354.084>
VStem: 41 222.524<144.528 333.145> 364.989 217.838<-167.317 43.0576 126.577 350.999>
LayerCount: 2
Back
Fore
SplineSet
365.883789062 43.0576171875 m 1
 326.106445312 13.5234375 277.461914062 -5.751953125 223.397460938 -5.751953125 c 0
 119.19921875 -5.751953125 41 91.76953125 41 227.469726562 c 0
 41 393.069335938 167.0390625 483.2265625 337.239257812 483.2265625 c 0
 483.51953125 483.2265625 582.827148438 416.625976562 582.827148438 291.8671875 c 2
 585.053710938 -85.4658203125 l 2
 585.053710938 -172.274414062 537.641601562 -205.415039062 474.797851562 -205.415039062 c 0
 400.947265625 -205.415039062 365.299804688 -161.23046875 365.299804688 -94.453125 c 2
 365.883789062 43.0576171875 l 1
364.828125 325.7421875 m 1
 354.6328125 346.165039062 339.059570312 359.946289062 317.114257812 359.946289062 c 0
 280.75 359.946289062 263.524414062 300.705078125 263.524414062 247.70703125 c 0
 263.524414062 185.297851562 283.74609375 118.049804688 317.858398438 118.049804688 c 0
 339.275390625 118.049804688 354.783203125 133.127929688 364.989257812 155.107421875 c 1
 364.989257812 188.797851562 364.828125 263.770507812 364.828125 325.7421875 c 1
EndSplineSet
PickledDataWithLists: "(dp1
S'com.fontlab.hintData'
p2
(dp3
S'vhints'
p4
(lp5
(dp6
S'position'
p7
I34
sS'width'
p8
I188
sa(dp9
g7
I315
sg8
I190
sasS'hhints'
p10
(lp11
(dp12
g7
I-4
sg8
I108
sa(dp13
g7
I314
sg8
I107
sass."
EndChar

StartChar: r
Encoding: 325 114 26
GlifName: r
Width: 472
VWidth: 0
GlyphClass: 2
Flags: W
HStem: 0.0175781 476.986<83.7858 228.077> 322.762 154.232<282.166 394.541>
VStem: 45.8467 215.05<28.0065 321.623>
LayerCount: 2
Back
Fore
SplineSet
260.896484375 106.704101562 m 2x60
 260.896484375 25.9423828125 230.99609375 0.017578125 147.443359375 0.017578125 c 0
 65.396484375 0.017578125 45.8466796875 38.2060546875 45.8466796875 117.776367188 c 2
 45.8466796875 364.350585938 l 2
 45.8466796875 431.982421875 84.9462890625 477.00390625 146.838867188 477.00390625 c 0xa0
 190.071289062 477.00390625 227.799804688 467.829101562 247.137695312 432.690429688 c 1
 278.255859375 456.491210938 319.33984375 476.994140625 359.350585938 476.994140625 c 0
 429.731445312 476.994140625 464 444.958007812 464 377.108398438 c 0
 464 324.208007812 430.650390625 287.408203125 381.200195312 287.408203125 c 0
 329.450195312 287.408203125 331.75 322.76171875 294.032226562 322.76171875 c 0
 278.405273438 322.76171875 267.862304688 317.260742188 260.896484375 307.634765625 c 1
 260.896484375 106.704101562 l 2x60
EndSplineSet
PickledDataWithLists: "(dp1
S'com.fontlab.hintData'
p2
(dp3
S'vhints'
p4
(lp5
(dp6
S'position'
p7
I37
sS'width'
p8
I189
sa(dp9
g7
I128
sg8
I76
sasS'hhints'
p10
(lp11
(dp12
g7
I0
sg8
I415
sa(dp13
g7
I281
sg8
I134
sass."
EndChar

StartChar: s
Encoding: 326 115 27
GlifName: s
Width: 562
VWidth: 0
GlyphClass: 2
Flags: W
HStem: -7.10938 115.324<160.702 299.506> 393.339 90.8311<258.878 371.384>
VStem: 42.3809 213.87<299.861 390.419>
LayerCount: 2
Back
Fore
SplineSet
280.8359375 484.169921875 m 4
 412.349636476 484.169921875 498.046875 418.665039062 498.046875 363.305664062 c 4
 498.046875 347.060737276 482.172227676 328.201516235 458.999998801 328.201516235 c 7
 413.145505782 328.201516235 380.796451148 393.338867188 295.028320312 393.338867188 c 4
 272.892578125 393.338867188 256.250976562 387.16796875 256.250976562 368.555664062 c 4
 256.250976562 331.548828125 334.696289062 328.534179688 393.360351562 300.291015625 c 5
 496.630859375 260.493164062 524 218.75390625 524 149.405273438 c 4
 524 80.2236328125 449.076171875 -7.109375 265.297851562 -7.109375 c 4
 123.816324091 -7.109375 40.6303733429 56.178848684 40.6303733429 112.000002248 c 7
 40.6303733429 137.890129815 59.0981978471 153.214284745 89.0000023814 153.214284745 c 7
 140.316170663 153.214284745 171.841725082 108.21484375 245.578125 108.21484375 c 4
 275.716796875 108.21484375 301.177734375 114.353515625 301.177734375 135.260742188 c 4
 301.177734375 167.342773438 189.581054688 165.004882812 120.581054688 207.819335938 c 5
 58.8232421875 235.5 42.380859375 274.94140625 42.380859375 324.780273438 c 4
 42.380859375 418.215820312 139.92578125 484.169921875 280.8359375 484.169921875 c 4
EndSplineSet
PickledDataWithLists: "(dp1
S'com.fontlab.hintData'
p2
(dp3
S'vhints'
p4
(lp5
(dp6
S'position'
p7
I39
sS'width'
p8
I186
sasS'hhints'
p9
(lp10
(dp11
g7
I-5
sg8
I104
sa(dp12
g7
I340
sg8
I81
sass."
EndChar

StartChar: t
Encoding: 327 116 28
GlifName: t
Width: 501
VWidth: 0
GlyphClass: 2
Flags: W
HStem: 0.148438 167.698<210.649 360.963> 331.259 121.9<314.825 424.902>
VStem: 95.54 219.404<173.708 331.259 453.159 587.087>
LayerCount: 2
Back
Fore
SplineSet
95.5400390625 213.80078125 m 4
 95.5400390625 254.468960782 95.7253567992 292.930415385 95.959487889 331.631490952 c 5
 45.679762301 334.618591623 28.0673828125 355.447807139 28.0673828125 390.020507812 c 0
 28.0673828125 422.126951083 42.6218779341 447.754810763 96.678831764 452.404815766 c 1
 96.8146252961 481.720324491 96.90625 512.378391823 96.90625 545.229492188 c 0
 96.90625 597.775390625 193.963867188 643.533203125 260.6640625 643.533203125 c 0
 310.063476562 643.533203125 314.483398438 610.893554688 314.483398438 568.229492188 c 0
 314.483398438 527.745344868 314.527688093 489.700506612 314.588809813 453.159179688 c 1
 342.16015625 453.159179688 l 2
 414.765625 452.767578125 438.247070312 437.05859375 438.247070312 386.140625 c 0
 438.247070312 342.348632812 404.682617188 331.258789062 332.796875 331.258789062 c 6
 314.825394474 331.258789062 l 5
 314.893400894 294.456406868 314.944335938 258.141571564 314.944335938 221.16015625 c 4
 314.944335938 177.919921875 321.364257812 167.846679688 343.444335938 167.846679688 c 4
 376.654296875 167.846679688 375.64453125 223 405.2265625 223 c 4
 437.359375 223 453 204.681640625 453 185.361328125 c 4
 453 116.280273438 400.484375 0.1484375 277.494140625 0.1484375 c 4
 143.803710938 0.1484375 95.5400390625 63.0927734375 95.5400390625 213.80078125 c 4
EndSplineSet
PickledDataWithLists: "(dp1
S'com.fontlab.hintData'
p2
(dp3
S'hhints'
p4
(lp5
(dp6
S'position'
p7
I-5
sS'width'
p8
I146
sa(dp9
g7
I283
sg8
I106
sass."
EndChar

StartChar: u
Encoding: 328 117 29
GlifName: u
Width: 625
VWidth: 0
GlyphClass: 2
Flags: W
HStem: 0.510742 153.82<132.262 313.086>
VStem: 45.7031 219.368<160.218 433.83> 358.95 215.05<166.397 228.705 228.705 436.259>
LayerCount: 2
Back
Fore
SplineSet
265.071289062 210.670898438 m 0
 265.071289062 165.86328125 283.983398438 154.331054688 308.821289062 154.331054688 c 0
 339.01171875 154.331054688 358.928710938 185.217773438 358.928710938 228.705078125 c 1
 358.950195312 228.705287773 l 1
 358.950195312 363.227539062 l 2
 358.950195312 430.860351562 398.049804688 475.881835938 459.942382812 475.881835938 c 0
 522.786132812 475.881835938 574 456.493164062 574 366.153320312 c 2
 574 105.58203125 l 2
 574 24.8203125 544.099609375 -1.10546875 460.547851562 -1.10546875 c 0
 406.255511829 -1.10546875 379.329034219 15.6164507514 367.324435219 49.9849796772 c 1
 310.824504788 13.5529548915 251.26864922 0.5107421875 179.262695312 0.5107421875 c 0
 85.26171875 0.5107421875 45.703125 68.359375 45.703125 239.479492188 c 0
 45.703125 440.040039062 64.8525390625 477.759765625 158.862304688 477.759765625 c 0
 235.833007812 477.759765625 263.865234375 447.169921875 263.865234375 394.02734375 c 0
 263.865234375 328.104492188 265.071289062 256.41015625 265.071289062 210.670898438 c 0
EndSplineSet
PickledDataWithLists: "(dp1
S'com.fontlab.hintData'
p2
(dp3
S'vhints'
p4
(lp5
(dp6
S'position'
p7
I45
sS'width'
p8
I191
sa(dp9
g7
I317
sg8
I189
sa(dp10
g7
I318
sg8
I76
sasS'hhints'
p11
(lp12
(dp13
g7
I-1
sg8
I415
sa(dp14
g7
I0
sg8
I134
sass."
EndChar

StartChar: v
Encoding: 329 118 30
GlifName: v
Width: 617
VWidth: 0
GlyphClass: 2
Flags: W
HStem: 0.0195312 150.142<269.779 346.2>
VStem: 44.3516 219.368<154.816 436.737> 351.632 219.368<154.816 436.737>
LayerCount: 2
Back
Fore
SplineSet
306.958984375 150.161132812 m 0
 349.194335938 150.161132812 351.631835938 175.3125 351.631835938 227.12890625 c 0
 351.631835938 263.927734375 352.837890625 332.50390625 352.837890625 388.06640625 c 0
 352.837890625 447.598632812 380.87109375 477.040039062 466.360351562 477.040039062 c 0
 551.850585938 477.040039062 571 438.155273438 571 246.579101562 c 0
 571 60.7392578125 419.618164062 0.01953125 308.595703125 0.01953125 c 0
 197.6328125 0.01953125 44.3515625 60.7392578125 44.3515625 246.579101562 c 0
 44.3515625 438.155273438 63.501953125 477.040039062 148.991210938 477.040039062 c 0
 234.481445312 477.040039062 262.513671875 447.598632812 262.513671875 388.06640625 c 0
 262.513671875 332.524414062 263.719726562 263.975585938 263.719726562 228.048828125 c 0
 263.719726562 177.629882812 263.72265625 150.161132812 306.958984375 150.161132812 c 0
EndSplineSet
PickledDataWithLists: "(dp1
S'com.fontlab.hintData'
p2
(dp3
S'vhints'
p4
(lp5
(dp6
S'position'
p7
I39
sS'width'
p8
I191
sa(dp9
g7
I306
sg8
I191
sasS'hhints'
p10
(lp11
(dp12
g7
I0
sg8
I131
sass."
EndChar

StartChar: w
Encoding: 330 119 31
GlifName: w
Width: 890
VWidth: 0
GlyphClass: 2
Flags: W
HStem: -0.0800781 150.142<266.07 346.246 544.914 626.28>
VStem: 43.1201 219.368<154.716 436.638> 338.44 214.768<175.113 445.365> 629.16 219.368<154.716 436.638>
LayerCount: 2
Back
Fore
SplineSet
590.0078125 150.061523438 m 0
 627.0234375 150.061523438 629.16015625 169.200195312 629.16015625 208.629882812 c 0
 629.16015625 249.63671875 630.365234375 326.051757812 630.365234375 387.966796875 c 0
 630.365234375 447.499023438 658.399414062 476.940429688 743.888671875 476.940429688 c 0
 829.37890625 476.940429688 848.528320312 438.055664062 848.528320312 246.479492188 c 0
 848.528320312 60.6396484375 702.454101562 -0.080078125 595.32421875 -0.080078125 c 0
 548.442382812 -0.080078125 494.4453125 14.9150390625 446.422851562 51.234375 c 1
 398.771484375 14.9150390625 345.07421875 -0.080078125 298.1640625 -0.080078125 c 0
 191.064453125 -0.080078125 43.1201171875 60.6396484375 43.1201171875 246.479492188 c 0
 43.1201171875 438.055664062 62.2705078125 476.940429688 147.759765625 476.940429688 c 0
 233.249023438 476.940429688 261.283203125 447.499023438 261.283203125 387.966796875 c 0
 261.283203125 326.038085938 262.48828125 249.607421875 262.48828125 209.549804688 c 0
 262.48828125 171.041015625 262.491210938 150.061523438 300.208007812 150.061523438 c 0
 330.012695312 150.061523438 342.057617188 157.713867188 346.885742188 173.309570312 c 1
 341.44140625 211.7109375 338.440429688 254.385742188 338.440429688 301.6796875 c 0
 338.440429688 451.623046875 356.645507812 476.794921875 449.504882812 476.794921875 c 0
 534.916015625 476.526367188 553.208007812 451.62109375 553.208007812 301.6796875 c 0
 553.208007812 253.948242188 550.157226562 210.947265625 544.622070312 172.3203125 c 1
 549.19140625 157.735351562 560.754882812 150.061523438 590.0078125 150.061523438 c 0
EndSplineSet
PickledDataWithLists: "(dp1
S'com.fontlab.hintData'
p2
(dp3
S'vhints'
p4
(lp5
(dp6
S'position'
p7
I43
sS'width'
p8
I191
sa(dp9
g7
I299
sg8
I187
sa(dp10
g7
I552
sg8
I191
sasS'hhints'
p11
(lp12
(dp13
g7
I0
sg8
I131
sass."
EndChar

StartChar: x
Encoding: 331 120 32
GlifName: x
Width: 602
VWidth: 0
GlyphClass: 2
Flags: W
HStem: 0.0322266 21G<130.535 186.475 416.851 472.785>
LayerCount: 2
Back
Fore
SplineSet
302.119140625 98.87890625 m 1
 263.278320312 57.955078125 214.075195312 0.0322265625 158.875 0.0322265625 c 0
 102.194335938 0.0322265625 35.3193359375 56.5458984375 35.3193359375 113.39453125 c 0
 35.3193359375 145.57421875 121.52734375 207.829101562 152.720703125 233.6015625 c 1
 110.803710938 271.997070312 42.4501953125 313.327148438 42.4501953125 384.079101562 c 0
 42.4501953125 429.250976562 96.40234375 476.049804688 143.419921875 476.049804688 c 0
 209.630859375 476.049804688 255.390625 398.521484375 302.401367188 352.684570312 c 1
 347.665039062 398.647460938 394.147460938 476.049804688 459.899414062 476.049804688 c 0
 508.421875 476.049804688 561.4453125 426.165039062 561.4453125 382.928710938 c 0
 561.4453125 323.489257812 489.143554688 268.909179688 450.598632812 233.6015625 c 1
 481.793945312 207.829101562 568 145.57421875 568 113.39453125 c 0
 568 56.5458984375 501.125 0.0322265625 444.444335938 0.0322265625 c 0
 389.256835938 0.0322265625 340.758789062 58.16796875 302.119140625 98.87890625 c 1
EndSplineSet
PickledDataWithLists: "(dp1
S'com.fontlab.hintData'
p2
(dp3
S'hhints'
p4
(lp5
(dp6
S'position'
p7
I0
sS'width'
p8
I21
sass."
EndChar

StartChar: y
Encoding: 332 121 33
GlifName: y
Width: 607
VWidth: 0
GlyphClass: 2
Flags: W
HStem: -229.196 140.051<176.513 294.755>
VStem: 45 215.918<155.713 431.33> 348.83 214.768<156.007 438.983>
LayerCount: 2
Back
SplineSet
165.751953125 -8.166015625 m 262
 164.860351562 379.715820312 l 262
 164.704101562 447.348632812 201.399414062 492.369140625 265.021484375 492.369140625 c 260
 327.866210938 492.369140625 377.228515625 472.975585938 377.931640625 382.642578125 c 262
 380.799804688 13.8291015625 l 262
 381.787109375 -113.151367188 296.389648438 -210.74609375 142.935546875 -210.74609375 c 260
 -10.2568359375 -210.74609375 -86.5751953125 -104.646484375 -86.5751953125 -60.3193359375 c 260
 -86.5751953125 -40.9990234375 -69.76953125 -25.232421875 -36.8994140625 -25.232421875 c 260
 -19.57421875 -25.232421875 -7.9208984375 -43.9677734375 23.4091796875 -54.9794921875 c 260
 48.212890625 -63.6982421875 69.0078125 -70.6962890625 100.317382812 -70.6962890625 c 260
 150.40234375 -70.6962890625 165.837890625 -45.7646484375 165.751953125 -8.166015625 c 262
EndSplineSet
Fore
SplineSet
563.59765625 282.395507812 m 0
 563.59765625 180.131835938 562.581054688 107.732421875 554.3984375 43.1953125 c 0
 533.166992188 -124.25 438.634765625 -229.196289062 287.783203125 -229.196289062 c 0
 134.590820312 -229.196289062 58.271484375 -123.095703125 58.271484375 -78.7685546875 c 0
 58.271484375 -60.1664424528 69.6689541279 -36.9608001348 94 -36.9608001348 c 3
 125.745212627 -36.9608001348 129.522968391 -59.8151290887 168.255859375 -73.4296875 c 0
 193.059570312 -82.1484375 213.854492188 -89.1455078125 245.165039062 -89.1455078125 c 0
 295.249023438 -89.1455078125 310.598632812 -53.669921875 310.598632812 -0.166015625 c 1
 182.541015625 0.7451171875 45 61.927734375 45 214.884765625 c 0
 45 432.944335938 63.5185546875 477.203125 146.189453125 477.203125 c 0
 231.6796875 477.203125 259.711914062 447.763671875 259.711914062 388.231445312 c 0
 259.711914062 332.291015625 260.91796875 263.248046875 260.91796875 227.063476562 c 0
 260.91796875 176.64453125 260.919921875 149.174804688 304.157226562 149.174804688 c 0
 346.391601562 149.174804688 348.830078125 174.328125 348.830078125 226.143554688 c 0
 348.830078125 263.206054688 350.036132812 332.270507812 350.036132812 388.231445312 c 0
 350.036132812 447.763671875 378.068359375 477.203125 463.557617188 477.203125 c 0
 553.869140625 477.203125 563.59765625 411.948242188 563.59765625 282.395507812 c 0
EndSplineSet
PickledDataWithLists: "(dp1
S'com.fontlab.hintData'
p2
(dp3
S'vhints'
p4
(lp5
(dp6
S'position'
p7
I38
sS'width'
p8
I191
sa(dp9
g7
I305
sg8
I191
sasS'hhints'
p10
(lp11
(dp12
g7
I-176
sg8
I122
sass."
EndChar

StartChar: z
Encoding: 333 122 34
GlifName: z
Width: 557
VWidth: 0
GlyphClass: 2
Flags: W
HStem: 0 125.536<319.192 513.268> 350.98 125.536<69.9335 229.156>
LayerCount: 2
Back
Fore
SplineSet
452.400390625 125.536132812 m 0
 509.900390625 125.536132812 525.190429688 103.041015625 525.190429688 54.0771484375 c 0
 525.190429688 7.2587890625 493.51171875 0 422.9609375 0 c 0
 350.280273438 0 188.360351562 0 127.640625 0 c 0
 86.240234375 0 36.560546875 31.2802734375 36.560546875 84.640625 c 0
 36.560546875 140.745117188 45.1171875 160.080078125 98.1943359375 213.158203125 c 4
 143.811523438 261.180664062 188.032226562 307.6640625 229.15625 350.897460938 c 5
 204.596679688 350.98046875 179.87890625 350.98046875 155.995117188 350.98046875 c 4
 85.4453125 350.98046875 53.7666015625 368.358398438 53.7666015625 415.176757812 c 4
 53.7666015625 464.140625 69.42578125 476.516601562 142.032226562 476.516601562 c 4
 219.475585938 476.516601562 368.573242188 476.560546875 445.9609375 476.560546875 c 4
 506.680664062 476.560546875 526 425.638671875 526 399.741210938 c 4
 526 336.897460938 510.360351562 327.5546875 470.291015625 287.485351562 c 4
 419.408203125 234.341796875 374.689453125 182.352539062 319.192382812 125.279296875 c 1
 361.301757812 125.415039062 418.092773438 125.536132812 452.400390625 125.536132812 c 0
EndSplineSet
PickledDataWithLists: "(dp1
S'com.fontlab.hintData'
p2
(dp3
S'hhints'
p4
(lp5
(dp6
S'position'
p7
I0
sS'width'
p8
I109
sa(dp9
g7
I305
sg8
I109
sass."
EndChar

StartChar: dotlessi
Encoding: 364 305 35
GlifName: dotlessi
Width: 283
VWidth: 0
GlyphClass: 2
Flags: W
HStem: 0.0175781 476.986<71.8888 215.537>
VStem: 33.9492 215.051<28.0065 437.382>
LayerCount: 2
Back
Fore
SplineSet
249 106.704101562 m 2
 249 25.9423828125 219.099609375 0.017578125 135.546875 0.017578125 c 0
 53.5 0.017578125 33.94921875 38.2060546875 33.94921875 117.776367188 c 2
 33.94921875 364.350585938 l 2
 33.94921875 431.982421875 73.0498046875 477.00390625 134.94140625 477.00390625 c 0
 197.78515625 477.00390625 249 457.616210938 249 367.276367188 c 2
 249 106.704101562 l 2
EndSplineSet
PickledDataWithLists: "(dp1
S'com.fontlab.hintData'
p2
(dp3
S'vhints'
p4
(lp5
(dp6
S'position'
p7
I102
sS'width'
p8
I189
sasS'hhints'
p9
(lp10
(dp11
g7
I0
sg8
I415
sass."
EndChar

StartChar: quotesingle
Encoding: 473 39 36
GlifName: quotesingle
Width: 330
VWidth: 0
GlyphClass: 2
Flags: W
HStem: 521.333 151.983<80.682 161.444>
VStem: 52.8105 230.189<547.516 640.39>
LayerCount: 2
Back
Fore
SplineSet
52.810546875 597.416015625 m 4
 52.810546875 540.228515625 105.641601562 521.333007812 161.100585938 521.333007812 c 4
 161.21484375 521.333007812 161.329101562 521.333007812 161.444335938 521.333007812 c 5
 138.201171875 485.185546875 115.70703125 469.95703125 57.818359375 441.639648438 c 4
 45.55078125 435.638671875 43.232421875 422.921875 43.232421875 413.233398438 c 4
 43.232421875 391.81640625 58.4130859375 376.342773438 81.75 376.342773438 c 4
 142.287109375 376.342773438 283 443.776367188 283 577.682617188 c 4
 283 651.640625 224.443359375 673.31640625 161.100585938 673.31640625 c 4
 89.931640625 673.31640625 52.810546875 640.557617188 52.810546875 597.416015625 c 4
EndSplineSet
EndChar

StartChar: Tamil.socks
Encoding: 65536 -1 37
GlifName: _notdef
Width: 264
VWidth: 0
Flags: W
LayerCount: 2
Back
Fore
SplineSet
-105.650390625 -36.2919921875 m 0
 0.150390625 21.2080078125 22 35.2412109375 22 83.30859375 c 2
 22 133.908203125 l 1
 237.049804688 133.908203125 l 1
 237.049804688 108.608398438 l 2
 237.049804688 29.5947265625 235.64453125 -23.3583984375 226.700195312 -43.19140625 c 0
 200.25 -101.841796875 142.75 -134.041015625 -28.42578125 -215.016601562 c 0
 -68.185546875 -233.825195312 -100.2109375 -242.615234375 -126.349609375 -242.615234375 c 0
 -166.435546875 -242.615234375 -192.676757812 -221.1875 -211.735351562 -182.162109375 c 0
 -219.006835938 -167.272460938 -222.422851562 -154.122070312 -222.422851562 -142.091796875 c 0
 -222.422851562 -102.036132812 -180.28515625 -76.853515625 -105.650390625 -36.2919921875 c 0
EndSplineSet
PickledDataWithLists: "(dp1
S'com.fontlab.hintData'
p2
(dp3
S'vhints'
p4
(lp5
(dp6
S'position'
p7
I48
sS'width'
p8
I189
sa(dp9
g7
I276
sg8
I123
sa(dp10
g7
I457
sg8
I122
sasS'hhints'
p11
(lp12
(dp13
g7
I-5
sg8
I63
sa(dp14
g7
I-5
sg8
I44
sa(dp15
g7
I200
sg8
I64
sa(dp16
g7
I312
sg8
I103
sass."
EndChar

StartChar: uni0082
Encoding: 65537 130 38
GlifName: uni0082
Width: 560
VWidth: 0
GlyphClass: 2
Flags: W
HStem: 502.966 167.697<372.905 523.219>
VStem: 259.408 217.988<28.1067 137.225 449.651 497.104>
LayerCount: 2
Back
Fore
SplineSet
477.200195312 449.651367188 m 2
 477.200195312 492.891601562 483.620117188 502.965820312 505.700195312 502.965820312 c 0
 538.91015625 502.965820312 537.900390625 447.811523438 567.483398438 447.811523438 c 0
 599.615234375 447.811523438 615.256835938 466.130859375 615.256835938 485.450195312 c 0
 615.256835938 554.53125 562.740234375 670.663085938 439.75 670.663085938 c 0
 306.060546875 670.663085938 262.228515625 607.715820312 261.24609375 457.01171875 c 2
 259.408203125 129.577148438 l 2
 259.408203125 19.12109375 295.689453125 -13.0791015625 367.439453125 -13.0791015625 c 0
 439.188476562 -13.0791015625 477.396484375 19.12109375 477.396484375 137.224609375 c 2
 477.200195312 449.651367188 l 2
EndSplineSet
PickledDataWithLists: "(dp1
S'com.fontlab.hintData'
p2
(dp3
S'vhints'
p4
(lp5
(dp6
S'position'
p7
I235
sS'width'
p8
I190
sasS'hhints'
p9
(lp10
(dp11
g7
I449
sg8
I146
sass."
EndChar

StartChar: uni0083
Encoding: 65538 131 39
GlifName: uni0083
Width: 698
VWidth: 0
GlyphClass: 2
Flags: W
VStem: 242.449 86.4805<271.694 341.691>
LayerCount: 2
Back
Fore
SplineSet
581.201171875 380.713867188 m 0
 581.201171875 306.544921875 545.662109375 247.709960938 461.20703125 247.709960938 c 0
 376.751953125 247.709960938 391.176757812 343.389648438 361.38671875 343.389648438 c 0
 331.59765625 343.389648438 328.081054688 321.04296875 328.9296875 271.694335938 c 1
 242.44921875 271.169921875 l 1
 242.44921875 330.590820312 267.170898438 396.068359375 312.899414062 435.967773438 c 0
 358.626953125 475.868164062 393.7734375 493.284179688 469.51953125 493.284179688 c 0
 545.265625 493.284179688 581.201171875 444.709960938 581.201171875 380.713867188 c 0
EndSplineSet
PickledDataWithLists: "(dp1
S'com.fontlab.hintData'
p2
(dp3
S'vhints'
p4
(lp5
(dp6
S'position'
p7
I217
sS'width'
p8
I75
sass."
EndChar

StartChar: uni0084
Encoding: 65539 132 40
GlifName: uni0084
Width: 778
VWidth: 0
GlyphClass: 2
Flags: W
HStem: 0.405273 153.82<207.546 387.518>
VStem: 120.986 219.369<160.113 433.724> 434.212 87.668<166.033 228.6>
LayerCount: 2
Back
Fore
SplineSet
340.35546875 210.565429688 m 0
 340.35546875 165.7578125 359.266601562 154.225585938 384.10546875 154.225585938 c 0
 414.295898438 154.225585938 434.211914062 185.112304688 434.211914062 228.599609375 c 1
 521.879882812 229.455078125 l 1
 521.879882812 171.174804688 506.861328125 98.2958984375 452.450195312 56.484375 c 0
 393.001953125 15.0107421875 330.747070312 0.4052734375 254.546875 0.4052734375 c 0
 160.545898438 0.4052734375 120.986328125 68.25390625 120.986328125 239.374023438 c 0
 120.986328125 439.934570312 140.13671875 477.654296875 234.146484375 477.654296875 c 0
 311.116210938 477.654296875 339.1484375 447.064453125 339.1484375 393.921875 c 0
 339.1484375 327.999023438 340.35546875 256.3046875 340.35546875 210.565429688 c 0
EndSplineSet
PickledDataWithLists: "(dp1
S'com.fontlab.hintData'
p2
(dp3
S'vhints'
p4
(lp5
(dp6
S'position'
p7
I99
sS'width'
p8
I191
sa(dp9
g7
I372
sg8
I76
sasS'hhints'
p10
(lp11
(dp12
g7
I0
sg8
I134
sass."
EndChar

StartChar: uni0085
Encoding: 65540 133 41
GlifName: uni0085
Width: 456
VWidth: 0
GlyphClass: 2
Flags: W
HStem: -13.6318 684.812<173.369 314.515>
VStem: 135.96 217.988<30.0644 633.684>
LayerCount: 2
Back
Fore
SplineSet
353.948242188 136.672851562 m 2
 353.948242188 25.2353515625 315.739257812 -13.6318359375 243.989257812 -13.6318359375 c 0
 172.240234375 -13.6318359375 135.959960938 18.568359375 135.959960938 129.026367188 c 2
 133.733398438 551.232421875 l 2
 133.733398438 638.040039062 181.923828125 671.180664062 243.989257812 671.180664062 c 0
 306.833007812 671.180664062 353.627929688 657.36328125 353.627929688 560.21875 c 2
 353.948242188 136.672851562 l 2
EndSplineSet
PickledDataWithLists: "(dp1
S'com.fontlab.hintData'
p2
(dp3
S'vhints'
p4
(lp5
(dp6
S'position'
p7
I102
sS'width'
p8
I190
sasS'hhints'
p9
(lp10
(dp11
g7
I0
sg8
I595
sass."
EndChar

StartChar: uni0087
Encoding: 65541 135 42
GlifName: uni0087
Width: 778
VWidth: 0
GlyphClass: 2
Flags: W
HStem: -0.669922 21G<479.925 565.414> 323.908 153.821<365.039 545.01>
VStem: 230.676 87.6689<249.535 312.101> 413.407 218.163<43.26 316.962>
LayerCount: 2
Back
Fore
SplineSet
412.202148438 267.567382812 m 2
 412.202148438 312.375976562 393.290039062 323.908203125 368.451171875 323.908203125 c 0
 338.26171875 323.908203125 318.344726562 293.021484375 318.344726562 249.53515625 c 1
 230.67578125 248.678710938 l 1
 230.67578125 306.959960938 245.696289062 379.83984375 300.10546875 421.649414062 c 0
 359.5546875 463.124023438 421.809570312 477.729492188 498.009765625 477.729492188 c 0
 592.010742188 477.729492188 631.5703125 408.73046875 631.5703125 237.610351562 c 0
 631.5703125 37.0498046875 612.418945312 -0.669921875 518.409179688 -0.669921875 c 0
 441.440429688 -0.669921875 413.407226562 28.76953125 413.407226562 81.9130859375 c 2
 412.202148438 267.567382812 l 2
EndSplineSet
PickledDataWithLists: "(dp1
S'com.fontlab.hintData'
p2
(dp3
S'vhints'
p4
(lp5
(dp6
S'position'
p7
I209
sS'width'
p8
I76
sa(dp9
g7
I368
sg8
I190
sasS'hhints'
p10
(lp11
(dp12
g7
I0
sg8
I21
sa(dp13
g7
I282
sg8
I134
sass."
EndChar

StartChar: uni0089
Encoding: 65542 137 43
GlifName: uni0089
Width: 804
VWidth: 0
GlyphClass: 2
Flags: W
HStem: -6.25391 123.49<249.041 409.871> 360.284 123.802<246.948 418.949>
VStem: 116.758 216.777<141.793 333.31> 456.814 93.8389<146.98 326.308>
LayerCount: 2
Back
Fore
SplineSet
299.493164062 -6.25390625 m 0
 198.588867188 -6.25390625 116.7578125 80.666015625 116.7578125 235.225585938 c 0
 116.7578125 390.409179688 194.741210938 484.0859375 299.154296875 484.0859375 c 0
 444.471679688 484.0859375 550.653320312 337.028320312 550.653320312 243.861328125 c 0
 550.653320312 83.7734375 439.822265625 -6.25390625 299.493164062 -6.25390625 c 0
456.814453125 235.225585938 m 0
 456.814453125 295.63671875 436.728515625 360.284179688 391.31640625 360.284179688 c 0
 354.744140625 360.284179688 333.53515625 295.420898438 333.53515625 235.225585938 c 0
 333.53515625 179.512695312 351.8671875 117.236328125 390.573242188 117.236328125 c 0
 437.729492188 117.236328125 456.814453125 178.123046875 456.814453125 235.225585938 c 0
EndSplineSet
PickledDataWithLists: "(dp1
S'com.fontlab.hintData'
p2
(dp3
S'vhints'
p4
(lp5
(dp6
S'position'
p7
I97
sS'width'
p8
I189
sa(dp9
g7
I393
sg8
I82
sasS'hhints'
p10
(lp11
(dp12
g7
I-5
sg8
I107
sa(dp13
g7
I313
sg8
I108
sass."
EndChar

StartChar: uni008A
Encoding: 65543 138 44
GlifName: uni008A_
Width: 804
VWidth: 0
GlyphClass: 2
Flags: W
HStem: -6.25391 123.49<257.541 418.371> 360.284 123.802<248.463 420.464>
VStem: 116.758 93.8398<146.98 326.308> 333.877 216.776<141.793 333.31>
LayerCount: 2
Back
Fore
SplineSet
367.918945312 -6.25390625 m 0
 227.58984375 -6.25390625 116.7578125 83.7734375 116.7578125 243.861328125 c 0
 116.7578125 337.028320312 222.940429688 484.0859375 368.2578125 484.0859375 c 0
 472.670898438 484.0859375 550.653320312 390.409179688 550.653320312 235.225585938 c 0
 550.653320312 80.666015625 468.823242188 -6.25390625 367.918945312 -6.25390625 c 0
210.59765625 235.225585938 m 0
 210.59765625 178.123046875 229.682617188 117.236328125 276.838867188 117.236328125 c 0
 315.544921875 117.236328125 333.876953125 179.512695312 333.876953125 235.225585938 c 0
 333.876953125 295.420898438 312.66796875 360.284179688 276.095703125 360.284179688 c 0
 230.68359375 360.284179688 210.59765625 295.63671875 210.59765625 235.225585938 c 0
EndSplineSet
PickledDataWithLists: "(dp1
S'com.fontlab.hintData'
p2
(dp3
S'vhints'
p4
(lp5
(dp6
S'position'
p7
I97
sS'width'
p8
I82
sa(dp9
g7
I286
sg8
I189
sasS'hhints'
p10
(lp11
(dp12
g7
I-5
sg8
I107
sa(dp13
g7
I313
sg8
I108
sass."
EndChar

StartChar: uni008B
Encoding: 65544 139 45
GlifName: uni008B_
Width: 628
VWidth: 0
GlyphClass: 2
Flags: W
HStem: 371.08 121.9<91.2437 164.072 381.473 473.577>
VStem: 76.7422 410.18<384.599 477.431>
LayerCount: 2
Back
Fore
SplineSet
390.8359375 492.98046875 m 6
 164.072265625 492.98046875 l 6
 94.5751953125 492.98046875 76.7421875 465.379882812 76.7421875 429.842773438 c 4
 76.7421875 392.40234375 97.3974609375 371.080078125 157.825195312 371.080078125 c 6
 381.47265625 371.080078125 l 6
 453.358398438 371.080078125 486.921875 382.170898438 486.921875 425.962890625 c 4
 486.921875 476.879882812 463.44140625 492.588867188 390.8359375 492.98046875 c 6
EndSplineSet
PickledDataWithLists: "(dp1
S'com.fontlab.hintData'
p2
(dp3
S'hhints'
p4
(lp5
(dp6
S'position'
p7
I348
sS'width'
p8
I106
sass."
EndChar

StartChar: H
Encoding: 214 72 46
GlifName: H_
Width: 758
VWidth: 0
GlyphClass: 2
Flags: W
HStem: 0 21G<134.739 212.143 548.739 624.267> 263.351 138<288.915 472.146>
VStem: 57.2832 231.527<43.6973 263.351 401.351 643.248> 472.874 230.126<46.2946 263.351 401.351 645.019>
LayerCount: 2
Back
Fore
SplineSet
703 150.3046875 m 2
 703.083984375 38.8671875 662.392578125 0 586.140625 0 c 0
 511.336914062 0 474.09375 32.203125 473.510742188 142.657226562 c 2
 472.873971237 263.350585938 l 1
 288.914507461 263.350585938 l 1
 289 150.3046875 l 2
 289.083984375 38.8671875 252.14453125 0 172.140625 0 c 0
 97.3369140625 0 60.09375 32.203125 59.5107421875 142.657226562 c 2
 57.283203125 564.864257812 l 2
 56.8251953125 651.669921875 107.486328125 684.813476562 172.140625 684.813476562 c 0
 242.236328125 684.813476562 288.606445312 670.995117188 288.6796875 573.850585938 c 2
 288.810143034 401.350585938 l 1
 472.145891485 401.350585938 l 1
 471.283203125 564.864257812 l 2
 470.825195312 651.669921875 521.486328125 684.813476562 586.140625 684.813476562 c 0
 652.939453125 684.813476562 702.606445312 670.995117188 702.6796875 573.850585938 c 2
 703 150.3046875 l 2
EndSplineSet
PickledDataWithLists: "(dp1
S'com.fontlab.hintData'
p2
(dp3
S'vhints'
p4
(lp5
(dp6
S'position'
p7
I69
sS'width'
p8
I210
sa(dp9
g7
I182
sg8
I357
sa(dp10
g7
I429
sg8
I210
sasS'hhints'
p11
(lp12
(dp13
g7
I0
sg8
I595
sa(dp14
g7
I229
sg8
I120
sass."
EndChar

StartChar: grave
Encoding: 435 96 47
GlifName: grave
Width: 371
VWidth: 0
GlyphClass: 2
Flags: W
HStem: 542.804 244.069
VStem: 20 331.009<627.16 661.065>
LayerCount: 2
Back
Fore
SplineSet
160.592773438 772.799804688 m 4
 153.153320312 777.135742188 131.233398438 786.873046875 107.692382812 786.873046875 c 4
 50.61328125 786.873046875 20 724.555664062 20 679.649414062 c 4
 20 631.131835938 59.7685546875 608.888671875 89.5732421875 597.56640625 c 4
 139.892578125 578.44921875 163.546875 572.481445312 224.9921875 552 c 0
 238.38671875 547.534179688 257.5 542.803710938 275.592773438 542.803710938 c 0
 321.984375 542.803710938 351.008789062 572.8515625 351.008789062 609.5 c 0
 351.008789062 653.637695312 318.500976562 672.127929688 288.2421875 692.299804688 c 0
 236.4921875 726.799804688 215.600585938 740.741210938 160.592773438 772.799804688 c 4
EndSplineSet
EndChar

StartChar: A
Encoding: 207 65 48
GlifName: A_
Width: 672
VWidth: 0
GlyphClass: 2
Flags: W
HStem: 0.480469 21G<99.5229 188.962 484.734 574.567> 152.28 138<264.119 409.579> 521.807 163.463<287.518 389.135>
VStem: 33 231.119<297.339 459.144> 409.579 231.116<58.6073 152.28 290.28 459.144>
LayerCount: 2
Back
Fore
SplineSet
337.436523438 521.806640625 m 4
 289.254043285 521.806640625 264.573242188 496.41015625 264.573242188 407.854492188 c 4
 264.573242188 373.708277441 264.369996456 332.628354221 264.119140625 290.280273438 c 5
 409.579101562 290.280273438 l 5
 409.326878658 333.153597816 409.122070312 375.024273732 409.122070312 410.326171875 c 4
 409.122070312 496.541015625 383.14916386 521.806640625 337.436523438 521.806640625 c 4
410.375 152.280273438 m 1
 263.3203125 152.280273438 l 1
 263.237665771 133.135306783 263.186523438 115.253302007 263.186523438 99.3486328125 c 0
 263.186523438 33.1953125 233.7890625 0.48046875 144.135742188 0.48046875 c 0
 54.9101562499 0.48046875 33 52.5722656251 33 309.219726562 c 0
 33 592.661132812 211.763356857 685.26953125 339.630859375 685.26953125 c 0
 466.559950813 685.26953125 640.6953125 592.661132812 640.6953125 309.219726562 c 0
 640.6953125 52.5722656251 619.57421875 0.48046875 529.559570312 0.48046875 c 0
 439.909179688 0.48046875 410.508789062 33.1953125 410.508789062 99.3486328125 c 0
 410.508789062 115.245167428 410.457641624 133.120970724 410.375 152.280273438 c 1
EndSplineSet
EndChar

StartChar: L
Encoding: 218 76 49
GlifName: L_
Width: 592
VWidth: 0
GlyphClass: 2
Flags: W
HStem: -0 684.566<91.9741 246.777> -0 172.743<277.194 532.195>
VStem: 47 230.194<172.743 638.592>
LayerCount: 2
Back
SplineSet
281.859375 119.422851562 m 262
 281.943359375 7.9853515625 250.754882812 -13.6318359375 170.75 -13.6318359375 c 260
 92.1279296875 -13.6318359375 64.4541015625 18.572265625 63.87109375 129.025390625 c 262
 61.64453125 551.232421875 l 262
 61.1904296875 637.217773438 101.78515625 671.181640625 170.75 671.181640625 c 260
 240.845703125 671.181640625 281.465820312 657.364257812 281.5390625 560.21875 c 262
 281.859375 119.422851562 l 262
EndSplineSet
Fore
SplineSet
150.013671875 -0 m 0xa0
 78.798828125 2.8603515625 47.556640625 36.9326171875 47 142.41015625 c 6
 47 564.6171875 l 6
 47 636 91.400390625 684.56640625 160.365234375 684.56640625 c 0xa0
 230.459960938 684.56640625 276.833007812 670.749023438 276.903320312 573.603515625 c 2
 277.194335938 172.743164062 l 1
 447.713867188 172.571289062 l 2
 520.318359375 172.48828125 553 160.510742188 553 86.0029296875 c 0
 553 8.2578125 509.274414062 0 438.349609375 -0 c 0x60
 150.013671875 -0 l 0xa0
EndSplineSet
PickledDataWithLists: "(dp1
S'com.fontlab.hintData'
p2
(dp3
S'vhints'
p4
(lp5
(dp6
S'position'
p7
I93
sS'width'
p8
I210
sasS'hhints'
p9
(lp10
(dp11
g7
I0
sg8
I595
sass."
EndChar

StartChar: O
Encoding: 221 79 50
GlifName: O_
Width: 785
VWidth: 0
GlyphClass: 2
Flags: W
HStem: -6.04102 146.191<348.715 432.381> 543.619 146.947<353.867 431.616>
VStem: 41.5098 261.945<207.134 471.273> 481 262<207.134 471.273>
LayerCount: 2
Back
Fore
SplineSet
390.475585938 140.150390625 m 4
 452.047851562 140.150390625 481 241.946289062 481 337.682617188 c 4
 481 434.334960938 450.642578125 543.619140625 390.475585938 543.619140625 c 4
 333.8125 543.619140625 303.455078125 434.334960938 303.455078125 337.682617188 c 4
 303.455078125 241.946289062 332.407226562 140.150390625 390.475585938 140.150390625 c 4
393.979492188 -6.041015625 m 0
 199.098632812 -6.041015625 41.509765625 118.41796875 41.509765625 337.682617188 c 0
 41.509765625 558.450195312 192.193359375 690.56640625 393.979492188 690.56640625 c 0
 595.630859375 690.56640625 743 558.450195312 743 337.682617188 c 0
 743 118.41796875 588.731445312 -6.041015625 393.979492188 -6.041015625 c 0
EndSplineSet
PickledDataWithLists: "(dp1
S'com.fontlab.hintData'
p2
(dp3
S'vhints'
p4
(lp5
(dp6
S'position'
p7
I22
sS'width'
p8
I226
sa(dp9
g7
I459
sg8
I226
sasS'hhints'
p10
(lp11
(dp12
g7
I-5
sg8
I111
sa(dp13
g7
I487
sg8
I114
sass."
EndChar

StartChar: tilde.case
Encoding: 65545 -1 51
GlifName: _notdef000000000000001
Width: 478
VWidth: 0
Flags: W
HStem: 736.385 206.673<62.9109 153.414 325.521 414.884>
LayerCount: 2
Back
Fore
SplineSet
174.538085938 801.442382812 m 5
 174.538085938 765.217773438 140.267578125 736.384765625 96.8388671875 736.384765625 c 4
 32.5302734375 736.384765625 20.865234375 773.09375 20.865234375 824.498046875 c 4
 20.865234375 881.431640625 55.16796875 943.057617188 123.05859375 943.057617188 c 4
 216.686523438 943.057617188 303 878 303 878 c 5
 303 912.27734375 337.26953125 943.057617188 380.69921875 943.057617188 c 4
 444.303710938 943.057617188 456.666992188 906.930664062 456.666992188 856.41796875 c 4
 456.666992188 799.078125 422.956054688 736.384765625 354.478515625 736.384765625 c 4
 260.850585938 736.384765625 218.291992188 801.442382812 174.538085938 801.442382812 c 5
EndSplineSet
PickledDataWithLists: "(dp1
S'com.fontlab.hintData'
p2
(dp3
S'vhints'
p4
(lp5
(dp6
S'position'
p7
I68
sS'width'
p8
I189
sa(dp9
g7
I296
sg8
I123
sa(dp10
g7
I477
sg8
I122
sa(dp11
g7
I632
sg8
I189
sasS'hhints'
p12
(lp13
(dp14
g7
I-5
sg8
I63
sa(dp15
g7
I-5
sg8
I44
sa(dp16
g7
I-1
sg8
I415
sa(dp17
g7
I200
sg8
I64
sa(dp18
g7
I312
sg8
I103
sass."
EndChar

StartChar: uni0B9E
Encoding: 23 2974 52
GlifName: uni0B_9E_
Width: 1556
VWidth: 0
GlyphClass: 2
Flags: HW
HStem: -338.051 184.164<627.02 1008.64> -4.81738 77.8975<610.265 791.338> 160.18 153.82<1256.14 1415.02> 236.777 73.3584<744.647 790.669> 378 124<631.912 1002.41 1217.46 1351.94>
VStem: 23 219.862<104.179 304.566> 330.831 218.5<161.229 308.783> 592.583 140.905<128.019 230.267> 800.722 140.843<77.0471 232.721> 1002.41 215.05<27.9506 152.861 271.055 378> 1304.54 229.305<23.6137 154.857>
AnchorPoint: "Anchor-1" 1381 0 basechar 0
AnchorPoint: "Anchor-0" 865 0 basechar 0
LayerCount: 2
Back
Fore
SplineSet
272.826171875 322.63671875 m 0xefe0
 252.295898438 281.575195312 242.862304688 239.836914062 242.862304688 199 c 0
 242.862304688 13.236328125 466.204101562 -153.88671875 835.587890625 -153.88671875 c 0
 1017.32324219 -153.88671875 1304.5390625 -72.400390625 1304.5390625 96.6494140625 c 0
 1304.5390625 133.44921875 1296.73730469 160.1796875 1266.07910156 160.1796875 c 0xefe0
 1239.12890625 160.1796875 1217.59863281 143.31640625 1217.45410156 105.711914062 c 0
 1217.14550781 25.9326171875 1187.12402344 0.2744140625 1104.00390625 0.2744140625 c 0
 1021.95605469 0.2744140625 1002.40625 38.4638671875 1002.40625 118.034179688 c 2
 1002.40625 378 l 1
 745.981445312 378 l 6
 621.456054688 378 549.331054688 337.008789062 549.331054688 227.866210938 c 4
 549.331054688 187.865234375 565.418945312 153.299804688 594.568359375 127.004882812 c 5
 593.260742188 135.315429688 592.583007812 144.005859375 592.583007812 153.064453125 c 4
 592.583007812 251.010742188 667.328125 310.135742188 767.66796875 310.135742188 c 4xdfe0
 868.032226562 310.135742188 941.564453125 251.010742188 941.564453125 153.064453125 c 4
 941.564453125 127.493164062 935.744140625 105.102539062 926.64453125 85.3955078125 c 4
 913.642578125 57.23828125 888.296875 31.8291015625 850.630859375 15.2060546875 c 4
 822.3203125 2.7119140625 787.049804688 -4.8173828125 744.831054688 -4.8173828125 c 4
 476.880859375 -4.8173828125 330.831054688 103.68359375 330.831054688 255 c 4
 330.831054688 421.352539062 446.456054688 502 767.831054688 502 c 6
 1284.58105469 502 l 2
 1342.08105469 502 1365.08105469 484.868164062 1365.08105469 438.166015625 c 0
 1365.08105469 398.415039062 1340.95703125 378 1277.45605469 378 c 2
 1217.45605469 378 l 1
 1217.45605469 271.055664062 l 1
 1267.33691406 302.530273438 1308.56054688 314 1376.08789062 314 c 0
 1453.94238281 314 1533.84375 266.611328125 1533.84375 120.799804688 c 0
 1533.84375 98.6064453125 1532.09570312 74.1328125 1527.88769531 47.19921875 c 0
 1487.63769531 -210.400390625 1171.38769531 -338.05078125 801.087890625 -338.05078125 c 0
 303.595703125 -338.05078125 23 -72.009765625 23 205.899414062 c 0
 23 275.499023438 38.576171875 345.844726562 72.125 412.938476562 c 0
 93.9990234375 456.68359375 131.08984375 482.637695312 170.087890625 482.637695312 c 0
 188.219726562 482.637695312 206.766601562 479.725585938 224.385742188 470.916015625 c 0
 261.509765625 452.354492188 292.0078125 431.532226562 292.0078125 394.5 c 0
 292.0078125 375.461914062 287.577148438 352.139648438 272.826171875 322.63671875 c 0xefe0
800.721679688 154.180664062 m 4
 800.721679688 193.763671875 790.396484375 236.77734375 768.2890625 236.77734375 c 4xdfe0
 745.452148438 236.77734375 733.48828125 193.260742188 733.48828125 154.223632812 c 4
 733.48828125 115.202148438 744.607421875 73.080078125 767.97265625 73.080078125 c 4
 791.337890625 73.080078125 800.721679688 114.618164062 800.721679688 154.180664062 c 4
EndSplineSet
PickledDataWithLists: "(dp1
S'com.fontlab.hintData'
p2
(dp3
S'vhints'
p4
(lp5
(dp6
S'position'
p7
I-190
sS'width'
p8
I191
sa(dp9
g7
I68
sg8
I189
sa(dp10
g7
I296
sg8
I123
sa(dp11
g7
I477
sg8
I122
sa(dp12
g7
I632
sg8
I189
sa(dp13
g7
I744
sg8
I76
sa(dp14
g7
I896
sg8
I199
sasS'hhints'
p15
(lp16
(dp17
g7
I-299
sg8
I160
sa(dp18
g7
I-5
sg8
I63
sa(dp19
g7
I-5
sg8
I44
sa(dp20
g7
I-1
sg8
I415
sa(dp21
g7
I134
sg8
I134
sa(dp22
g7
I200
sg8
I64
sa(dp23
g7
I312
sg8
I103
sass."
Substitution2: "Single Substitution lookup 12 subtable" tm_NyU
EndChar

StartChar: comma
Encoding: 170 44 53
GlifName: comma
Width: 311
VWidth: 0
GlyphClass: 2
Flags: W
HStem: -6.9834 151.983<67.682 148.444>
VStem: 39.8105 230.189<19.1995 112.074>
LayerCount: 2
Back
SplineSet
155.630859375 37.1455078125 m 261
 129.20703125 -8.41796875 108.53515625 -23.7255859375 44.353515625 -55.119140625 c 260
 32.0859375 -61.1201171875 29.767578125 -73.8369140625 29.767578125 -83.525390625 c 260
 29.767578125 -97.1572265625 38.201171875 -109.854492188 47.77734375 -115.838867188 c 260
 52.509765625 -118.796875 59.56640625 -120.416015625 68.28515625 -120.416015625 c 260
 128.822265625 -120.416015625 269.53515625 -52.982421875 269.53515625 80.923828125 c 260
 269.53515625 177.524414062 166.03515625 176.557617188 156.8359375 176.557617188 c 261
 155.630859375 37.1455078125 l 261
39.345703125 100.657226562 m 260
 39.345703125 43.4697265625 92.1767578125 24.57421875 147.635742188 24.57421875 c 260
 213.458007812 24.57421875 256.885742188 40.521484375 256.885742188 100.657226562 c 260
 256.885742188 152.274414062 219.78515625 176.557617188 147.635742188 176.557617188 c 260
 76.466796875 176.557617188 39.345703125 143.798828125 39.345703125 100.657226562 c 260
EndSplineSet
Fore
SplineSet
39.810546875 69.099609375 m 0
 39.810546875 11.912109375 92.6416015625 -6.9833984375 148.100585938 -6.9833984375 c 0
 148.21484375 -6.9833984375 148.329101562 -6.9833984375 148.444335938 -6.9833984375 c 1
 125.201171875 -43.130859375 102.70703125 -58.359375 44.818359375 -86.6767578125 c 0
 32.55078125 -92.677734375 30.232421875 -105.39453125 30.232421875 -115.083007812 c 0
 30.232421875 -136.5 45.4130859375 -151.973632812 68.75 -151.973632812 c 0
 129.287109375 -151.973632812 270 -84.5400390625 270 49.3662109375 c 0
 270 123.32421875 211.443359375 145 148.100585938 145 c 0
 76.931640625 145 39.810546875 112.241210938 39.810546875 69.099609375 c 0
EndSplineSet
PickledDataWithLists: "(dp1
S'com.fontlab.hintData'
p2
(dp3
S'vhints'
p4
(lp5
(dp6
S'position'
p7
I126
sS'width'
p8
I88
sasS'hhints'
p9
(lp10
(dp11
g7
I-6
sg8
I132
sass."
EndChar

StartChar: plus
Encoding: 518 43 54
GlifName: plus
Width: 552
VWidth: 0
GlyphClass: 2
Flags: W
HStem: 154.691 159.391<63.7424 192.437 351.826 484.946>
VStem: 192.437 159.39<24.8531 154.691 314.082 444.672>
LayerCount: 2
Back
Fore
SplineSet
400.890625 314.08203125 m 6
 480.756493041 314.08203125 506.584960938 290.449272192 506.584960938 227.712890625 c 4
 506.584960938 172.474118564 469.665167802 154.69140625 390.58984375 154.69140625 c 6
 351.826171875 154.69140625 l 5
 351.826171875 91.654296875 l 6
 351.826171875 25.1837162836 321.363822974 2.462890625 274.538085938 2.462890625 c 4
 230.46176398 2.462890625 192.436523438 22.0790995096 192.436523438 98.5244140625 c 6
 192.436523438 154.69140625 l 5
 131.928710938 154.69140625 l 6
 65.4581303459 154.69140625 42.7373046875 185.155214273 42.7373046875 231.98046875 c 4
 42.7373046875 276.056790709 58.5583482024 314.08203125 135.004882812 314.08203125 c 6
 192.436523438 314.08203125 l 5
 192.436523438 360.616210938 l 6
 192.436523438 440.482078978 216.069255775 466.310546875 278.806640625 466.310546875 c 4
 334.042599387 466.310546875 351.826171875 429.390753739 351.826171875 350.315429688 c 6
 351.826171875 314.08203125 l 5
 400.890625 314.08203125 l 6
EndSplineSet
EndChar

StartChar: hyphen
Encoding: 197 45 55
GlifName: hyphen
Width: 446
VWidth: 0
GlyphClass: 2
Flags: W
HStem: 201.58 144.9<80.5178 367.058>
VStem: 61.417 322.583<219.01 327.416>
LayerCount: 2
Back
Fore
SplineSet
287.9140625 346.48046875 m 6
 360.50390625 346.48046875 384 324.99609375 384 267.962890625 c 4
 384 217.74609375 350.419921875 201.580078125 278.55078125 201.580078125 c 6
 142.5 201.580078125 l 6
 82.0859375 201.580078125 61.4169921875 229.274414062 61.4169921875 271.842773438 c 4
 61.4169921875 311.912109375 79.2646484375 346.48046875 148.74609375 346.48046875 c 6
 287.9140625 346.48046875 l 6
EndSplineSet
EndChar

StartChar: uni0BB0
Encoding: 32 2992 56
GlifName: uni0B_B_0
Width: 786
VWidth: 0
Flags: HW
HStem: -240.263 21G<267.765 300.877> 376.006 125.2<237.884 436.271 650.706 752.263>
VStem: 23 215.051<28.0065 376.006> 436.158 215.05<33.4376 376.302>
AnchorPoint: "Anchor-1" 783 0 basechar 0
AnchorPoint: "Anchor-0" 345 -8.51953 basechar 0
LayerCount: 2
Back
Fore
SplineSet
308.5078125 -33.9384765625 m 0
 414.307617188 23.5615234375 436.158203125 37.59375 436.158203125 85.6611328125 c 0
 436.271484375 376.302734375 l 1
 237.883789062 376.005859375 l 1
 238.05078125 106.704101562 l 0
 238.05078125 25.9423828125 208.150390625 0.017578125 124.59765625 0.017578125 c 0
 42.55078125 0.017578125 23 38.2060546875 23 117.776367188 c 0
 24.1767578125 384.104492188 l 1
 26.8671875 455.561523438 64.7939453125 501.206054688 127.5234375 501.206054688 c 2
 690.5234375 502.1484375 l 2
 747.129882812 502.1484375 763.772460938 485.821289062 763.772460938 437.748046875 c 0
 763.772460938 387.6953125 734.223632812 376.797851562 684.7734375 376.797851562 c 2
 650.706054688 376.721679688 l 1
 651.208007812 110.9609375 l 0
 651.208007812 31.9482421875 649.801757812 -21.005859375 640.858398438 -40.8388671875 c 0
 614.408203125 -99.4892578125 556.908203125 -131.688476562 385.732421875 -212.6640625 c 0
 345.97265625 -231.47265625 313.947265625 -240.262695312 287.807617188 -240.262695312 c 0
 247.721679688 -240.262695312 221.48046875 -218.834960938 202.422851562 -179.809570312 c 0
 195.151367188 -164.919921875 191.734375 -151.768554688 191.734375 -139.739257812 c 0
 191.734375 -99.6826171875 233.873046875 -74.5009765625 308.5078125 -33.9384765625 c 0
EndSplineSet
Substitution2: "Single Substitution lookup 15 subtable" tm_VowelAa
EndChar

StartChar: uni0B89
Encoding: 10 2953 57
GlifName: uni0B_89
Width: 1101
VWidth: 0
Flags: HW
HStem: -0.548828 126.85<65.3348 349.966 625.838 1067.18> 212 61.7422<156.553 198.366> 414.112 108.638<158.04 327.042>
VStem: 23 124.349<277.1 411.18> 206.682 124.295<276.649 412.086> 403.332 229.747<196.342 356.579>
LayerCount: 2
Back
SplineSet
437.176757812 125.951171875 m 5
 437.176757812 144.936523438 434.788085938 176.891601562 431.426757812 196.1015625 c 260
 415.327148438 288.1015625 343.467773438 382.401367188 235.926757812 382.401367188 c 260
 216.967773438 382.401367188 153.533203125 375.500976562 153.533203125 299.6015625 c 260
 6.7939453125 299.6015625 l 260
 6.7939453125 395.922851562 88.7265625 446.80078125 216.376953125 446.80078125 c 260
 437.176757812 446.80078125 634.9765625 355.951171875 634.9765625 125.951171875 c 260
 437.176757812 125.951171875 l 5
220.75 299.6015625 m 260
 220.75 328.563476562 210.626953125 361.333984375 188.186523438 361.333984375 c 260
 166.149414062 361.333984375 153.49609375 328.165039062 153.49609375 299.6015625 c 260
 153.49609375 271.072265625 164.590820312 242.247070312 187.903320312 242.247070312 c 260
 211.338867188 242.247070312 220.75 270.681640625 220.75 299.6015625 c 260
187.626953125 179.75 m 260
 87.9033203125 179.75 7.458984375 222.484375 7.458984375 299.6015625 c 260
 7.458984375 363.139648438 84.375 402.008789062 187.62890625 402.008789062 c 260
 290.999023438 402.008789062 366.732421875 363.139648438 366.732421875 299.6015625 c 260
 366.732421875 222.484375 287.458007812 179.75 187.626953125 179.75 c 260
994.126953125 126.30078125 m 262
 1066.73144531 126.30078125 1085.77636719 114.741210938 1085.77636719 63.8515625 c 260
 1085.77636719 17.03125 1067.18066406 -0.548828125 995.27734375 -0.548828125 c 262
 118.977539062 -0.548828125 l 262
 58.5322265625 -0.2841796875 37.89453125 26.4111328125 37.89453125 63.8515625 c 260
 37.89453125 112.151367188 71.8798828125 126.30078125 128.674804688 126.30078125 c 262
 994.126953125 126.30078125 l 262
EndSplineSet
Fore
SplineSet
997.881835938 126.30078125 m 2
 1048.48144531 126.30078125 1078.32519531 114.741210938 1078.32519531 63.8515625 c 0
 1078.32519531 17.03125 1058.83203125 -0.548828125 999.032226562 -0.548828125 c 2
 131.526367188 -0.548828125 l 2
 71.08203125 -0.548828125 50.443359375 26.4111328125 50.443359375 63.8515625 c 0
 50.443359375 112.151367188 84.4296875 126.30078125 141.223632812 126.30078125 c 2
 329.581054688 126.30078125 l 1
 354.16015625 147.85546875 403.33203125 202.421875 403.33203125 294 c 0
 403.33203125 346.491210938 372.139648438 394.790039062 310.244140625 415.538085938 c 1
 323.53125 395.405273438 330.9765625 370.776367188 330.9765625 342.329101562 c 0
 330.9765625 258.911132812 263.05078125 212 177.509765625 212 c 0
 91.9892578125 212 23 258.911132812 23 342.329101562 c 0
 23 428.579101562 81.33203125 522.75 306.731445312 522.75 c 0
 530.982421875 522.75 633.079101562 408.8359375 633.079101562 227.135742188 c 0
 633.079101562 192.84765625 630.733398438 158.920898438 625.837890625 126.30078125 c 1
 997.881835938 126.30078125 l 2
206.681640625 343.286132812 m 0
 206.681640625 377.227539062 197.5703125 414.112304688 178.060546875 414.112304688 c 0
 157.90625 414.112304688 147.348632812 376.796875 147.348632812 343.323242188 c 0
 147.348632812 309.862304688 157.161132812 273.7421875 177.78125 273.7421875 c 0
 198.400390625 273.7421875 206.681640625 309.361328125 206.681640625 343.286132812 c 0
EndSplineSet
EndChar

StartChar: uni0B8A
Encoding: 11 2954 58
GlifName: uni0B_8A_
Width: 1734
VWidth: 0
Flags: HW
HStem: -0.548828 126.85<47.158 349.966 625.838 1700.02> 153.744 62.3184<990.201 1031.1> 212 61.7422<156.553 198.366> 350.021 49.4863<991.413 1030.02> 414.112 108.638<158.04 273.295> 433.084 88.7803<859.802 1170.15 1343.83 1465.83 1614.87 1682.44>
VStem: 23 124.349<277.1 411.18> 206.682 124.295<276.649 412.086> 403.332 229.747<196.342 356.579> 669.791 150.8<270.695 396.835> 870.692 112.725<238.918 348.335> 1037.2 112.674<216.996 348.807> 1194.79 149.04<175.331 433.084> 1465.83 149.04<175.331 433.084>
LayerCount: 2
Back
Fore
SplineSet
1037.203125 284 m 0xd3fc
 1037.203125 315.638671875 1028.94335938 350.020507812 1011.2578125 350.020507812 c 0
 992.987304688 350.020507812 983.416992188 315.237304688 983.416992188 284.033203125 c 0
 983.416992188 251.346679688 992.311523438 216.0625 1011.00390625 216.0625 c 0
 1029.6953125 216.0625 1037.203125 250.858398438 1037.203125 284 c 0xd3fc
1343.83300781 245.001953125 m 2
 1343.83300781 179.634765625 1324.52441406 158.651367188 1270.5703125 158.651367188 c 0
 1209.37402344 158.651367188 1194.79296875 189.526367188 1194.79296875 253.859375 c 2
 1194.79296875 431.618164062 l 2
 1194.79296875 432.70703125 1194.80371094 433.7890625 1194.82519531 434.86328125 c 1
 1142.42773438 435.4921875 1025.20019531 436.8515625 990.411132812 436.8515625 c 0
 865.234375 436.8515625 820.590820312 403.918945312 820.590820312 336 c 0
 820.590820312 288.451171875 839.81640625 257.008789062 877.561523438 238.233398438 c 1
 873.1015625 250.810546875 870.692382812 264.774414062 870.692382812 280.049804688 c 0
 870.692382812 354.541015625 930.489257812 399.506835938 1010.76074219 399.506835938 c 0
 1091.05175781 399.506835938 1149.87695312 354.541015625 1149.87695312 280.049804688 c 0
 1149.87695312 255.190429688 1143.59375 233.806640625 1132.51464844 216.213867188 c 0
 1121.39453125 197.653320312 1103.31054688 180.875976562 1076.93554688 170.798828125 c 0
 1067.34472656 166.82421875 1057.06152344 163.786132812 1046.24511719 161.719726562 c 0
 1023.88378906 156.629882812 998.21875 153.744140625 969.255859375 153.744140625 c 0
 775.435546875 153.744140625 669.791015625 236.578125 669.791015625 352.100585938 c 0
 669.791015625 450.020507812 760.315429688 521.819335938 905.403320312 521.819335938 c 2
 1170.15332031 521.819335938 l 1
 1170.15332031 521.819335938 1203.46582031 521.030273438 1215.26855469 499.176757812 c 1
 1226.7578125 513.052734375 1242.66308594 521.141601562 1261.90234375 521.708984375 c 0
 1263.578125 521.8125 1265.28222656 521.864257812 1267.01269531 521.864257812 c 2
 1628.80371094 521.864257812 l 2
 1674.08984375 521.864257812 1687.40332031 511.083984375 1687.40332031 479.34375 c 0
 1687.40332031 441.354492188 1663.76367188 433.083984375 1624.20410156 433.083984375 c 2
 1614.86523438 433.083984375 l 1
 1614.86523438 245.001953125 l 2
 1614.86523438 179.634765625 1595.55761719 158.651367188 1541.60351562 158.651367188 c 0
 1480.40722656 158.651367188 1465.82519531 189.526367188 1465.82519531 253.859375 c 2
 1465.82519531 431.618164062 l 2
 1465.82519531 432.108398438 1465.83203125 432.596679688 1465.83203125 433.083984375 c 2
 1343.83300781 433.083984375 l 1xd7fc
 1343.83300781 245.001953125 l 2
1609.55371094 126.30078125 m 2
 1690.35644531 126.30078125 1711.55273438 114.741210938 1711.55273438 63.8515625 c 0
 1711.55273438 17.03125 1692.95703125 -0.548828125 1621.05371094 -0.548828125 c 2
 113.34765625 -0.548828125 l 2
 52.9140625 -0.548828125 32.2646484375 26.4111328125 32.2646484375 63.8515625 c 0
 32.2646484375 112.151367188 66.2578125 126.30078125 123.044921875 126.30078125 c 2
 329.581054688 126.30078125 l 5
 354.16015625 147.85546875 403.33203125 202.421875 403.33203125 294 c 4
 403.33203125 346.491210938 372.139648438 394.790039062 310.244140625 415.538085938 c 5
 323.53125 395.405273438 330.9765625 370.776367188 330.9765625 342.329101562 c 4
 330.9765625 258.911132812 263.05078125 212 177.509765625 212 c 4
 91.9892578125 212 23 258.911132812 23 342.329101562 c 4
 23 428.579101562 81.33203125 522.75 306.731445312 522.75 c 4xbbfc
 530.982421875 522.75 633.079101562 408.8359375 633.079101562 227.135742188 c 4
 633.079101562 192.84765625 630.733398438 158.920898438 625.837890625 126.30078125 c 5
 1609.55371094 126.30078125 l 2
206.681640625 343.286132812 m 4
 206.681640625 377.227539062 197.5703125 414.112304688 178.060546875 414.112304688 c 4
 157.90625 414.112304688 147.348632812 376.796875 147.348632812 343.323242188 c 4
 147.348632812 309.862304688 157.161132812 273.7421875 177.78125 273.7421875 c 4
 198.400390625 273.7421875 206.681640625 309.361328125 206.681640625 343.286132812 c 4
EndSplineSet
EndChar

StartChar: uni0BA8
Encoding: 27 2984 59
GlifName: uni0B_A_8
Width: 942
VWidth: 0
Flags: HW
HStem: -268.572 194.192<268.077 641.683> -248.16 190.45<165.251 534.781> 0.0175781 21G<84.8486 167.648 448.818 529.746> 146.326 153.674<641.291 813.296> 376.568 125.432<239.325 388.244 603.295 705.165>
VStem: 24.2744 215.051<28.0088 375.879> 388.244 215.051<27.2619 142.142 258.917 376.119> 689.872 229.306<-26.1988 133.422>
AnchorPoint: "Anchor-1" 734 0 basechar 0
AnchorPoint: "Anchor-0" 395 0 basechar 0
LayerCount: 2
Back
SplineSet
570.153320312 -230.596679688 m 260
 530.087890625 -223.704101562 495.166992188 -220.303710938 464.352539062 -220.303710938 c 7
 342.5 -220.303710938 284.8828125 -249.779296875 227.453125 -249.779296875 c 260
 176.329101562 -249.779296875 138.974609375 -203.49609375 138.974609375 -143.083984375 c 260
 138.974609375 -69.7158203125 199.85546875 -19.853515625 376.953125 -19.853515625 c 7
 418.877929688 -19.853515625 467.31640625 -23.14453125 523.002929688 -30.2373046875 c 4
 593.450195312 -39.2099609375 649.642578125 -43.376953125 694.352539062 -43.376953125 c 7
 834.297851562 -43.376953125 861.752929688 2.783203125 861.752929688 92.5537109375 c 260
 861.752929688 129.353515625 853.951171875 172.182617188 823.29296875 172.182617188 c 260
 794.151367188 172.182617188 774.336914062 152.353515625 774.336914062 108.159179688 c 261
 686.66796875 107.303710938 l 261
 686.66796875 254.703125 793.1328125 326.002929688 933.301757812 326.002929688 c 260
 1037.05273438 326.002929688 1091.05859375 259.303710938 1091.05859375 82.203125 c 260
 1091.05859375 -93.87109375 1025.16699219 -247.568359375 749.552734375 -247.568359375 c 7
 697.54296875 -247.568359375 638.065429688 -242.280273438 570.153320312 -230.596679688 c 260
EndSplineSet
Fore
SplineSet
239.325195312 106.704101562 m 6xbf
 239.325195312 25.9482421875 209.424804688 0.017578125 125.872070312 0.017578125 c 4
 43.8251953125 0.017578125 24.2744140625 38.2119140625 24.2744140625 117.776367188 c 6
 24.2744140625 389.202148438 l 6
 24.2744140625 456.833984375 63.375 501.837890625 125.266601562 501.85546875 c 6
 642.916992188 502 l 2
 700 502.015625 716.166015625 485.672851562 716.166015625 437.599609375 c 0
 716.166015625 387.546875 686.6171875 376.767578125 637.166992188 376.649414062 c 2
 603.294921875 376.568359375 l 1
 603.294921875 258.916992188 l 1
 645.569335938 286.438476562 700.290039062 300 761.420898438 300 c 0
 865.171875 300 919.177734375 233.30078125 919.177734375 56.2001953125 c 0
 919.177734375 -117.203125 849.072265625 -268.572265625 552.372070312 -268.572265625 c 0xbf
 488.377929688 -268.572265625 352.573242188 -248.16015625 314.403320312 -248.16015625 c 0
 190.16015625 -248.16015625 170.034179688 -277.63671875 111.477539062 -277.63671875 c 0
 60.3544921875 -277.63671875 23 -235.69140625 23 -180.94140625 c 0
 23 -107.572265625 72.3740234375 -57.7099609375 216 -57.7099609375 c 0x7f
 298.270507812 -57.7099609375 428.627929688 -74.3798828125 524.772460938 -74.3798828125 c 0
 664.716796875 -74.3798828125 689.872070312 -26.5205078125 689.872070312 66.55078125 c 0
 689.872070312 104.899414062 675.883789062 146.325195312 643 146.325195312 c 3
 619.240234375 146.325195312 604.4296875 128.499023438 603.065429688 94.9462890625 c 0
 600.19140625 24.2841796875 569.650390625 0.017578125 489.841796875 0.017578125 c 4
 407.794921875 0.017578125 388.244140625 38.2119140625 388.244140625 117.776367188 c 6
 388.244140625 376.119140625 l 5
 239.325195312 375.87890625 l 5
 239.325195312 106.704101562 l 6xbf
EndSplineSet
Substitution2: "Single Substitution lookup 12 subtable" tm_NU
EndChar

StartChar: uni0BAA
Encoding: 29 2986 60
GlifName: uni0B_A_A_
Width: 673
VWidth: 0
Flags: HW
HStem: -0.0947266 125.221<238.05 435.851>
VStem: 23 215.05<125.126 474.011> 435.851 215.05<125.317 474.011>
AnchorPoint: "Anchor-1" 650 0 basechar 0
AnchorPoint: "Anchor-0" 341 -2 basechar 0
LayerCount: 2
Back
Fore
SplineSet
650.900390625 395.3125 m 6
 650.900390625 109.896484375 l 6
 650.900390625 19.556640625 599.685546875 0.16796875 536.842773438 0.16796875 c 6
 132.25 -0.0947265625 l 6
 70.150390625 -0.0947265625 23 45.189453125 23 112.822265625 c 6
 23 384.240234375 l 6
 23 463.810546875 42.5498046875 502 124.59765625 502 c 4
 208.150390625 502 238.049804688 476.07421875 238.049804688 395.3125 c 6
 238.049804688 125.125976562 l 5
 319.540039062 125.1640625 386.217773438 125.241210938 435.850585938 125.317382812 c 5
 435.850585938 384.240234375 l 6
 435.850585938 463.810546875 455.400390625 502 537.448242188 502 c 4
 621 502 650.900390625 476.07421875 650.900390625 395.3125 c 6
EndSplineSet
EndChar

StartChar: uni0B9F
Encoding: 24 2975 61
GlifName: uni0B_9F_
Width: 707
VWidth: 0
Flags: HW
HStem: -0.0947266 126.85<238.05 672.946>
VStem: 23 215.05<126.755 474.011>
AnchorPoint: "Anchor-0" 366 0 basechar 0
LayerCount: 2
Back
Fore
SplineSet
132.25 -0.0947265625 m 6
 70.1494140625 -0.0947265625 23 45.1943359375 23 112.822265625 c 6
 23 384.240234375 l 6
 23 463.810546875 42.5498046875 502 124.59765625 502 c 4
 208.149414062 502 238.049804688 476.07421875 238.049804688 395.3125 c 6
 238.049804688 126.754882812 l 5
 579.125 126.754882812 l 6
 662.403320312 126.754882812 684.25 115.1953125 684.25 64.3056640625 c 4
 684.25 17.4853515625 665.125 -0.0947265625 600.680664062 -0.0947265625 c 6
 132.25 -0.0947265625 l 6
EndSplineSet
EndChar

StartChar: uni0B82
Encoding: 4 2946 62
GlifName: uni0B_82
Width: 0
VWidth: 0
Flags: W
HStem: 515.58 64.8027<-20.6271 21.7637> 727.71 66.0234<-20.7609 21.6925>
VStem: -157.08 126.815<583.907 724.338> 30.2451 126.758<583.651 724.873>
AnchorPoint: "Anchor-0" 0 0 basechar 0
LayerCount: 2
Back
Fore
SplineSet
0.4931640625 515.580078125 m 0
 -86.72265625 515.580078125 -157.080078125 564.817382812 -157.080078125 652.368164062 c 0
 -157.080078125 740.520507812 -89.80859375 793.733398438 0.49609375 793.733398438 c 0
 90.82421875 793.733398438 157.002929688 740.520507812 157.002929688 652.368164062 c 0
 157.002929688 564.817382812 87.73046875 515.580078125 0.4931640625 515.580078125 c 0
30.2451171875 653.374023438 m 0
 30.2451171875 688.998046875 20.9521484375 727.709960938 1.0556640625 727.709960938 c 0
 -19.498046875 727.709960938 -30.2646484375 688.544921875 -30.2646484375 653.412109375 c 0
 -30.2646484375 618.29296875 -20.2587890625 580.3828125 0.7705078125 580.3828125 c 0
 21.798828125 580.3828125 30.2451171875 617.767578125 30.2451171875 653.374023438 c 0
EndSplineSet
EndChar

StartChar: uni0B83
Encoding: 5 2947 63
GlifName: uni0B_83
Width: 20
VWidth: 0
Flags: HW
HStem: -70.1953 64.8027<-199.133 -156.742 175.767 218.158> 141.935 66.0234<-199.267 -156.813 175.634 218.087> 198.904 64.8027<-11.6827 30.708> 411.034 66.0234<-11.8166 30.6368>
VStem: -335.586 126.815<-1.86864 138.562> -148.261 126.758<-2.12483 139.098 267.497 407.662> 39.3145 126.815<-1.86864 138.562 266.975 408.198> 226.64 126.758<-2.12483 139.098>
LayerCount: 2
Back
Fore
SplineSet
208.887695312 -70.1953125 m 4xdf
 121.671875 -70.1953125 51.314453125 -20.9580078125 51.314453125 66.5927734375 c 4
 51.314453125 154.745117188 118.5859375 207.958007812 208.890625 207.958007812 c 4
 299.21875 207.958007812 365.397460938 154.745117188 365.397460938 66.5927734375 c 4
 365.397460938 -20.9580078125 296.125 -70.1953125 208.887695312 -70.1953125 c 4xdf
238.639648438 67.5986328125 m 4
 238.639648438 103.22265625 229.346679688 141.934570312 209.450195312 141.934570312 c 4
 188.896484375 141.934570312 178.129882812 102.76953125 178.129882812 67.63671875 c 4
 178.129882812 32.517578125 188.135742188 -5.392578125 209.165039062 -5.392578125 c 4
 230.193359375 -5.392578125 238.639648438 31.9921875 238.639648438 67.5986328125 c 4
-166.012695312 -70.1953125 m 4
 -253.228515625 -70.1953125 -323.5859375 -20.9580078125 -323.5859375 66.5927734375 c 4
 -323.5859375 154.745117188 -256.314453125 207.958007812 -166.009765625 207.958007812 c 4
 -75.681640625 207.958007812 -9.5029296875 154.745117188 -9.5029296875 66.5927734375 c 4
 -9.5029296875 -20.9580078125 -78.775390625 -70.1953125 -166.012695312 -70.1953125 c 4
-136.260742188 67.5986328125 m 4
 -136.260742188 103.22265625 -145.553710938 141.934570312 -165.450195312 141.934570312 c 4
 -186.00390625 141.934570312 -196.770507812 102.76953125 -196.770507812 67.63671875 c 4
 -196.770507812 32.517578125 -186.764648438 -5.392578125 -165.735351562 -5.392578125 c 4
 -144.70703125 -5.392578125 -136.260742188 31.9921875 -136.260742188 67.5986328125 c 4
21.4375 198.904296875 m 4xbf
 -65.7783203125 198.904296875 -136.135742188 248.141601562 -136.135742188 335.692382812 c 4
 -136.135742188 423.844726562 -68.8642578125 477.057617188 21.4404296875 477.057617188 c 4
 111.768554688 477.057617188 177.947265625 423.844726562 177.947265625 335.692382812 c 4
 177.947265625 248.141601562 108.674804688 198.904296875 21.4375 198.904296875 c 4xbf
51.189453125 336.698242188 m 4
 51.189453125 372.322265625 41.896484375 411.034179688 22 411.034179688 c 4
 1.4462890625 411.034179688 -9.3203125 371.869140625 -9.3203125 336.736328125 c 4
 -9.3203125 301.6171875 0.685546875 263.70703125 21.71484375 263.70703125 c 4
 42.7431640625 263.70703125 51.189453125 301.091796875 51.189453125 336.698242188 c 4
EndSplineSet
EndChar

StartChar: I
Encoding: 215 73 64
GlifName: I_
Width: 354
VWidth: 0
Flags: W
HStem: -0.24707 684.813<98.3273 245.96>
VStem: 60 230<48.7331 644.772>
LayerCount: 2
Back
SplineSet
159.573242188 970.911132812 m 260
 147.525390625 979.854492188 124.515625 993.74609375 98.853515625 993.74609375 c 7
 44.2197265625 993.74609375 14.7216796875 936.013671875 14.7216796875 894.436523438 c 7
 14.7216796875 866.326171875 34 847.077148438 64.1142578125 829.873046875 c 260
 126.04296875 794.4921875 159.935546875 783.340820312 237.975585938 747.571289062 c 260
 258.0078125 738.3046875 275.145507812 733.408203125 289.845703125 733.408203125 c 7
 321.862304688 733.408203125 349.65625 766.42578125 349.65625 802.666015625 c 7
 349.65625 823.37109375 334.313476562 842.317382812 307.73046875 862.125976562 c 260
 242.373046875 910.823242188 222.098632812 924.505859375 159.573242188 970.911132812 c 260
EndSplineSet
Fore
SplineSet
290 150.057617188 m 6
 290 44 249.504882812 -0.2470703125 173.252929688 -0.2470703125 c 4
 98.4482421875 -0.2470703125 60.5830078125 31.9560546875 60 142.41015625 c 6
 60 564.6171875 l 6
 60 654 108.598632812 684.56640625 173.252929688 684.56640625 c 4
 240.051757812 684.56640625 289.926757812 670.748046875 290 573.603515625 c 6
 290 150.057617188 l 6
EndSplineSet
EndChar

StartChar: E
Encoding: 211 69 65
GlifName: E_
Width: 637
VWidth: 0
Flags: W
HStem: -0.00195312 161.52<289.701 571.667> 268.266 138<289.623 525.111> 523.047 161.52<289.435 573.257>
VStem: 58.0029 231.518<161.518 268.266 406.266 523.047>
LayerCount: 2
Back
Fore
SplineSet
445.961914062 406.265625 m 2
 518.567382812 406.265625 542.048828125 384.174804688 542.048828125 331.198242188 c 0
 542.048828125 285.185546875 508.484375 268.265625 436.59765625 268.265625 c 2
 289.622687102 268.265625 l 1
 289.701282735 161.51765818 l 1
 491.797851562 161.31640625 l 2
 564.401367188 161.244140625 597.083007812 143.28125 597.083007812 86.248046875 c 0
 597.083007812 17.6494140625 553.357421875 -0.001953125 482.432617188 -0.001953125 c 2
 173.848632812 -0.001953125 l 2
 173.848632812 0.104839384014 173.84711527 0.211631893028 173.84711527 0.318424402042 c 1
 173.518534656 0.318424402042 173.18928776 0.31640625 172.859375 0.31640625 c 0
 98.056640625 0.31640625 60.8115234375 32.51953125 60.2294921875 142.973632812 c 2
 58.0029296875 565.1796875 l 2
 57.544921875 651.985351562 108.205078125 685.12890625 172.859375 685.12890625 c 4
 180.023311804 685.12890625 186.99019619 684.969986125 193.719986058 684.56640625 c 6
 482.432617188 684.56640625 l 6
 553.357421875 684.56640625 597.083007812 667.62109375 597.083007812 601.765625 c 0
 597.083007812 542.112304688 564.401367188 523.3203125 491.797851562 523.248046875 c 2
 289.435098829 523.046529874 l 1
 289.521081443 406.265625 l 1
 445.961914062 406.265625 l 2
EndSplineSet
EndChar

StartChar: T
Encoding: 226 84 66
GlifName: T_
Width: 721
VWidth: 0
Flags: W
HStem: 0 21G<323.943 399.471> 512.137 172.677<65.3281 246.766 477.93 660.71>
VStem: 35.4541 650.546<540.719 661.625> 248.715 229.489<46.295 512.112>
LayerCount: 2
Back
Fore
SplineSet
478.204101562 150.3046875 m 2xd0
 478.288085938 38.8671875 437.596679688 0 361.345703125 0 c 0
 286.540039062 0 249.296875 32.2041015625 248.71484375 142.657226562 c 2xd0
 246.76647672 512.112051894 l 1
 161.604492188 512.313476562 l 2
 83.6591796875 512.498046875 35.4541015625 530.452148438 35.4541015625 602.733398438 c 0
 35.4541015625 665.02734375 70.3955078125 684.813476562 152.239257812 684.813476562 c 0
 298.317382812 684.813476562 437.520507812 684.813476562 580.71484375 684.813476562 c 0
 653.4453125 684.813476562 686 663.57421875 686 595.833007812 c 0xe0
 686 529.063476562 642.588867188 512.448242188 571.349609375 512.313476562 c 2
 477.930461008 512.136756586 l 1
 478.204101562 150.3046875 l 2xd0
EndSplineSet
EndChar

StartChar: F
Encoding: 212 70 67
GlifName: F_
Width: 609
VWidth: 0
Flags: W
HStem: 0.316406 684.813<91.2115 242.051> 268.267 138<281.689 517.177> 523.049 161.518<281.502 564.174>
VStem: 52.2959 229.488<42.3199 268.267 406.267 523.049>
LayerCount: 2
Back
Fore
SplineSet
281.784179688 139.12109375 m 2x70
 281.860351562 36.208984375 241.177734375 0.31640625 164.92578125 0.31640625 c 0
 90.123046875 0.31640625 52.8779296875 32.5205078125 52.2958984375 142.973632812 c 2
 50.0693359375 565.180664062 l 2
 49.611328125 651.986328125 100.271484375 685.129882812 164.92578125 685.129882812 c 0x90
 172.095493544 685.129882812 179.067835568 684.970706345 185.8026683 684.56640625 c 2
 473.348632812 684.56640625 l 2
 544.2734375 684.56640625 588 667.622070312 588 601.766601562 c 0
 588 542.11328125 555.317382812 523.321289062 482.713867188 523.249023438 c 2
 281.501504235 523.048652018 l 1
 281.587487693 406.266601562 l 1
 438.028320312 406.266601562 l 2
 510.633789062 406.266601562 534.114257812 384.17578125 534.114257812 331.19921875 c 0
 534.114257812 285.186523438 500.549804688 268.266601562 428.6640625 268.266601562 c 2
 281.689093352 268.266601562 l 1
 281.784179688 139.12109375 l 2x70
EndSplineSet
EndChar

StartChar: J
Encoding: 216 74 68
GlifName: J_
Width: 646
VWidth: 0
Flags: W
HStem: -7.08203 152.886<272.921 350.896>
VStem: 41 215.185<158.225 307.377> 356.849 231.396<154.827 648.823>
LayerCount: 2
Back
SplineSet
172.874023438 158.1640625 m 260
 172.874023438 217.696289062 146.203125 247.135742188 64.8720703125 247.135742188 c 260
 -20.6181640625 247.135742188 -40.33203125 219.53515625 -40.33203125 143.177734375 c 260
 -40.33203125 53.015625 26.21484375 12.53515625 79.5751953125 12.53515625 c 1285
217.943359375 129.471679688 m 262
 215.715820312 551.677734375 l 262
 215.715820312 638.486328125 268.431640625 671.626953125 336.323242188 671.626953125 c 260
 406.418945312 671.626953125 458.534179688 657.80859375 458.612304688 560.6640625 c 262
 458.932617188 162.764648438 l 262
 217.943359375 129.471679688 l 262
355.724609375 245.564453125 m 4
 458.932617188 249.014648438 l 5
 458.932617188 249.014648438 461.303710938 302.240234375 458.932617188 162.764648438 c 4
 456.923828125 44.66015625 358.024414062 -13.185546875 205.07421875 -20.021484375 c 4
 82.142578125 -25.515625 -1.6650390625 8.4326171875 -14.576171875 132.864257812 c 260
 -19.2783203125 178.188476562 25.67578125 252.46484375 65.923828125 238.6640625 c 260
 141.60546875 212.716796875 231.1015625 214.948242188 231.1015625 245.564453125 c 260
 355.724609375 245.564453125 l 4
EndSplineSet
Fore
SplineSet
256.184570312 209.053710938 m 0
 256.184570312 167.860351562 285 145.803710938 310.556640625 145.803710938 c 0
 342.755859375 145.803710938 358.903320312 154.3515625 358.856445312 209.053710938 c 0
 358.754882812 328.111328125 356.848632812 446.029296875 356.848632812 564.6171875 c 0
 356.848632812 644.904296875 389.14453125 684.56640625 471.705078125 684.56640625 c 0
 537.040039062 684.56640625 588.168945312 661.00390625 588.244140625 573.603515625 c 2
 588.564453125 203.303710938 l 2
 588.702148438 43.943359375 492.640625 -7.08203125 325.603515625 -7.08203125 c 0
 104.784179688 -7.08203125 41 126.853515625 41 217.103515625 c 0
 41 303.995117188 61.7919921875 332.5625 151.954101562 332.5625 c 0
 223.625976562 332.5625 261.735351562 305.276367188 261.735351562 261.954101562 c 0
 261.735351562 245.14453125 256.184570312 224.184570312 256.184570312 209.053710938 c 0
EndSplineSet
EndChar

StartChar: K
Encoding: 217 75 69
GlifName: K_
Width: 671
VWidth: 0
Flags: W
HStem: -0.24707 21G<131.398 207.037 467.532 553.839> 236.653 173.65<290.81 368.165>
VStem: 54.75 231.15<42.5985 142.354 142.534 236.653 413.376 650.649> 392.85 231.15<32.4875 220.328 441.593 647.711>
LayerCount: 2
Back
Fore
SplineSet
488.299804688 316.002929688 m 1
 549.25 309.103515625 624 255.053710938 624 160.752929688 c 0
 624 27.353515625 600.978515625 -0.2470703125 506.700195312 -0.2470703125 c 0
 428.36328125 -0.2470703125 392.849609375 31.953125 392.849609375 98.6533203125 c 0
 392.849609375 226.303710938 369.013671875 236.653320312 323.849609375 236.653320312 c 2
 290.5 236.653320312 l 1
 290.5 149.252929688 l 2
 290.5 38.853515625 245.473632812 -0.2470703125 168.599609375 -0.2470703125 c 0
 94.1962890625 -0.2470703125 55.900390625 35.4033203125 55.900390625 142.353515625 c 2
 55.900390625 142.353515625 54.75 390.752929688 54.75 558.653320312 c 0
 54.75 641.453125 83.04296875 684.56640625 155.950195312 684.56640625 c 0
 227.533203125 684.56640625 285.900390625 672.502929688 285.900390625 575.903320312 c 0
 285.900390625 518.403320312 284.75 488.502929688 284.75 451.703125 c 0
 284.75 427.553710938 297.875 410.303710938 325 410.303710938 c 0
 374.026367188 410.303710938 387.099609375 442.502929688 387.099609375 582.803710938 c 0
 387.099609375 650.653320312 420.614257812 684.56640625 504.400390625 684.56640625 c 0
 597.450195312 684.56640625 618.25 651.803710938 618.25 565.553710938 c 0
 618.25 398.803710938 550.400390625 324.053710938 488.299804688 316.002929688 c 1
EndSplineSet
EndChar

StartChar: P
Encoding: 222 80 70
GlifName: P_
Width: 695
VWidth: 0
Flags: W
HStem: 0 684.812<94.7467 249.461> 205.804 131.266<293.364 349.738 349.757 365.178> 556.704 128.449<293.1 380.716>
VStem: 51 242.265<48.1607 205.804 337.07 556.704> 404.085 245.915<370.189 533.328>
LayerCount: 2
Back
Fore
SplineSet
404.084960938 448.5 m 0x78
 404.084960938 546.200943604 369.023040821 556.703743393 293.09984133 556.703743393 c 0
 293.265436155 337.069807898 l 1
 354.972232253 337.447848416 404.084960938 359.689585598 404.084960938 448.5 c 0x78
293.40625 150.303710938 m 3
 293.40625 38.8661792903 250.801757812 0 170.797851562 0 c 0
 92.1748046875 0 51 32.2015863711 51 142.657226562 c 0
 51 564.86328125 l 3
 51 651.670153584 104.999732847 684.8125 170.797851562 684.8125 c 27x98
 240.000254011 684.8125 348.672851562 685.15234375 348.672851562 685.15234375 c 0
 522.583007812 685.15234375 650 590.576171875 650 433.901367188 c 0
 650 287.66796875 515.23828125 206.076171875 349.756835938 206.076171875 c 6
 349.756835938 206.076171875 323.747953844 205.948160478 293.364405424 205.803567107 c 1
 293.40625 150.303710938 l 3
EndSplineSet
EndChar

StartChar: R
Encoding: 224 82 71
GlifName: R_
Width: 688
VWidth: 0
Flags: W
HStem: 0 21G<126.738 202.266 480.749 559.978> 247.488 164.025<280.925 383.634> 555.302 128.474<280.692 306.317 306.325 386.566>
VStem: 49.2822 231.518<46.2946 247.488 411.513 555.302> 404.354 219.465<432.889 538.198> 407.389 226.611<39.6389 223.337>
LayerCount: 2
Back
Fore
SplineSet
305.241210938 411.700195312 m 2xf8
 356.477539062 411.700195312 404.353515625 425.506835938 404.353515625 486.22265625 c 0
 404.353515625 540.389648438 373.143554688 555.450195312 306.325195312 555.450195312 c 2
 306.325195312 555.450195312 295.747085043 555.388410618 280.691761129 555.302177825 c 1
 280.800503398 411.513402808 l 1
 305.241210938 411.700195312 l 2xf8
280.998046875 150.303710938 m 2
 281.08203125 38.8662109375 240.391601562 0 164.139648438 0 c 0
 89.3359375 0 52.0908203125 32.203125 51.5087890625 142.657226562 c 2
 49.2822265625 564.86328125 l 2
 48.82421875 651.669921875 99.484375 684.25 164.139648438 684.25 c 0
 169.627548175 684.25 174.999809183 684.160535541 180.238431981 683.942438163 c 1
 180.238431981 684.044958775 180.239257812 684.147479388 180.239257812 684.25 c 2
 348.94140625 683.776367188 l 2
 513.880859375 683.776367188 623.818359375 599.200195312 623.818359375 478.524414062 c 0xf8
 623.818359375 389.651731108 588.969561742 339.63117197 504.232015952 315.668820641 c 1
 563.263567608 312.468182152 634 252.544519491 634 161 c 0
 634 26.4501953125 599.442382812 0 520.513671875 0 c 0
 440.984375 0 407.388671875 32.8857421875 407.388671875 99.3837890625 c 0xf4
 407.388671875 227.108398438 381.334960938 247.836914062 336.291015625 247.836914062 c 2
 280.924549852 247.488062084 l 1
 280.998046875 150.303710938 l 2
EndSplineSet
EndChar

StartChar: B
Encoding: 208 66 72
GlifName: B_
Width: 688
VWidth: 0
Flags: W
HStem: 0.790039 144.754<293.766 305.403 305.406 387.29> 292.664 131.326<293.776 303.104 303.106 379.539> 556.168 128.398<293.574 305.403 305.406 378.731>
VStem: 64.3906 229.489<145.544 292.598 424.056 556.168> 397.685 218.315<442.763 540.165> 409.185 229.815<168.644 266.591>
LayerCount: 2
Back
SplineSet
297.922851562 142.458984375 m 258
 298.010742188 26.7587890625 255.317382812 -13.5947265625 175.313476562 -13.5947265625 c 256
 96.6904296875 -13.5947265625 57.515625 18.6083984375 56.93359375 129.0625 c 258
 54.7060546875 551.268554688 l 258
 54.248046875 638.07421875 107.421875 670.655273438 175.313476562 670.655273438 c 256
 245.409179688 670.655273438 297.52734375 657.400390625 297.602539062 560.254882812 c 258
 297.922851562 142.458984375 l 258
300.315429688 278.278320312 m 1
 189.849609375 278.954101562 l 1
 188.765625 410.28125 l 0
 197.767578125 410.28125 299.099609375 409.60546875 299.099609375 409.60546875 c 1
 475.252929688 409.60546875 651.092773438 349.780273438 651.092773438 194.204101562 c 256
 651.092773438 91.0556640625 605.065429688 -13.5947265625 379.666015625 -13.5947265625 c 1
 175.313476562 -13.5947265625 l 1
 189.849609375 131.754882812 l 0
 199.171875 131.754882812 301.399414062 131.078125 301.399414062 131.078125 c 1
 364.297851562 131.078125 405.177734375 153.854492188 405.177734375 200.305664062 c 256
 405.177734375 261.021484375 348.579101562 278.278320312 300.315429688 278.278320312 c 1
300.315429688 409.60546875 m 1
 348.579101562 409.60546875 393.677734375 422.346679688 393.677734375 478.377929688 c 256
 393.677734375 528.045898438 364.297851562 541.85546875 301.399414062 541.85546875 c 1
 301.399414062 541.85546875 185.53125 541.178710938 174.965820312 541.178710938 c 0
 175.313476562 670.655273438 l 1
 338.265625 670.181640625 l 1
 512.17578125 670.181640625 628.092773438 585.60546875 628.092773438 464.9296875 c 256
 628.092773438 312.978515625 475.252929688 278.278320312 299.099609375 278.278320312 c 1
 299.099609375 278.278320312 197.767578125 277.602539062 188.765625 277.602539062 c 0
 189.849609375 408.928710938 l 1
 300.315429688 409.60546875 l 1
EndSplineSet
Fore
SplineSet
304.322265625 423.990234375 m 0xf8
 352.5859375 423.990234375 397.684570312 436.731445312 397.684570312 492.762695312 c 0
 397.684570312 542.430664062 368.3046875 556.240234375 305.40625 556.240234375 c 2
 305.40625 556.240234375 300.879575384 556.212414601 293.573731969 556.168055954 c 1
 293.675018261 424.056454507 l 1
 299.521595792 424.015580131 303.106445312 423.990234375 303.106445312 423.990234375 c 0
 303.471925122 423.990234375 303.837334278 423.989461462 304.2026715 423.989461462 c 0
 304.242536209 423.989461462 304.282400917 423.990234375 304.322265625 423.990234375 c 0xf8
293.879882812 156.84375 m 2
 293.879882812 152.994147283 293.844799162 149.227956417 293.765539462 145.543888475 c 1
 300.910222409 145.494428762 305.40625 145.462890625 305.40625 145.462890625 c 2
 368.3046875 145.462890625 409.184570312 168.239257812 409.184570312 214.690429688 c 0xf4
 409.184570312 275.40625 352.5859375 292.663085938 304.322265625 292.663085938 c 0
 304.297154919 292.663085938 304.272044213 292.663572092 304.246933507 292.663572092 c 0
 303.866955175 292.663572092 303.486792117 292.663085938 303.106445312 292.663085938 c 2
 303.106445312 292.663085938 299.562767129 292.638031273 293.775804133 292.597570444 c 1
 293.879882812 156.84375 l 2
566.128951267 355.81864538 m 1
 611.250509549 321.641455343 639 273.43191634 639 208.588867188 c 0xf4
 639 105.440429688 558.959960938 0.7900390625 383.672851562 0.7900390625 c 2
 185.071289062 0.7900390625 l 1
 185.085616449 0.933311005511 l 2
 182.447546277 0.837328442066 179.759257317 0.7900390625 177.020507812 0.7900390625 c 0
 98.3974609375 0.7900390625 64.9736328125 32.9931640625 64.390625 143.447265625 c 2
 62.1630859375 565.653320312 l 2
 61.7998046875 634.438476562 109.12890625 685.040039062 177.020507812 685.040039062 c 0
 179.740201948 685.040039062 182.424177671 685.020084913 185.071116766 684.976050791 c 2
 185.071289062 685.040039062 l 1
 342.272460938 684.56640625 l 2
 501.459960938 685.040039062 616 599.990234375 616 479.314453125 c 0xf8
 616 423.880194688 597.801118516 384.050974784 566.128951267 355.81864538 c 1
EndSplineSet
EndChar

StartChar: S
Encoding: 225 83 73
GlifName: S_
Width: 678
VWidth: 0
Flags: W
HStem: -6.51953 167.271<211.148 478.738> 567.692 123.839<322.122 457.423>
VStem: 44.1807 268.75<481.489 558.629>
LayerCount: 2
Back
SplineSet
354.173828125 670.655273438 m 260
 156.900390625 670.655273438 20.3369140625 579.805664062 20.3369140625 463.146484375 c 260
 20.3369140625 387.407226562 53.193359375 326.163085938 137.973632812 280.805664062 c 260
 234.573242188 229.124023438 301.2734375 216.306640625 301.2734375 177.581054688 c 260
 301.2734375 125.825195312 214.551757812 151.291992188 176.438476562 162.484375 c 260
 131.831054688 175.583984375 101.651367188 199.657226562 77.3974609375 199.657226562 c 260
 37.1474609375 199.657226562 19.8427734375 174.009765625 19.8427734375 146.963867188 c 260
 19.8427734375 80.662109375 140.436523438 -20.1259765625 332.418945312 -20.1259765625 c 260
 589.709960938 -20.1259765625 684.25390625 101.2421875 684.25390625 197.383789062 c 260
 684.25390625 300.908203125 628.599609375 342.360351562 486.423828125 407.305664062 c 260
 393.2734375 449.85546875 362.223632812 467.10546875 371.423828125 504.194335938 c 260
 380.491210938 540.748046875 442.723632812 541.85546875 497.923828125 515.405273438 c 260
 531.215820312 499.452148438 589.106445312 460.53125 613.360351562 460.53125 c 260
 638.477539062 460.53125 657.797851562 470.619140625 657.797851562 513.224609375 c 260
 657.797851562 575.692382812 548.22265625 670.655273438 354.173828125 670.655273438 c 260
EndSplineSet
Fore
SplineSet
342.831054688 691.53125 m 4
 510.136998875 691.53125 619.595703125 608.063476562 619.595703125 538.581054688 c 4
 619.595703125 508.567382812 596.260742188 493.521484375 576.73046875 493.521484375 c 4
 532.79592655 493.521484375 455.363230092 567.692382812 371.581054688 567.692382812 c 4
 336.795898438 567.692382812 312.930664062 556.327148438 312.930664062 520.180664062 c 4
 312.930664062 467.991992327 406.664978407 445.516432612 503.130859375 385.98046875 c 4
 613.895350184 316.556033707 646.48046875 266.540381234 646.48046875 200.48046875 c 4
 646.48046875 104.338867188 599.695142504 -6.51953125 357.78125 -6.51953125 c 4
 167.351521006 -6.51953125 33 94.6376953125 33 160.939453125 c 4
 33 187.985351562 50.3046875 213.6328125 90.5546875 213.6328125 c 4
 140.271751045 213.6328125 227.090719177 160.751953125 311.78125 160.751953125 c 4
 336.900390625 160.751953125 356.630859375 168.95703125 356.630859375 192.430664062 c 4
 356.630859375 233.584754076 297.461017191 232.337243255 155.73046875 320.880859375 c 4
 79.484375 364.445426552 44.1806640625 413.215469425 44.1806640625 484.594726562 c 4
 44.1806640625 601.116210938 153.785230112 691.53125 342.831054688 691.53125 c 4
EndSplineSet
EndChar

StartChar: V
Encoding: 228 86 74
GlifName: V_
Width: 702
VWidth: 0
Flags: W
HStem: -6.51953 169.163<296.392 395.623>
VStem: 33.7051 245.373<199.337 597.668> 413.627 245.373<199.337 603.201>
LayerCount: 2
Back
Fore
SplineSet
347.252929688 162.643554688 m 0
 405.279830627 162.643554688 413.626953125 200.392578125 413.626953125 278.162109375 c 0
 413.626953125 347.532226562 415.013671875 476.806640625 415.013671875 581.55078125 c 0
 415.013671875 650.013671875 442.993164062 683.869140625 528.314453125 683.869140625 c 0
 634.1640625 683.869140625 659 625.569335938 659 335.569335938 c 0
 659 78.1181640625 477.665174847 -6.51953125 349.135742188 -6.51953125 c 0
 219.682418694 -6.51953125 33.705078125 78.1181640625 33.705078125 335.569335938 c 0
 33.705078125 625.569335938 61.736328125 683.869140625 175.890625 683.869140625 c 0
 252.553710938 683.869140625 277.69140625 650.013671875 277.69140625 581.55078125 c 0
 277.69140625 476.612304688 279.078125 347.100585938 279.078125 279.220703125 c 0
 279.078125 203.756835938 284.085086283 162.643554688 347.252929688 162.643554688 c 0
EndSplineSet
EndChar

StartChar: N
Encoding: 220 78 75
GlifName: N_
Width: 695
VWidth: 0
Flags: W
HStem: -0.24707 21G<84.7129 137.944 532.321 597.816>
VStem: 27 163<20.2768 301.616> 505.286 160.395<380.143 661.616>
LayerCount: 2
Back
Fore
SplineSet
666 95.0205078125 m 7
 665.963597029 37.6416629766 631.632749103 -0.24609375 564 -0.24609375 c 7
 500.64170265 -0.24609375 444.611545338 62.33991634 373 129 c 4
 267.276705253 230.059031743 190 301.616210938 190 301.616210938 c 5
 190 84.853515625 l 6
 190 16 162.938476562 -0.2470703125 112.950195312 -0.2470703125 c 4
 56.4755859377 -0.2470703125 27 22.7548821739 27 87.1533203125 c 6
 27 570.3671875 l 6
 27 647.99693882 69.33203125 684.56640625 138.861328125 684.56640625 c 4
 189.94140625 684.56640625 212.387071083 670.30585942 251.561523438 632.252929688 c 4
 411.452637306 480 505.286132812 380.142578125 505.286132812 380.142578125 c 5
 505.434570312 598 l 6
 505.474480671 656.575278465 537.386777327 684.002929688 584.861328125 684.002929688 c 4
 641.440429688 684.002929688 665.642046058 659.816904258 665.680664062 598.903320312 c 6
 666 95.0205078125 l 7
EndSplineSet
EndChar

StartChar: U
Encoding: 227 85 76
GlifName: U_
Width: 687
VWidth: 0
Flags: W
HStem: -5.68359 168.6<296.763 396.856>
VStem: 48 230.589<181.919 637.35> 412.913 231.087<177.356 647.215>
LayerCount: 2
Back
Fore
SplineSet
643.857421875 564.6171875 m 6
 644 267 l 4
 644 74 562.986329608 -5.68359375 346 -5.68359375 c 4
 137.393592996 -5.68359375 48 86.9051782986 48 267 c 4
 48 565.4921875 l 6
 48 636 95.638671875 684.56640625 158.666015625 684.56640625 c 4
 226.890625 684.56640625 278.588867188 670.766601562 278.588867188 573.603515625 c 6
 278.588867188 247.56640625 l 6
 280.42067565 182.530081139 304.248828909 162.916015625 346 162.916015625 c 4
 406.394940082 162.916015625 412.913085938 201.068931787 412.913085938 247.56640625 c 6
 412.913085938 574.6328125 l 6
 412.913085938 670.421875 465.314453125 684.56640625 527.922851562 684.56640625 c 4
 603.021484375 684.56640625 643.815429688 652.358398438 643.857421875 564.6171875 c 6
EndSplineSet
EndChar

StartChar: D
Encoding: 210 68 77
GlifName: D_
Width: 699
VWidth: 0
Flags: W
HStem: 0 135.556<283.829 359.965> 544.933 139.317<283.55 360.83>
VStem: 53 230.829<137.537 544.933> 418.596 240.404<207.121 474.949>
LayerCount: 2
Back
Fore
SplineSet
283.829101562 135.555664062 m 1
 366.164101952 135.555664062 418.595703125 178.204190881 418.595703125 349.599609375 c 0
 418.595703125 508.41004275 362.804376941 543.631170065 283.549804688 544.932617188 c 1
 283.829101562 135.555664062 l 1
313.895507812 684.25 m 6
 519.457220588 684.25 659 558.849609375 659 346.150390625 c 0
 659 181.606445312 583.544845554 0 364.095703125 0 c 6
 166.990234375 0 l 2
 88.3662109375 0 53.58203125 32.2031250001 53 142.657226562 c 2
 53 564.86328125 l 2
 53 654 99.098632812 684.25 166.990234375 684.25 c 2
 313.895507812 684.25 l 6
EndSplineSet
EndChar

StartChar: M
Encoding: 219 77 78
GlifName: M_
Width: 935
VWidth: 0
Flags: W
VStem: 58.8086 160.489<18.269 95.7666>
LayerCount: 2
Back
Fore
SplineSet
644.69921875 366.016601562 m 1
 644.69921875 366.016601562 644.6015625 198.602539062 644.6015625 103.81640625 c 0
 644.6015625 24.466796875 698.5625 0.31640625 755.099609375 0.31640625 c 0
 814.62890625 0.31640625 874.364257812 19.6376953125 874.772460938 99.216796875 c 2
 874.772460938 99.216796875 877 349.6484375 877 533.916015625 c 0
 877 640.67578125 812.647460938 685.6328125 716.086914062 685.6328125 c 0
 651.427734375 685.6328125 610.975585938 662.270507812 581.44921875 614.416015625 c 0
 510.71484375 499.775390625 459.549804688 354.516601562 459.549804688 354.516601562 c 1
 459.549804688 354.516601562 398.6015625 516.666992188 341.099609375 619.016601562 c 0
 321.747070312 653.462890625 292.998046875 686.6328125 220.086914062 686.6328125 c 0
 98.2900390625 686.6328125 56.5810546875 630.883789062 56.5810546875 531.616210938 c 0
 56.5810546875 347.662109375 58.80859375 95.7666015625 58.80859375 95.7666015625 c 2
 59.21484375 16.1875 86.5927734375 0.31640625 141.5390625 0.31640625 c 0
 192.278320312 0.31640625 219.297851562 23.85546875 219.297851562 83.1162109375 c 0
 219.297851562 160.422851562 219.19921875 366.016601562 219.19921875 366.016601562 c 2
 222.033203125 355.806640625 259.44921875 274.016601562 303.149414062 175.116210938 c 0
 341.9921875 87.2099609375 372.544921875 51.6748046875 443.44921875 50.916015625 c 0
 498.2265625 50.330078125 523.950195312 69.31640625 560.75 149.81640625 c 0
 616.875976562 272.592773438 644.69921875 366.016601562 644.69921875 366.016601562 c 1
EndSplineSet
EndChar

StartChar: C
Encoding: 209 67 79
GlifName: C_
Width: 763
VWidth: 0
Flags: W
HStem: -6.51953 188.905<385.842 529.95> 547.98 143.477<352.497 437.519>
VStem: 41.1895 262.961<272.537 474.097> 447.846 240.26<437.062 536.973>
LayerCount: 2
Back
SplineSet
447.845703125 497.106445312 m 4
 447.845703125 524.454101562 424.076171875 547.98046875 393.947265625 547.98046875 c 4
 339.073242188 547.98046875 304.150390625 458.883789062 304.150390625 373.965820312 c 4
 304.150390625 276.997070312 364.27734375 202.385742188 460.385742188 202.385742188 c 4
 568.900390625 202.385742188 617.095703125 274.501953125 668.950195312 274.501953125 c 4
 700.518554688 274.501953125 723 244.702148438 723 220.78515625 c 4
 723 156.022460938 614.575195312 -6.51953125 406.051757812 -6.51953125 c 4
 198.55859375 -6.51953125 41.189453125 118.650390625 41.189453125 340.970703125 c 4
 41.189453125 559.62109375 185.591796875 691.45703125 392.251953125 691.45703125 c 4
 554.46875 691.45703125 688.10546875 600.33203125 688.10546875 483.767578125 c 4
 688.10546875 403.181640625 628.688476562 310.732421875 529.799804688 310.732421875 c 4
 477.619140625 310.732421875 416.036132812 337.229492188 416.036132812 395.90625 c 4
 416.036132812 432.337890625 447.845703125 467.950195312 447.845703125 497.106445312 c 4
EndSplineSet
Fore
SplineSet
447.845703125 497.106445312 m 0
 447.845703125 524.454101562 424.076171875 547.98046875 393.947265625 547.98046875 c 0
 339.073242188 547.98046875 304.150390625 458.883789062 304.150390625 373.965820312 c 0
 304.150390625 265.694038974 364.27734375 182.385742188 460.385742188 182.385742188 c 4
 568.900390625 182.385742188 617.095703125 274.501953125 668.950195312 274.501953125 c 0
 700.518554688 274.501953125 723 244.702148438 723 220.78515625 c 0
 723 156.022460938 614.575195312 -6.51953125 406.051757812 -6.51953125 c 0
 198.55859375 -6.51953125 41.189453125 118.650390625 41.189453125 340.970703125 c 0
 41.189453125 559.62109375 185.591796875 691.45703125 392.251953125 691.45703125 c 0
 554.46875 691.45703125 688.10546875 600.33203125 688.10546875 483.767578125 c 0
 688.10546875 403.181640625 628.688476562 310.732421875 529.799804688 310.732421875 c 0
 477.619140625 310.732421875 416.036132812 337.229492188 416.036132812 395.90625 c 0
 416.036132812 432.337890625 447.845703125 467.950195312 447.845703125 497.106445312 c 0
EndSplineSet
EndChar

StartChar: G
Encoding: 213 71 80
GlifName: G_
Width: 762
VWidth: 0
Flags: W
HStem: -6.51953 155.342<361.818 460.204> 547.98 143.477<356.112 432.456>
VStem: 41.0576 262.513<217.456 473.458> 437.03 258.994<454.713 542.553>
LayerCount: 2
Back
SplineSet
437.4296875 483.200195312 m 7
 437.4296875 510.547851562 418.224609375 534.07421875 393.881835938 534.07421875 c 260
 339.0078125 534.07421875 304.084960938 444.977539062 304.084960938 360.059570312 c 260
 304.084960938 270.240234375 364.211914062 201.12890625 460.3203125 201.12890625 c 260
 568.833984375 201.12890625 617.030273438 260.595703125 668.884765625 260.595703125 c 7
 700.453125 260.595703125 722.934570312 230.795898438 722.934570312 206.87890625 c 260
 722.934570312 142.116210938 614.509765625 -20.42578125 405.986328125 -20.42578125 c 260
 198.493164062 -20.42578125 41.1240234375 104.744140625 41.1240234375 327.064453125 c 260
 41.1240234375 545.71484375 185.526367188 677.55078125 392.185546875 677.55078125 c 260
 555.034179688 677.55078125 689.190429688 586.42578125 689.190429688 469.861328125 c 260
 689.190429688 389.275390625 625.45703125 296.826171875 519.384765625 296.826171875 c 7
 467.203125 296.826171875 405.62109375 323.323242188 405.62109375 382 c 7
 405.62109375 418.431640625 437.4296875 454.043945312 437.4296875 483.200195312 c 7
EndSplineSet
Fore
SplineSet
437.030273438 516.65625 m 0
 437.030273438 535.056640625 429.053710938 547.98046875 400.715820312 547.98046875 c 0
 356.0625 547.98046875 303.5703125 505.033203125 303.5703125 344.15625 c 0
 303.5703125 195.806640625 364.165039062 148.822265625 415.120117188 148.822265625 c 0
 444.966796875 148.822265625 471.180664062 165.624023438 471.180664062 196.95703125 c 1
 421.708007812 196.95703125 395.5703125 228.897460938 395.5703125 262.506835938 c 0
 395.5703125 308.506835938 416.15625 334.95703125 479.51953125 334.95703125 c 2
 600.7109375 334.95703125 l 2
 670.740234375 334.95703125 723 309.045898438 723 211.90625 c 0
 723 95.7568359375 573.5 -6.51953125 412.8203125 -6.51953125 c 0
 199.75 -6.51953125 41.0576171875 118.650390625 41.0576171875 340.970703125 c 0
 41.0576171875 559.62109375 185.950195312 691.45703125 399.01953125 691.45703125 c 0
 617.325195312 691.45703125 696.024414062 606.356445312 696.024414062 517.806640625 c 0
 696.024414062 474.006835938 671.051757812 407.40625 539.3203125 407.40625 c 0
 450.76953125 407.40625 437.030273438 422.428710938 437.030273438 516.65625 c 0
EndSplineSet
EndChar

StartChar: Q
Encoding: 223 81 81
GlifName: Q_
Width: 785
VWidth: 0
Flags: W
HStem: -250.309 390.117<369.995 648.709> -250.309 203.55<539.793 703.158> 543.277 146.947<363.75 423.542>
VStem: 41.5098 281.945<207.789 470.932> 461.196 281.804<206.538 471.191>
LayerCount: 2
Back
Fore
SplineSet
660.208984375 -46.7587890625 m 0x78
 710.744140625 -49.32421875 736.848632812 -74.3583984375 736.848632812 -144.508789062 c 0
 736.848632812 -231.909179688 682.059570312 -250.30859375 615.359375 -250.30859375 c 0xb8
 462.405273438 -250.30859375 407.200195312 -188.208984375 352.009765625 -97.3583984375 c 0
 328.477720476 -58.6221064389 318.692027529 -27.917422832 314.629080135 0.85839559444 c 1
 158.05092281 30.3356518485 41.509765625 148.782581469 41.509765625 337.340820312 c 0
 41.509765625 558.108398438 192.193359375 690.224609375 393.979492188 690.224609375 c 0
 595.629882812 690.224609375 743 558.108398438 743 337.340820312 c 0
 743 156.780621639 638.386682699 40.5100784546 492.701482277 5.08816955081 c 1
 529.948351552 -36.0898575348 606.164306212 -44.0157914666 660.208984375 -46.7587890625 c 0x78
461.196289062 337.340820312 m 0
 461.196289062 435.337890625 439.181640625 543.27734375 393.979492188 543.27734375 c 0
 347.10546875 543.27734375 323.455078125 433.993164062 323.455078125 337.340820312 c 0
 323.455078125 241.604492188 346.009765625 139.80859375 393.979492188 139.80859375 c 0
 441.744140625 139.80859375 461.196289062 240.270507812 461.196289062 337.340820312 c 0
EndSplineSet
EndChar

StartChar: W
Encoding: 229 87 82
GlifName: W_
Width: 1000
VWidth: 0
Flags: W
HStem: -4.23926 161.163<310.623 386.413 616.332 689.729>
VStem: 42 245.373<220.126 605.667> 383.386 236.31<158.347 619.637> 712.258 246.523<221.887 607.428>
LayerCount: 2
Back
Fore
SplineSet
653.184570312 156.923828125 m 0
 699.581054688 156.923828125 712.2578125 216.077148438 712.2578125 337.943359375 c 0
 712.2578125 393.9375 713.645507812 498.28515625 713.645507812 582.83203125 c 0
 713.645507812 651.294921875 743.043945312 685.150390625 832.696289062 685.150390625 c 0
 927.444335938 685.150390625 958.78125 632.283203125 958.78125 371.811523438 c 0
 958.78125 88.3701171875 785.969726562 -4.2392578125 666.56640625 -4.2392578125 c 0
 615.244140625 -4.2392578125 555.626953125 12.3935546875 503.962890625 53.1357421875 c 1
 452.541015625 11.1123046875 392.690429688 -6 340.930664062 -6 c 0
 219.600585938 -6 42 86.609375 42 370.049804688 c 4
 42 630.521484375 73.119140625 683.389648438 166.935546875 683.389648438 c 4
 256.588867188 683.389648438 285.986328125 649.534179688 285.986328125 581.0703125 c 4
 285.986328125 496.4375 287.373046875 391.985351562 287.373046875 337.240234375 c 4
 287.373046875 219.376953125 297.377929688 155.163085938 350.547851562 155.163085938 c 0
 382.004882812 155.163085938 394.017578125 180.61328125 398.561523438 232.518554688 c 1
 388.8359375 269.984375 383.385742188 366.474609375 383.385742188 414.361328125 c 0
 383.385742188 631.377929688 400.778320312 662.150390625 497.794921875 662.150390625 c 0
 617.592773438 662.150390625 619.6953125 610.971679688 619.6953125 412.600585938 c 0
 619.6953125 363.0234375 613.962890625 265.234375 603.76953125 226.807617188 c 1
 608.591796875 181.028320312 621.041992188 156.923828125 653.184570312 156.923828125 c 0
EndSplineSet
EndChar

StartChar: Z
Encoding: 232 90 83
GlifName: Z_
Width: 733
VWidth: 0
Flags: W
HStem: 0 161.952<323.045 669.43> 521.272 161.95<96.3453 385.145>
LayerCount: 2
Back
Fore
SplineSet
591.958984375 161.952148438 m 0
 672.458984375 161.952148438 693.8671875 136.973632812 693.8671875 82.6083984375 c 0
 693.8671875 11.087890625 649.515625 0 550.743164062 0 c 0
 456.916015625 0 247.883789062 0 169.497070312 0 c 0
 111.537109375 0 41.984375 55.271484375 41.984375 125.47265625 c 0
 41.984375 204.018554688 62.6533203125 230.614257812 123.672851562 290.37109375 c 0
 202.396484375 367.46484375 292.666992188 442.739257812 385.14453125 521.157226562 c 1
 350.76171875 521.272460938 242.629882812 521.272460938 209.193359375 521.272460938 c 0
 110.423828125 521.272460938 66.0732421875 544.044921875 66.0732421875 605.3984375 c 0
 66.0732421875 667.520507812 115.400390625 683.22265625 189.64453125 683.22265625 c 0
 289.861328125 683.22265625 482.80078125 683.28515625 582.943359375 683.28515625 c 0
 667.951171875 683.28515625 695 617.329101562 695 583.786132812 c 0
 695 497.73828125 673.6171875 484.581054688 617.0078125 430.079101562 c 0
 535.794921875 351.890625 418.495117188 252.060546875 323.044921875 161.590820312 c 1
 381.998046875 161.78125 543.9296875 161.952148438 591.958984375 161.952148438 c 0
EndSplineSet
EndChar

StartChar: Y
Encoding: 231 89 84
GlifName: Y_
Width: 691
VWidth: 0
Flags: W
HStem: 0 21G<304.558 380.461>
VStem: 229.329 230.64<46.2955 300.492>
LayerCount: 2
Back
Fore
SplineSet
459.96875 150.303710938 m 2
 460.114257812 38.8662109375 418.961914062 0 341.959960938 0 c 0
 267.155273438 0 230.345703125 32.205078125 229.329101562 142.657226562 c 2
 227.834960938 305.060546875 l 1
 73.568359375 484.791015625 l 2
 47.6669921875 514.967773438 32 541.083984375 32 568.099609375 c 0
 32 599.77734375 44.7099609375 632.920898438 74.0341796875 654.890625 c 0
 96.7783203125 671.930664062 119.659179688 684.659179688 144.868164062 684.659179688 c 0
 168.458007812 684.659179688 195.879882812 675.594726562 221.717773438 645.649414062 c 2
 344.301757812 503.579101562 l 1
 445.803710938 623.443359375 l 2
 483.56640625 668.038085938 522.81640625 684.129882812 555.418945312 684.129882812 c 0
 578.779296875 684.129882812 602.279296875 679.530273438 621.53125 660.27734375 c 0
 648.008789062 633.798828125 663.016601562 608.485351562 663.016601562 580.75 c 0
 663.016601562 550.250976562 641.02734375 520.12109375 604.364257812 475.6953125 c 2
 459.772460938 300.4921875 l 1
 459.96875 150.303710938 l 2
EndSplineSet
EndChar

StartChar: X
Encoding: 230 88 85
GlifName: X_
Width: 755
VWidth: 0
Flags: W
HStem: 0 20.4697G<150.02 180.033 572.837 599.283>
LayerCount: 2
Back
Fore
SplineSet
212.702148438 340.400390625 m 1
 86.2021484375 473.411132812 l 2
 59.109375 501.8984375 44.6337890625 529.704101562 44.6337890625 556.719726562 c 0
 44.6337890625 588.3984375 59.3447265625 619.09765625 86.66796875 643.51171875 c 0
 113.104492188 667.133789062 139.701171875 684.780273438 169.001953125 684.780273438 c 0
 192.591796875 684.780273438 220.494140625 676.11328125 245.8515625 645.76953125 c 2
 374.184570312 492.200195312 l 1
 480.287109375 623.563476562 l 2
 516.993164062 669.008789062 557.299804688 684.25 589.90234375 684.25 c 0
 617.327148438 684.25 643.448242188 672.962890625 667.514648438 648.897460938 c 0
 693.993164062 622.419921875 709 597.106445312 709 569.370117188 c 0
 709 538.87109375 690.1796875 505.4921875 650.34765625 464.315429688 c 2
 541.602539062 351.900390625 l 1
 667.431640625 210.838867188 l 2
 693.80859375 181.268554688 709 154.545898438 709 127.530273438 c 0
 709 95.8515625 694.2890625 65.15234375 666.965820312 40.73828125 c 0
 640.529296875 17.1162109375 613.934570312 -0.5302734375 584.631835938 -0.5302734375 c 0
 561.041992188 -0.5302734375 532.806640625 7.8623046875 507.782226562 38.48046875 c 2
 379.44921875 195.5 l 1
 273.346679688 60.6865234375 l 2
 237.21875 14.783203125 196.333984375 0 163.731445312 0 c 0
 136.307617188 0 110.548828125 12.072265625 86.119140625 36.501953125 c 0
 59.640625 62.98046875 44.6337890625 88.2939453125 44.6337890625 116.030273438 c 0
 44.6337890625 146.528320312 64.4228515625 178.705078125 103.286132812 221.083984375 c 2
 212.702148438 340.400390625 l 1
EndSplineSet
EndChar

StartChar: exclam
Encoding: 175 33 88
GlifName: exclam
Width: 349
VWidth: 0
Flags: W
HStem: -6.51953 151.982<91.3897 262.821> 185.421 506<112.994 235.598>
VStem: 62.5293 229.04<21.222 119.88 414.868 665.572> 96.3496 156.4<201.873 434.16>
LayerCount: 2
Back
Fore
SplineSet
62.529296875 69.3798828125 m 0xe0
 62.529296875 126.568359375 117.661132812 145.462890625 173.119140625 145.462890625 c 0
 238.942382812 145.462890625 291.569335938 129.515625 291.569335938 69.3798828125 c 0
 291.569335938 17.7626953125 245.26953125 -6.51953125 173.119140625 -6.51953125 c 0
 101.950195312 -6.51953125 62.529296875 26.23828125 62.529296875 69.3798828125 c 0xe0
293 601.984375 m 0
 293 663.821289062 260.372070312 691.420898438 169.197265625 691.420898438 c 0
 77.8623046875 691.420898438 56.099609375 652.321289062 56.099609375 590.912109375 c 0
 56.099609375 494.756835938 96.349609375 362.9296875 96.349609375 266.546875 c 0
 96.349609375 211.576171875 113.830078125 185.420898438 172.041992188 185.420898438 c 0
 229.28125 185.420898438 252.75 209.40234375 252.75 263.62109375 c 0xd0
 252.75 361.780273438 293 500.694335938 293 601.984375 c 0
EndSplineSet
EndChar

StartChar: exclamdown
Encoding: 176 161 89
GlifName: exclamdown
Width: 341
VWidth: 0
Flags: W
HStem: -6.51953 506<114.685 220.922> 539.438 151.982<84.8204 256.252>
VStem: 55.96 229.04<565.022 663.679> 61.0303 215.051<19.3289 258.864> 101.28 134.551<250.741 485.186>
LayerCount: 2
Back
Fore
SplineSet
55.9599609375 615.521484375 m 0xe0
 55.9599609375 558.333007812 111.091796875 539.438476562 166.549804688 539.438476562 c 0
 232.373046875 539.438476562 285 555.385742188 285 615.521484375 c 0
 285 667.138671875 238.700195312 691.420898438 166.549804688 691.420898438 c 0
 95.380859375 691.420898438 55.9599609375 658.663085938 55.9599609375 615.521484375 c 0xe0
276.081054688 82.9169921875 m 0xd0
 276.081054688 21.080078125 246.180664062 -6.51953125 162.627929688 -6.51953125 c 0
 80.5810546875 -6.51953125 61.0302734375 32.580078125 61.0302734375 93.9892578125 c 0xd0
 61.0302734375 190.14453125 101.280273438 321.971679688 101.280273438 418.354492188 c 0
 101.280273438 473.325195312 116.104492188 499.48046875 165.47265625 499.48046875 c 0
 215.372070312 499.48046875 235.831054688 475.499023438 235.831054688 421.280273438 c 0xc8
 235.831054688 323.12109375 276.081054688 184.20703125 276.081054688 82.9169921875 c 0xd0
EndSplineSet
EndChar

StartChar: question
Encoding: 177 63 90
GlifName: question
Width: 577
VWidth: 0
Flags: W
HStem: -6.51953 151.982<171.14 342.571> 586.078 105.343<240.834 298.039>
VStem: 23.5635 216.345<507.033 585.074> 142.279 229.04<21.222 119.88> 320.75 205.25<410.074 564.875>
LayerCount: 2
Back
SplineSet
514.25 490.634765625 m 260
 514.25 610.848632812 421.23828125 670.6484375 256.908203125 670.6484375 c 260
 94.095703125 670.6484375 31.3642578125 619.170898438 31.3642578125 546.943359375 c 260
 31.3642578125 507.369140625 64.1923828125 439.505859375 176.899414062 439.505859375 c 260
 219.515625 439.505859375 254.904296875 444.086914062 254.904296875 491.354492188 c 260
 254.904296875 513.701171875 239.658203125 533.057617188 239.658203125 546.28125 c 260
 239.658203125 561.109375 245.342773438 571.055664062 265.532226562 571.055664062 c 260
 299.123046875 571.055664062 320.5 521.3203125 320.5 473.916015625 c 260
 320.5 390.501953125 208.0546875 310.802734375 195.120117188 231.348632812 c 260
 187.069335938 181.8984375 213.51953125 164.6484375 259.311523438 164.6484375 c 260
 309.2109375 164.6484375 318.79296875 187.93359375 338.870117188 226.748046875 c 260
 356.120117188 260.098632812 381.419921875 295.748046875 412.469726562 322.198242188 c 4
 465.467773438 367.344726562 514.25 429.1484375 514.25 490.634765625 c 260
142.030273438 55.5068359375 m 260
 142.030273438 112.6953125 197.161132812 131.58984375 252.620117188 131.58984375 c 260
 318.442382812 131.58984375 371.069335938 115.642578125 371.069335938 55.5068359375 c 260
 371.069335938 3.8896484375 324.76953125 -20.392578125 252.620117188 -20.392578125 c 260
 181.451171875 -20.392578125 142.030273438 12.365234375 142.030273438 55.5068359375 c 260
EndSplineSet
Fore
SplineSet
142.279296875 69.3798828125 m 0xd0
 142.279296875 126.568359375 197.411132812 145.462890625 252.869140625 145.462890625 c 0
 318.692382812 145.462890625 371.319335938 129.515625 371.319335938 69.3798828125 c 0
 371.319335938 17.7626953125 325.01953125 -6.51953125 252.869140625 -6.51953125 c 0
 181.701171875 -6.51953125 142.279296875 26.23828125 142.279296875 69.3798828125 c 0xd0
526 511.408203125 m 0xe8
 526 631.62109375 428.83203125 691.420898438 257.158203125 691.420898438 c 0
 88.53515625 691.420898438 23.5634765625 639.944335938 23.5634765625 567.716796875 c 0
 23.5634765625 526.024414062 56.392578125 454.529296875 169.098632812 454.529296875 c 0
 216.11328125 454.529296875 255.153320312 459.110351562 255.153320312 506.377929688 c 0
 255.153320312 528.724609375 239.908203125 548.081054688 239.908203125 561.303710938 c 0
 239.908203125 576.1328125 245.591796875 586.078125 265.782226562 586.078125 c 0
 299.372070312 586.078125 320.75 536.342773438 320.75 488.939453125 c 0
 320.75 366.110351562 186.920898438 308.412109375 186.920898438 230.271484375 c 0
 186.920898438 192.298828125 214.450195312 178.521484375 259.561523438 178.521484375 c 0
 338.401367188 178.521484375 526 327.663085938 526 511.408203125 c 0xe8
EndSplineSet
EndChar

StartChar: questiondown
Encoding: 178 191 91
GlifName: questiondown
Width: 583
VWidth: 0
Flags: W
HStem: -7.39258 105.343<255.271 312.476> 538.565 151.982<185.576 357.008>
VStem: 38 216.345<98.9538 176.995> 156.716 229.04<564.148 662.806> 335.187 205.25<119.153 273.954>
LayerCount: 2
Back
Fore
SplineSet
156.715820312 614.6484375 m 0xd0
 156.715820312 557.459960938 211.84765625 538.565429688 267.305664062 538.565429688 c 0
 333.12890625 538.565429688 385.755859375 554.512695312 385.755859375 614.6484375 c 0
 385.755859375 666.265625 339.456054688 690.547851562 267.305664062 690.547851562 c 0
 196.137695312 690.547851562 156.715820312 657.790039062 156.715820312 614.6484375 c 0xd0
540.436523438 172.620117188 m 0xe8
 540.436523438 52.4072265625 443.268554688 -7.392578125 271.594726562 -7.392578125 c 0
 102.971679688 -7.392578125 38 44.083984375 38 116.311523438 c 0
 38 158.00390625 70.8291015625 229.499023438 183.53515625 229.499023438 c 0
 230.549804688 229.499023438 269.58984375 224.91796875 269.58984375 177.650390625 c 0
 269.58984375 155.303710938 254.344726562 135.947265625 254.344726562 122.724609375 c 0
 254.344726562 107.895507812 260.028320312 97.9501953125 280.21875 97.9501953125 c 0
 313.80859375 97.9501953125 335.186523438 147.685546875 335.186523438 195.088867188 c 0
 335.186523438 317.91796875 201.357421875 375.616210938 201.357421875 453.756835938 c 0
 201.357421875 491.729492188 228.88671875 505.506835938 273.998046875 505.506835938 c 0
 352.837890625 505.506835938 540.436523438 356.365234375 540.436523438 172.620117188 c 0xe8
EndSplineSet
EndChar

StartChar: quoteright
Encoding: 180 8217 93
GlifName: quoteright
Width: 330
VWidth: 0
Flags: W
HStem: 521.333 151.983<80.682 161.444>
VStem: 52.8105 230.189<547.516 640.39>
LayerCount: 2
Back
Fore
SplineSet
52.810546875 597.416015625 m 0
 52.810546875 540.228515625 105.641601562 521.333007812 161.100585938 521.333007812 c 0
 161.21484375 521.333007812 161.329101562 521.333007812 161.444335938 521.333007812 c 1
 138.201171875 485.185546875 115.70703125 469.95703125 57.818359375 441.639648438 c 0
 45.55078125 435.638671875 43.232421875 422.921875 43.232421875 413.233398438 c 0
 43.232421875 391.81640625 58.4130859375 376.342773438 81.75 376.342773438 c 0
 142.287109375 376.342773438 283 443.776367188 283 577.682617188 c 0
 283 651.640625 224.443359375 673.31640625 161.100585938 673.31640625 c 0
 89.931640625 673.31640625 52.810546875 640.557617188 52.810546875 597.416015625 c 0
EndSplineSet
EndChar

StartChar: quotedblleft
Encoding: 181 8220 94
GlifName: quotedblleft
Width: 609
VWidth: 0
Flags: W
HStem: 376.343 151.983<168.338 249.1 447.788 528.55>
VStem: 46.7812 230.19<409.269 502.143> 326.231 230.189<409.269 502.143>
LayerCount: 2
Back
Fore
SplineSet
556.420898438 452.243164062 m 0
 556.420898438 509.430664062 503.58984375 528.326171875 448.131835938 528.326171875 c 0
 448.016601562 528.326171875 447.90234375 528.326171875 447.788085938 528.326171875 c 1
 471.030273438 564.473632812 493.524414062 579.69921875 551.4140625 608.01953125 c 0
 563.680664062 614.020507812 566 626.737304688 566 636.42578125 c 0
 566 657.842773438 550.818359375 673.31640625 527.481445312 673.31640625 c 0
 466.944335938 673.31640625 326.231445312 605.8828125 326.231445312 471.9765625 c 0
 326.231445312 398.018554688 384.788085938 376.342773438 448.131835938 376.342773438 c 0
 519.299804688 376.342773438 556.420898438 409.1015625 556.420898438 452.243164062 c 0
276.971679688 452.243164062 m 0
 276.971679688 509.430664062 224.139648438 528.326171875 168.681640625 528.326171875 c 0
 168.56640625 528.326171875 168.452148438 528.326171875 168.337890625 528.326171875 c 1
 191.581054688 564.473632812 214.07421875 579.69921875 271.963867188 608.01953125 c 0
 284.23046875 614.020507812 286.549804688 626.737304688 286.549804688 636.42578125 c 0
 286.549804688 657.842773438 271.368164062 673.31640625 248.03125 673.31640625 c 0
 187.495117188 673.31640625 46.78125 605.8828125 46.78125 471.9765625 c 0
 46.78125 398.018554688 105.337890625 376.342773438 168.681640625 376.342773438 c 0
 239.850585938 376.342773438 276.971679688 409.1015625 276.971679688 452.243164062 c 0
EndSplineSet
EndChar

StartChar: quotedblright
Encoding: 182 8221 95
GlifName: quotedblright
Width: 609
VWidth: 0
Flags: W
HStem: 521.333 151.983<80.2317 160.993 359.681 440.443>
VStem: 52.3604 230.189<547.516 640.39> 331.81 230.19<547.516 640.39>
LayerCount: 2
Back
Fore
SplineSet
52.3603515625 597.416015625 m 0
 52.3603515625 540.228515625 105.19140625 521.333007812 160.649414062 521.333007812 c 0
 160.764648438 521.333007812 160.87890625 521.333007812 160.993164062 521.333007812 c 1
 137.750976562 485.185546875 115.256835938 469.959960938 57.3671875 441.639648438 c 0
 45.1005859375 435.638671875 42.78125 422.921875 42.78125 413.233398438 c 0
 42.78125 391.81640625 57.962890625 376.342773438 81.2998046875 376.342773438 c 0
 141.836914062 376.342773438 282.549804688 443.776367188 282.549804688 577.682617188 c 0
 282.549804688 651.640625 223.993164062 673.31640625 160.649414062 673.31640625 c 0
 89.4814453125 673.31640625 52.3603515625 640.557617188 52.3603515625 597.416015625 c 0
331.809570312 597.416015625 m 0
 331.809570312 540.228515625 384.641601562 521.333007812 440.099609375 521.333007812 c 0
 440.21484375 521.333007812 440.329101562 521.333007812 440.443359375 521.333007812 c 1
 417.200195312 485.185546875 394.70703125 469.959960938 336.817382812 441.639648438 c 0
 324.55078125 435.638671875 322.231445312 422.921875 322.231445312 413.233398438 c 0
 322.231445312 391.81640625 337.413085938 376.342773438 360.75 376.342773438 c 0
 421.286132812 376.342773438 562 443.776367188 562 577.682617188 c 0
 562 651.640625 503.443359375 673.31640625 440.099609375 673.31640625 c 0
 368.930664062 673.31640625 331.809570312 640.557617188 331.809570312 597.416015625 c 0
EndSplineSet
EndChar

StartChar: quotesinglbase
Encoding: 183 8218 96
GlifName: quotesinglbase
Width: 331
VWidth: 0
Flags: W
HStem: -6.9834 151.983<81.3187 162.081>
VStem: 53.4473 230.189<19.1995 112.074>
LayerCount: 2
Back
Fore
SplineSet
53.447265625 69.099609375 m 0
 53.447265625 11.912109375 106.278320312 -6.9833984375 161.737304688 -6.9833984375 c 0
 161.8515625 -6.9833984375 161.965820312 -6.9833984375 162.081054688 -6.9833984375 c 1
 138.837890625 -43.130859375 116.34375 -58.359375 58.455078125 -86.6767578125 c 0
 46.1875 -92.677734375 43.869140625 -105.39453125 43.869140625 -115.083007812 c 0
 43.869140625 -136.5 59.0498046875 -151.973632812 82.38671875 -151.973632812 c 0
 142.923828125 -151.973632812 283.63671875 -84.5400390625 283.63671875 49.3662109375 c 0
 283.63671875 123.32421875 225.080078125 145 161.737304688 145 c 0
 90.568359375 145 53.447265625 112.241210938 53.447265625 69.099609375 c 0
EndSplineSet
EndChar

StartChar: quotedblbase
Encoding: 184 8222 97
GlifName: quotedblbase
Width: 601
VWidth: 0
Flags: W
HStem: -6.51953 151.983<74.094 154.855 353.544 434.306>
VStem: 46.2227 230.189<19.6634 112.538> 325.672 230.19<19.6634 112.538>
LayerCount: 2
Back
Fore
SplineSet
46.22265625 69.5634765625 m 0
 46.22265625 12.3759765625 99.0537109375 -6.51953125 154.51171875 -6.51953125 c 0
 154.626953125 -6.51953125 154.741210938 -6.51953125 154.85546875 -6.51953125 c 1
 131.61328125 -42.6669921875 109.118164062 -57.892578125 51.2294921875 -86.212890625 c 0
 38.962890625 -92.2138671875 36.6435546875 -104.930664062 36.6435546875 -114.619140625 c 0
 36.6435546875 -136.036132812 51.8251953125 -151.509765625 75.162109375 -151.509765625 c 0
 135.69921875 -151.509765625 276.412109375 -84.076171875 276.412109375 49.830078125 c 0
 276.412109375 123.788085938 217.85546875 145.463867188 154.51171875 145.463867188 c 0
 83.34375 145.463867188 46.22265625 112.705078125 46.22265625 69.5634765625 c 0
325.671875 69.5634765625 m 0
 325.671875 12.3759765625 378.50390625 -6.51953125 433.961914062 -6.51953125 c 0
 434.077148438 -6.51953125 434.19140625 -6.51953125 434.305664062 -6.51953125 c 1
 411.0625 -42.6669921875 388.568359375 -57.892578125 330.6796875 -86.212890625 c 0
 318.413085938 -92.2138671875 316.09375 -104.930664062 316.09375 -114.619140625 c 0
 316.09375 -136.036132812 331.275390625 -151.509765625 354.612304688 -151.509765625 c 0
 415.1484375 -151.509765625 555.862304688 -84.076171875 555.862304688 49.830078125 c 0
 555.862304688 123.788085938 497.305664062 145.463867188 433.961914062 145.463867188 c 0
 362.79296875 145.463867188 325.671875 112.705078125 325.671875 69.5634765625 c 0
EndSplineSet
EndChar

StartChar: parenleft
Encoding: 189 40 102
GlifName: parenleft
Width: 409
VWidth: 0
Flags: W
VStem: 70.5977 237.609<122.169 437.825>
LayerCount: 2
Back
Fore
SplineSet
308.20703125 280.903320312 m 0
 308.20703125 100.916992188 376.793945312 -28.775390625 376.793945312 -98.5966796875 c 0
 376.793945312 -138.846679688 351.145507812 -156.15234375 324.100585938 -156.15234375 c 0
 223.606445312 -156.15234375 70.59765625 24.0283203125 70.59765625 280.072265625 c 0
 70.59765625 535.469726562 223.856445312 715.658203125 324.306640625 715.658203125 c 0
 351.352539062 715.658203125 377 698.352539062 377 658.102539062 c 0
 377 588.267578125 308.20703125 458.546875 308.20703125 280.903320312 c 0
EndSplineSet
EndChar

StartChar: parenright
Encoding: 190 41 103
GlifName: parenright
Width: 410
VWidth: 0
Flags: W
VStem: 101.391 237.609<122.169 437.825>
LayerCount: 2
Back
Fore
SplineSet
101.390625 280.903320312 m 0
 101.390625 100.916992188 32.8037109375 -28.775390625 32.8037109375 -98.5966796875 c 0
 32.8037109375 -138.846679688 58.4521484375 -156.15234375 85.4970703125 -156.15234375 c 0
 185.991210938 -156.15234375 339 24.0283203125 339 280.072265625 c 0
 339 535.469726562 185.741210938 715.658203125 85.291015625 715.658203125 c 0
 58.2451171875 715.658203125 32.59765625 698.352539062 32.59765625 658.102539062 c 0
 32.59765625 588.267578125 101.390625 458.546875 101.390625 280.903320312 c 0
EndSplineSet
EndChar

StartChar: braceleft
Encoding: 191 123 104
GlifName: braceleft
Width: 556
VWidth: 0
Flags: W
HStem: -158.601 151.979<403.297 495.426> 565.332 151.979<403.297 495.472>
VStem: 183.58 219.717<-6.62207 203.057 347.095 565.332>
LayerCount: 2
Back
SplineSet
339.67578125 -6.21875 m 260
 339.67578125 181.280273438 290.439453125 265.330078125 245.375976562 274.381835938 c 261
 290.439453125 285.182617188 339.67578125 370.91796875 339.67578125 565.33203125 c 1284
341.088867188 565.33203125 m 5
 402.806640625 565.33203125 461.642578125 583.331054688 461.642578125 641.41015625 c 4
 461.642578125 684.551757812 424.521484375 717.310546875 353.352539062 717.310546875 c 4
 315.135742188 717.310546875 278.115234375 716.7421875 245.252929688 716.7421875 c 4
 145.200195312 716.7421875 120.28515625 686.259765625 120.22265625 606.91015625 c 4
 120.22265625 -48.2001953125 l 4
 120.28515625 -127.549804688 145.200195312 -158.032226562 245.252929688 -158.032226562 c 4
 278.115234375 -158.032226562 315.135742188 -158.600585938 353.352539062 -158.600585938 c 4
 424.521484375 -158.600585938 461.642578125 -125.841796875 461.642578125 -82.7001953125 c 4
 461.642578125 -24.62109375 402.806640625 -6.6220703125 341.088867188 -6.6220703125 c 1029
EndSplineSet
Fore
SplineSet
403.296875 565.33203125 m 1
 465.133789062 565.33203125 525 583.331054688 525 641.41015625 c 0
 525 684.551757812 487.87890625 717.310546875 416.7109375 717.310546875 c 0
 378.493164062 717.310546875 341.47265625 716.7421875 308.610351562 716.7421875 c 0
 208.55859375 716.7421875 183.580078125 686.259765625 183.580078125 606.91015625 c 2
 183.580078125 349.118164062 l 1
 132.572265625 340.942382812 106.14453125 311.932617188 106.14453125 275.53125 c 0
 106.14453125 229.162109375 140.876953125 207.967773438 183.580078125 201.608398438 c 1
 183.580078125 -48.2001953125 l 2
 183.580078125 -127.549804688 208.55859375 -158.032226562 308.610351562 -158.032226562 c 0
 341.47265625 -158.032226562 378.493164062 -158.600585938 416.7109375 -158.600585938 c 0
 487.87890625 -158.600585938 525 -125.841796875 525 -82.7001953125 c 0
 525 -24.62109375 464.990234375 -6.6220703125 403.296875 -6.6220703125 c 1
 403.296875 175.481445312 378.30078125 265.330078125 329.43359375 274.381835938 c 1
 378.30078125 285.182617188 403.296875 372.131835938 403.296875 565.33203125 c 1
EndSplineSet
EndChar

StartChar: bracketleft
Encoding: 193 91 106
GlifName: bracketleft
Width: 478
VWidth: 0
Flags: W
HStem: -158.601 151.979<326.446 417.813> 565.332 151.979<326.446 417.813>
LayerCount: 2
Back
Fore
SplineSet
105.580078125 -48.2001953125 m 2
 105.642578125 -127.549804688 130.557617188 -158.032226562 230.610351562 -158.032226562 c 0
 263.47265625 -158.032226562 300.493164062 -158.600585938 338.709960938 -158.600585938 c 0
 409.87890625 -158.600585938 447 -125.841796875 447 -82.7001953125 c 0
 447 -24.62109375 388.165039062 -6.6220703125 326.446289062 -6.6220703125 c 1
 326.446289062 565.33203125 l 1
 388.165039062 565.33203125 447 583.331054688 447 641.41015625 c 0
 447 684.551757812 409.87890625 717.310546875 338.709960938 717.310546875 c 0
 300.493164062 717.310546875 263.47265625 716.7421875 230.610351562 716.7421875 c 0
 130.557617188 716.7421875 105.642578125 686.259765625 105.580078125 606.91015625 c 2
 105.580078125 -48.2001953125 l 2
EndSplineSet
EndChar

StartChar: bar
Encoding: 195 124 108
GlifName: bar
Width: 339
VWidth: 0
Flags: W
HStem: -72.8311 795.212<90.446 248.35>
VStem: 61 219<-40.8267 693.219>
LayerCount: 2
Back
Fore
SplineSet
280 28.0224609375 m 1052,0,-1
280 28.0224609375 m 6,1,-1
 280 -40.630859375 241.791992188 -72.8310546875 170.04296875 -72.8310546875 c 4,4,-1
 98.29296875 -72.8310546875 61.2470703125 -51.78515625 61 20.3759765625 c 6,7,-1
 61 633.482421875 l 6,8,-1
 61 697.818359375 107.9765625 722.380859375 170.04296875 722.380859375 c 4,11,-1
 232.88671875 722.380859375 279.645507812 712.4296875 279.681640625 642.46875 c 6,14,-1
 280 28.0224609375 l 6,1,-1
EndSplineSet
EndChar

StartChar: slash
Encoding: 196 47 109
GlifName: slash
Width: 546
VWidth: 0
Flags: W
HStem: -16.6328 702.466<207.36 369.36>
LayerCount: 2
Back
Fore
SplineSet
290.540039062 49.5390625 m 6
 272.250976562 4.603515625 249.946289062 -16.6328125 207.360351562 -16.6328125 c 4
 145.890625 -16.6328125 74.853515625 30.48046875 74.853515625 82 c 4
 74.853515625 95.4130859375 79.228515625 108.44140625 85.7548828125 124.642578125 c 6
 289.491210938 631.900390625 l 6
 304.896484375 669.743164062 328.551757812 685.833007812 369.360351562 685.833007812 c 4
 430.3671875 685.833007812 505 643.563476562 505 593 c 4
 505 582.1171875 501.947265625 570.583007812 496.546875 557.317382812 c 6
 290.540039062 49.5390625 l 6
EndSplineSet
EndChar

StartChar: endash
Encoding: 198 8211 110
GlifName: endash
Width: 650
VWidth: 0
Flags: W
HStem: 201.58 144.9<80.1039 571.055>
VStem: 61 527<219.01 327.416>
LayerCount: 2
Back
Fore
SplineSet
491.9140625 346.48046875 m 6
 564.494140625 346.48046875 588 324.99609375 588 267.962890625 c 4
 588 217.74609375 554.41015625 201.580078125 482.55078125 201.580078125 c 6
 142.083007812 201.580078125 l 6
 81.6767578125 201.580078125 61 229.274414062 61 271.842773438 c 4
 61 311.912109375 78.8564453125 346.48046875 148.329101562 346.48046875 c 6
 491.9140625 346.48046875 l 6
EndSplineSet
EndChar

StartChar: emdash
Encoding: 199 8212 111
GlifName: emdash
Width: 1151
VWidth: 0
Flags: W
HStem: 201.58 144.9<80.1054 1073.05>
LayerCount: 2
Back
Fore
SplineSet
993.9140625 346.48046875 m 6
 1066.49023438 346.48046875 1090 324.99609375 1090 267.962890625 c 4
 1090 217.74609375 1056.40625 201.580078125 984.55078125 201.580078125 c 6
 142.083007812 201.580078125 l 6
 81.6806640625 201.580078125 61 229.274414062 61 271.842773438 c 4
 61 311.912109375 78.8603515625 346.48046875 148.329101562 346.48046875 c 6
 993.9140625 346.48046875 l 6
EndSplineSet
EndChar

StartChar: bullet
Encoding: 200 8226 112
GlifName: bullet
Width: 329
VWidth: 0
Flags: W
HStem: 143.435 206.032<86.8082 247.572>
VStem: 44.9111 237.089<179.071 309>
LayerCount: 2
Back
Fore
SplineSet
44.9111328125 243.666992188 m 0
 44.9111328125 168.327148438 102.791015625 143.434570312 163.55078125 143.434570312 c 0
 234.916992188 143.434570312 282 165.6484375 282 249.416992188 c 0
 282 317.458007812 241.385742188 349.466796875 162.400390625 349.466796875 c 0
 85.185546875 349.466796875 44.9111328125 303.803710938 44.9111328125 243.666992188 c 0
EndSplineSet
EndChar

StartChar: periodcentered
Encoding: 201 183 113
GlifName: periodcentered
Width: 315
VWidth: 0
Flags: W
HStem: 157.959 151.983<72.3317 237.756>
VStem: 44.46 217.54<183.542 282.83>
LayerCount: 2
Back
Fore
SplineSet
44.4599609375 234.041992188 m 4
 44.4599609375 176.854492188 97.2919921875 157.958984375 152.75 157.958984375 c 4
 218.573242188 157.958984375 262 173.90625 262 234.041992188 c 4
 262 285.66015625 224.900390625 309.942382812 152.75 309.942382812 c 4
 81.5810546875 309.942382812 44.4599609375 277.18359375 44.4599609375 234.041992188 c 4
EndSplineSet
EndChar

StartChar: asterisk
Encoding: 202 42 114
GlifName: asterisk
Width: 568
VWidth: 0
Flags: W
VStem: 211.771 144.899<700.577 826.469>
LayerCount: 2
Back
Fore
SplineSet
211.770507812 747.327148438 m 2
 211.770507812 819.909179688 233.25390625 843.413085938 290.2890625 843.413085938 c 0
 340.50390625 843.413085938 356.669921875 809.826171875 356.669921875 737.963867188 c 2
 356.669921875 700.576171875 l 1
 415.709960938 721.513671875 l 2
 437.892578125 729.379882812 455.958984375 733.591796875 470.91015625 733.591796875 c 0
 505.208007812 733.591796875 538 700.731445312 538 653.663085938 c 0
 538 622.241210938 510.135742188 601.169921875 456.469726562 582.1484375 c 2
 417.0390625 568.173828125 l 1
 461.500976562 504.672851562 l 2
 476.935546875 482.629882812 483.587890625 464.3828125 483.587890625 448.962890625 c 0
 483.587890625 414.509765625 442.912109375 377.541992188 406.509765625 377.541992188 c 0
 385.790039062 377.541992188 365.122070312 389.692382812 344.41015625 419.272460938 c 2
 282.780273438 507.287109375 l 1
 221.151367188 419.272460938 l 2
 200.508789062 389.791015625 179.911132812 377.541015625 159.259765625 377.541015625 c 0
 123.442382812 377.541015625 81.9697265625 413.999023438 81.9697265625 447.813476562 c 0
 81.9697265625 463.474609375 88.2392578125 482.080078125 104.060546875 504.672851562 c 2
 149.096679688 568.9921875 l 1
 111.975585938 582.1484375 l 2
 58.3095703125 601.169921875 30.4453125 622.241210938 30.4453125 653.663085938 c 0
 30.4453125 700.401367188 63.1552734375 733.59375 97.16015625 733.59375 c 0
 112.184570312 733.59375 130.366210938 729.4453125 152.735351562 721.513671875 c 2
 211.770507812 700.577148438 l 1
 211.770507812 747.327148438 l 2
EndSplineSet
EndChar

StartChar: dagger
Encoding: 203 8224 115
GlifName: dagger
Width: 532
VWidth: 0
Flags: W
HStem: -0.24707 21G<233.067 302.027> 472 144.9<57.0149 482.058>
VStem: 163.914 210<44.879 699.502>
LayerCount: 2
Back
Fore
SplineSet
402.9140625 616.900390625 m 6
 475.50390625 616.900390625 499 595.416015625 499 538.3828125 c 4
 499 488.166015625 465.419921875 472 393.55078125 472 c 6
 118.997070312 472 l 6
 58.5830078125 472 37.9140625 499.694335938 37.9140625 542.262695312 c 4
 37.9140625 582.33203125 55.76171875 616.900390625 125.243164062 616.900390625 c 6
 402.9140625 616.900390625 l 6
373.9140625 150.057617188 m 6
 373.9140625 44 336.887695312 -0.2470703125 267.166992188 -0.2470703125 c 4
 198.967773438 -0.2470703125 163.9140625 31.9560546875 163.9140625 142.41015625 c 6
 163.9140625 617.05078125 l 6
 163.9140625 706.43359375 208.221679688 737 267.166992188 737 c 4
 328.244140625 737 373.9140625 723.181640625 373.9140625 626.037109375 c 6
 373.9140625 150.057617188 l 6
EndSplineSet
EndChar

StartChar: daggerdbl
Encoding: 204 8225 116
GlifName: daggerdbl
Width: 532
VWidth: 0
Flags: W
HStem: -0.24707 21G<233.067 302.027> 147.617 144.9<57.0149 482.058> 472 144.9<57.0149 482.058>
VStem: 163.914 210<44.879 699.502>
LayerCount: 2
Back
Fore
SplineSet
402.9140625 292.517578125 m 6
 475.50390625 292.517578125 499 271.033203125 499 214 c 4
 499 163.783203125 465.419921875 147.6171875 393.55078125 147.6171875 c 6
 118.997070312 147.6171875 l 6
 58.5830078125 147.6171875 37.9140625 175.311523438 37.9140625 217.879882812 c 4
 37.9140625 257.94921875 55.76171875 292.517578125 125.243164062 292.517578125 c 6
 402.9140625 292.517578125 l 6
402.9140625 616.900390625 m 2
 475.50390625 616.900390625 499 595.416015625 499 538.3828125 c 0
 499 488.166015625 465.419921875 472 393.55078125 472 c 2
 118.997070312 472 l 2
 58.5830078125 472 37.9140625 499.694335938 37.9140625 542.262695312 c 0
 37.9140625 582.33203125 55.76171875 616.900390625 125.243164062 616.900390625 c 2
 402.9140625 616.900390625 l 2
373.9140625 150.057617188 m 2
 373.9140625 44 336.887695312 -0.2470703125 267.166992188 -0.2470703125 c 0
 198.967773438 -0.2470703125 163.9140625 31.9560546875 163.9140625 142.41015625 c 2
 163.9140625 617.05078125 l 2
 163.9140625 706.43359375 208.221679688 737 267.166992188 737 c 0
 328.244140625 737 373.9140625 723.181640625 373.9140625 626.037109375 c 2
 373.9140625 150.057617188 l 2
EndSplineSet
EndChar

StartChar: section
Encoding: 205 167 117
GlifName: section
Width: 800
VWidth: 0
Flags: W
HStem: -95.5195 167.271<211.148 468.391> 695.712 123.839<427.034 562.292>
VStem: 44.1807 241.287<375.565 447.053> 179 238.8<608.377 686.042>
LayerCount: 2
Back
SplineSet
342.650390625 602.936523438 m 4
 153.604492188 602.936523438 44 512.521484375 44 396 c 4
 44 324.62109375 79.3037109375 275.850585938 155.549804688 232.286132812 c 4
 297.280273438 143.7421875 356.450195312 144.990234375 356.450195312 103.8359375 c 4
 356.450195312 80.3623046875 336.719726562 72.1572265625 311.600585938 72.1572265625 c 4
 226.91015625 72.1572265625 140.090820312 125.038085938 90.3740234375 125.038085938 c 4
 50.1240234375 125.038085938 32.8193359375 99.390625 32.8193359375 72.3447265625 c 4
 32.8193359375 6.04296875 167.170898438 -95.1142578125 357.600585938 -95.1142578125 c 4
 599.514648438 -95.1142578125 646.299804688 15.744140625 646.299804688 111.885742188 c 4
 646.299804688 177.9453125 613.71484375 227.9609375 502.950195312 297.385742188 c 4
 406.484375 356.921875 312.75 379.397460938 312.75 431.5859375 c 4
 312.75 467.732421875 336.615234375 479.09765625 371.400390625 479.09765625 c 4
 455.182617188 479.09765625 532.615234375 404.926757812 576.549804688 404.926757812 c 4
 596.080078125 404.926757812 619.415039062 419.97265625 619.415039062 449.986328125 c 4
 619.415039062 519.46875 509.956054688 602.936523438 342.650390625 602.936523438 c 4
EndSplineSet
Fore
SplineSet
516.005859375 325.140625 m 7xe0
 516.005859375 339.099063558 503.923071784 347.974655496 476 364.140625 c 4
 380.999994916 419.140561861 351.940782479 449.181640625 315 449.181640625 c 7
 295.598577964 449.181640625 285.467773438 437.345043796 285.467773438 418.140625 c 7
 285.467773438 368.951312631 393.673322066 292 468 292 c 7
 493.652510553 292 516.005859375 301.811050049 516.005859375 325.140625 c 7xe0
179 578.31640625 m 1xd0
 179 706.78515625 258.654296875 819.55078125 447.700195312 819.55078125 c 0
 615.005859375 819.55078125 724.46484375 736.083007812 724.46484375 666.600585938 c 0
 724.46484375 636.586914062 701.129882812 621.541015625 681.599609375 621.541015625 c 0
 637.665039062 621.541015625 560.232421875 695.711914062 476.450195312 695.711914062 c 0
 441.665039062 695.711914062 417.799804688 684.346679688 417.799804688 648.200195312 c 0xd0
 417.799804688 596.01171875 504.948929298 576.202663193 601 516 c 0
 716.329858903 443.713823482 763.443186612 413.669307278 763.443186612 316.000006155 c 3
 763.443186612 226.292956155 697.223329049 162.27928268 646.48046875 144 c 1
 647.465945476 133.220909705 647.83263017 122.533157942 647.83263017 112.000003955 c 3
 647.83263017 -0.59201922707 578.999967077 -95.51953125 357.78125 -95.51953125 c 0
 167.3515625 -95.51953125 33 5.6376953125 33 71.939453125 c 0
 33 98.9853515625 50.3046875 124.6328125 90.5546875 124.6328125 c 0
 140.271484375 124.6328125 227.090820312 71.751953125 311.78125 71.751953125 c 0
 336.900390625 71.751953125 356.630859375 79.95703125 356.630859375 103.430664062 c 0
 356.630859375 144.584960938 300.831154721 148.975208456 155.73046875 231.880859375 c 0
 79.484375 275.4453125 44.1806640625 324.215820312 44.1806640625 395.594726562 c 0xe0
 44.1806640625 503 119 547 179 578.31640625 c 1xd0
EndSplineSet
EndChar

StartChar: paragraph
Encoding: 206 182 118
GlifName: paragraph
Width: 1000
VWidth: 0
Flags: W
HStem: 556 128<880.248 970.258>
VStem: 21 549.05<291.597 515.612>
LayerCount: 2
Back
Fore
SplineSet
355 117.779296875 m 5
 355 38.208984375 374.549804688 0.01953125 456.59765625 0.01953125 c 4
 540.150390625 0.01953125 570.049804688 25.9453125 570.049804688 106.70703125 c 6
 570.049804688 556 l 5
 665.198242188 556 l 5
 665.198242188 117.779296875 l 6
 665.198242188 38.208984375 684.748046875 0.01953125 766.795898438 0.01953125 c 4
 850.348632812 0.01953125 880.248046875 25.9453125 880.248046875 106.70703125 c 6
 880.248046875 556 l 5
 944.622070312 556 981.952148438 562.544921875 981.952148438 613.919921875 c 4
 981.952148438 665.546246498 965.154296875 683.737464719 902.1015625 684 c 6
 355.912109375 684 l 5
 160.26636785 684 21 593.587411072 21 391.831054688 c 4
 21 208.592929356 194.701933132 117.779296875 355 117.779296875 c 5
EndSplineSet
EndChar

StartChar: uni0BB3
Encoding: 35 2995 119
GlifName: uni0B_B_3
Width: 1531
VWidth: 0
Flags: HW
HStem: -6.19922 77.8975<302.434 483.238> 235.396 73.3584<436.816 482.838> 378 123.677<925.107 1122.91 1337.96 1498.87> 378.925 143.075<337.918 549.122>
VStem: 23 221.938<161.293 298.41> 284.752 140.905<114.65 228.886> 492.891 140.843<76.756 231.34> 710.009 215.099<28.3028 222.944> 1122.91 215.05<28.3028 378>
AnchorPoint: "Anchor-1" 1524 0 basechar 0
AnchorPoint: "Anchor-0" 814 0 basechar 0
LayerCount: 2
Back
SplineSet
492.890625 152.798828125 m 4xbf
 492.890625 192.381835938 482.565429688 235.395507812 460.458007812 235.395507812 c 4
 437.62109375 235.395507812 425.657226562 191.87890625 425.657226562 152.841796875 c 4
 425.657226562 113.8203125 436.776367188 71.6982421875 460.141601562 71.6982421875 c 4
 483.506835938 71.6982421875 492.890625 113.236328125 492.890625 152.798828125 c 4xbf
714.0859375 424.634765625 m 5
 725.26953125 470.884765625 759.094726562 500.28515625 807.438476562 501.676757812 c 4
 1435.70800781 501.881835938 l 4
 1492.31542969 501.881835938 1508.95703125 485.555664062 1508.95703125 437.482421875 c 4
 1508.95703125 387.428710938 1479.40820312 378 1429.95800781 378 c 6
 1337.95800781 378 l 5
 1337.95800781 107 l 6
 1337.95800781 26.2392578125 1308.05761719 0.3134765625 1224.50488281 0.3134765625 c 4
 1142.45800781 0.3134765625 1122.90820312 38.5029296875 1122.90820312 118.072265625 c 6
 1122.90820312 378 l 5
 925.107421875 378 l 5xdf80
 925.107421875 107 l 6
 925.107421875 26.2392578125 895.208007812 0.3134765625 811.655273438 0.3134765625 c 4
 729.607421875 0.3134765625 710.168945312 39 710.057617188 118.072265625 c 6
 710.008789062 152.883789062 l 5
 666.283203125 307.2890625 589.983398438 378.924804688 436.30859375 378.924804688 c 4
 345.727539062 378.924804688 244.9375 326.724609375 244.9375 228.784179688 c 4
 244.9375 175.357421875 260.198242188 138.362304688 289.099609375 113.71875 c 5
 286.25390625 125.534179688 284.751953125 138.19921875 284.751953125 151.682617188 c 4
 284.751953125 249.62890625 359.498046875 308.75390625 459.836914062 308.75390625 c 4
 560.202148438 308.75390625 633.733398438 249.62890625 633.733398438 151.682617188 c 4
 633.733398438 45.0458984375 549.915039062 -6.19921875 437 -6.19921875 c 4
 169.049804688 -6.19921875 23 90 23 266 c 4
 23 433 179.374023438 522 429 522 c 1028
EndSplineSet
Fore
SplineSet
492.890625 152.798828125 m 4xcf80
 492.890625 192.381835938 482.565429688 235.395507812 460.458007812 235.395507812 c 4
 437.62109375 235.395507812 425.657226562 191.87890625 425.657226562 152.841796875 c 4
 425.657226562 113.8203125 436.776367188 71.6982421875 460.141601562 71.6982421875 c 4
 483.506835938 71.6982421875 492.890625 113.236328125 492.890625 152.798828125 c 4xcf80
714.0859375 424.634765625 m 5
 714.0859375 424.634765625 731 502 807.438476562 501.676757812 c 0
 1435.70800781 501.881835938 l 0
 1492.31542969 501.881835938 1508.95703125 485.555664062 1508.95703125 437.482421875 c 0
 1508.95703125 387.428710938 1479.40820312 378 1429.95800781 378 c 2
 1337.95800781 378 l 1
 1337.95800781 107 l 2
 1337.95800781 26.2392578125 1308.05761719 0.3134765625 1224.50488281 0.3134765625 c 0
 1142.45800781 0.3134765625 1122.90820312 38.5029296875 1122.90820312 118.072265625 c 2
 1122.90820312 378 l 1
 925.107421875 378 l 1xef80
 925.107421875 107 l 2
 925.107421875 26.2392578125 894 0.3134765625 811.655273438 0.3134765625 c 0
 720.999023438 0.3134765625 710.057617188 50.8828125 710.008789062 116 c 4
 710.008789062 272.116210938 589.983398438 378.924804688 436.30859375 378.924804688 c 4
 345.727539062 378.924804688 244.9375 326.724609375 244.9375 228.784179688 c 4
 244.9375 175.357421875 260.198242188 138.362304688 289.099609375 113.71875 c 5
 286.25390625 125.534179688 284.751953125 138.19921875 284.751953125 151.682617188 c 4
 284.751953125 249.62890625 359.498046875 308.75390625 459.836914062 308.75390625 c 4
 560.202148438 308.75390625 633.733398438 249.62890625 633.733398438 151.682617188 c 4
 633.733398438 45.0458984375 549.915039062 -6.19921875 437 -6.19921875 c 4
 169.049804688 -6.19921875 23 90 23 266 c 4
 23 433 179.374023438 522 429 522 c 4xdf80
 606 522 714.0859375 424.634765625 714.0859375 424.634765625 c 5
EndSplineSet
EndChar

StartChar: uni0BB5
Encoding: 37 2997 120
GlifName: uni0B_B_5
Width: 1244
VWidth: 0
Flags: HW
HStem: -6.19922 77.8975<302.434 483.257> -0.0664062 125.351<868.702 1006.71> 235.396 73.3584<436.816 482.838> 378 143.876<327.63 555.167>
VStem: 23 221.937<157.471 305.804> 284.752 140.905<114.649 228.886> 492.891 140.842<76.9147 231.34> 703.282 165.42<126.33 230.012> 1006.71 215.05<125.284 464.369>
AnchorPoint: "Anchor-1" 1216 -3 basechar 0
AnchorPoint: "Anchor-0" 801 0 basechar 0
LayerCount: 2
Back
SplineSet
492.890625 152.798828125 m 4xbf
 492.890625 192.381835938 482.565429688 235.395507812 460.458007812 235.395507812 c 4
 437.62109375 235.395507812 425.657226562 191.87890625 425.657226562 152.841796875 c 4
 425.657226562 113.8203125 436.776367188 71.6982421875 460.141601562 71.6982421875 c 4
 483.506835938 71.6982421875 492.890625 113.236328125 492.890625 152.798828125 c 4xbf
714.0859375 424.634765625 m 1
 714.0859375 424.634765625 731 502 807.438476562 501.676757812 c 0
 1435.70800781 501.881835938 l 0
 1492.31542969 501.881835938 1508.95703125 485.555664062 1508.95703125 437.482421875 c 0
 1508.95703125 387.428710938 1479.40820312 378 1429.95800781 378 c 2
 1337.95800781 378 l 1
 1337.95800781 107 l 2
 1337.95800781 26.2392578125 1308.05761719 0.3134765625 1224.50488281 0.3134765625 c 0
 1142.45800781 0.3134765625 1122.90820312 38.5029296875 1122.90820312 118.072265625 c 2
 1122.90820312 378 l 1
 925.107421875 378 l 1xdf80
 925.107421875 107 l 2
 925.107421875 26.2392578125 894 0.3134765625 811.655273438 0.3134765625 c 0
 720.999023438 0.3134765625 710.057617188 50.8828125 710.008789062 116 c 0
 710.008789062 272.116210938 589.983398438 378.924804688 436.30859375 378.924804688 c 4
 345.727539062 378.924804688 244.9375 326.724609375 244.9375 228.784179688 c 4
 244.9375 175.357421875 260.198242188 138.362304688 289.099609375 113.71875 c 5
 286.25390625 125.534179688 284.751953125 138.19921875 284.751953125 151.682617188 c 4
 284.751953125 249.62890625 359.498046875 308.75390625 459.836914062 308.75390625 c 4
 560.202148438 308.75390625 633.733398438 249.62890625 633.733398438 151.682617188 c 4
 633.733398438 45.0458984375 549.915039062 -6.19921875 437 -6.19921875 c 4
 169.049804688 -6.19921875 23 90 23 266 c 4
 23 433 179.374023438 522 429 522 c 4
 606 522 714.0859375 424.634765625 714.0859375 424.634765625 c 1
EndSplineSet
Fore
SplineSet
436.307617188 378 m 0x7f80
 345.7265625 378 244.936523438 340.329101562 244.936523438 228.784179688 c 0
 244.936523438 175.357421875 260.197265625 138.361328125 289.099609375 113.717773438 c 1
 286.25390625 125.533203125 284.751953125 138.19921875 284.751953125 151.682617188 c 0
 284.751953125 249.62890625 359.497070312 308.75390625 459.836914062 308.75390625 c 0
 560.201171875 308.75390625 633.732421875 249.62890625 633.732421875 151.682617188 c 0
 633.732421875 45.7841796875 550.037109375 -6.19921875 437 -6.19921875 c 0xbf80
 169.049804688 -6.19921875 23 94 23 254 c 0
 23 448 187.831054688 521.875976562 437.458007812 521.875976562 c 0
 740.745117188 521.875976562 867.674804688 333.444335938 868.702148438 125.284179688 c 1
 1006.70800781 125.284179688 l 1
 1006.70800781 384.424804688 l 2
 1006.70800781 463.995117188 1032.95214844 502 1115 502 c 0
 1198.55273438 502 1221.7578125 451.258789062 1221.7578125 370.497070312 c 2
 1221.7578125 109.924804688 l 2
 1221.7578125 11.755859375 1164.74707031 -0.06640625 1092.15820312 -0.06640625 c 2
 806.608398438 -0.06640625 l 2
 738.807617188 -0.06640625 703.282226562 51.2861328125 703.282226562 130 c 0
 703.282226562 172.350585938 690.265625 378 436.307617188 378 c 0x7f80
492.890625 152.798828125 m 0
 492.890625 192.381835938 482.565429688 235.395507812 460.458007812 235.395507812 c 0
 437.62109375 235.395507812 425.657226562 191.87890625 425.657226562 152.841796875 c 0
 425.657226562 113.8203125 436.776367188 71.6982421875 460.141601562 71.6982421875 c 0
 483.505859375 71.6982421875 492.890625 113.236328125 492.890625 152.798828125 c 0
EndSplineSet
EndChar

StartChar: uni0BB2
Encoding: 34 2994 121
GlifName: uni0B_B_2
Width: 1183
VWidth: 0
Flags: HW
HStem: -6.19922 77.8975<302.434 483.238> -0.0664062 150.256<887.927 948.225> 235.396 73.3584<436.816 482.838> 378.925 143.075<337.918 557.026>
VStem: 23 221.938<161.293 298.41> 284.752 140.905<114.65 228.886> 492.891 140.843<76.756 231.34> 953.233 207.575<153.913 306.675>
AnchorPoint: "Anchor-1" 1108 0 basechar 0
AnchorPoint: "Anchor-0" 646 -2 basechar 0
LayerCount: 2
Back
Fore
SplineSet
492.890625 152.798828125 m 4xbf
 492.890625 192.381835938 482.565429688 235.395507812 460.458007812 235.395507812 c 4
 437.62109375 235.395507812 425.657226562 191.87890625 425.657226562 152.841796875 c 4
 425.657226562 113.8203125 436.776367188 71.6982421875 460.141601562 71.6982421875 c 4
 483.506835938 71.6982421875 492.890625 113.236328125 492.890625 152.798828125 c 4xbf
710.008789062 152.883789062 m 4
 666.283203125 307.2890625 589.983398438 378.924804688 436.30859375 378.924804688 c 4
 345.727539062 378.924804688 244.9375 326.724609375 244.9375 228.784179688 c 4
 244.9375 175.357421875 260.198242188 138.362304688 289.099609375 113.71875 c 5
 286.25390625 125.534179688 284.751953125 138.19921875 284.751953125 151.682617188 c 4
 284.751953125 249.62890625 359.498046875 308.75390625 459.836914062 308.75390625 c 4
 560.202148438 308.75390625 633.733398438 249.62890625 633.733398438 151.682617188 c 4
 633.733398438 45.0458984375 549.915039062 -6.19921875 437 -6.19921875 c 4xbf
 169.049804688 -6.19921875 23 90 23 266 c 4
 23 433 179.374023438 522 429 522 c 4
 698.2421875 522 818.114257812 377.626953125 864.108398438 226.354492188 c 0
 875.500976562 188.884765625 892.858398438 150.189453125 917.008789062 150.189453125 c 0
 933.912109375 150.189453125 953.233398438 160.422851562 953.233398438 197.734375 c 0
 953.233398438 259.637695312 914.194335938 335.537109375 914.194335938 426.408203125 c 0
 914.194335938 470.4296875 948.51171875 501.798828125 1015.90820312 501.798828125 c 0
 1091.76660156 501.798828125 1160.80859375 438.18359375 1160.80859375 246.607421875 c 0
 1160.80859375 60.7685546875 1036.38476562 -0.06640625 933.108398438 -0.06640625 c 0x7f
 822.708007812 -0.06640625 743.294921875 35.3408203125 710.008789062 152.883789062 c 4
EndSplineSet
Substitution2: "Single Substitution lookup 12 subtable" tm_LU
EndChar

StartChar: uni0BAE
Encoding: 30 2990 122
GlifName: uni0B_A_E_
Width: 823
VWidth: 0
Flags: HW
HStem: -0.0947266 125.262<238.05 345 471.5 579.584> 377.159 124.841<486.729 565.678>
VStem: 23 215.05<125.109 474.519> 345 126.5<125.168 362.014> 579.584 220.817<128.503 360.01>
AnchorPoint: "Anchor-1" 678 0 basechar 0
AnchorPoint: "Anchor-0" 516 -4.51953 basechar 0
LayerCount: 2
Back
Fore
SplineSet
238.049804688 125.108398438 m 5
 345 125.12890625 l 5
 345 315.05859375 l 6
 345 433.508789062 434.104492188 502 549.700195312 502 c 4
 663.409179688 502 800.400390625 441.166015625 800.400390625 255.326171875 c 4
 800.400390625 63.75 731.358398438 -0.0947265625 655.5 -0.0947265625 c 6
 132.25 -0.0947265625 l 6
 70.150390625 -0.0947265625 23 45.189453125 23 112.822265625 c 6
 23 384.749023438 l 6
 23 464.319335938 42.5498046875 502.508789062 124.59765625 502.508789062 c 4
 208.150390625 502.508789062 238.049804688 476.583007812 238.049804688 395.821289062 c 6
 238.049804688 125.108398438 l 5
471.5 125.16796875 m 5
 579.583984375 125.213867188 l 5
 579.600585938 291 l 4
 579.600585938 352.215820312 557.75 377.159179688 525.549804688 377.159179688 c 4
 488.75 377.159179688 471.5 346.200195312 471.5 291 c 6
 471.5 125.16796875 l 5
EndSplineSet
EndChar

StartChar: uni0BAF
Encoding: 31 2991 123
GlifName: uni0B_A_F_
Width: 876
VWidth: 0
Flags: HW
HStem: -5.98047 156.142<249.572 321.983> -0.0622556 125.27<516.215 638.198>
VStem: 23 219.368<155.227 461.158> 330.28 219.368<155.92 461.158> 638.198 215.05<125.348 473.587>
AnchorPoint: "Anchor-1" 902 6 basechar 0
AnchorPoint: "Anchor-0" 452 0 basechar 0
LayerCount: 2
Back
Fore
SplineSet
285.607421875 150.161132812 m 4xb8
 327.842773438 150.161132812 330.280273438 183.29296875 330.280273438 251.549804688 c 4
 330.280273438 288.348632812 331.486328125 356.924804688 331.486328125 412.487304688 c 4
 331.486328125 472.01953125 359.51953125 501.4609375 445.0078125 501.4609375 c 4
 530.499023438 501.4609375 549.6484375 462.576171875 549.6484375 271 c 4
 549.6484375 211.84765625 536.951171875 163.7265625 516.21484375 125.208007812 c 5
 563.021484375 125.25 604.262695312 125.30078125 638.198242188 125.348632812 c 5
 638.198242188 383.81640625 l 6
 638.198242188 463.38671875 657.748046875 501.576171875 739.795898438 501.576171875 c 4
 823.348632812 501.576171875 853.248046875 475.650390625 853.248046875 394.888671875 c 6
 853.248046875 109.896484375 l 6
 853.248046875 19.556640625 802.034179688 0.16796875 739.190429688 0.16796875 c 6
 343.287109375 -0.0625 l 5x78
 324.092773438 -4.08984375 305.143554688 -5.98046875 287.244140625 -5.98046875 c 4
 176.28125 -5.98046875 23 66.7529296875 23 271 c 4
 23 462.576171875 42.150390625 501.4609375 127.639648438 501.4609375 c 4
 213.129882812 501.4609375 241.162109375 472.01953125 241.162109375 412.487304688 c 4
 241.162109375 356.9453125 242.368164062 288.396484375 242.368164062 252.469726562 c 4
 242.368164062 186.2421875 242.37109375 150.161132812 285.607421875 150.161132812 c 4xb8
EndSplineSet
EndChar

